<?xml version="1.0" encoding="UTF-8"?>
<svg xmlns="http://www.w3.org/2000/svg" width="1400" height="1400" viewBox="0 0 1400 1400">
<rect x="0" y="0" width="100%" height="100%" fill="#ffffff" />
<g opacity="0.75">
<line x1="477.98" y1="852.71" x2="442.90" y2="834.00" stroke="#9aa0a6" stroke-width="1.78" />
<line x1="477.98" y1="852.71" x2="510.65" y2="865.04" stroke="#9aa0a6" stroke-width="1.84" />
<line x1="477.98" y1="852.71" x2="470.72" y2="894.38" stroke="#9aa0a6" stroke-width="1.58" />
<line x1="477.98" y1="852.71" x2="445.32" y2="814.44" stroke="#9aa0a6" stroke-width="1.59" />
<line x1="535.57" y1="549.61" x2="546.46" y2="549.45" stroke="#9aa0a6" stroke-width="1.97" />
<line x1="535.57" y1="549.61" x2="509.44" y2="541.44" stroke="#9aa0a6" stroke-width="1.88" />
<line x1="532.43" y1="534.64" x2="546.46" y2="549.45" stroke="#9aa0a6" stroke-width="1.85" />
<line x1="532.43" y1="534.64" x2="509.44" y2="541.44" stroke="#9aa0a6" stroke-width="1.90" />
<line x1="532.43" y1="534.64" x2="550.58" y2="517.63" stroke="#9aa0a6" stroke-width="1.82" />
<line x1="643.74" y1="882.90" x2="583.24" y2="859.09" stroke="#9aa0a6" stroke-width="1.68" />
<line x1="643.74" y1="882.90" x2="687.29" y2="907.14" stroke="#9aa0a6" stroke-width="1.71" />
<line x1="1226.81" y1="1356.04" x2="1197.20" y2="1282.86" stroke="#9aa0a6" stroke-width="1.24" />
<line x1="608.65" y1="586.52" x2="607.01" y2="612.83" stroke="#9aa0a6" stroke-width="1.74" />
<line x1="608.65" y1="586.52" x2="578.26" y2="554.20" stroke="#9aa0a6" stroke-width="1.66" />
<line x1="751.42" y1="630.74" x2="804.66" y2="647.32" stroke="#9aa0a6" stroke-width="1.75" />
<line x1="751.42" y1="630.74" x2="713.91" y2="635.84" stroke="#9aa0a6" stroke-width="1.87" />
<line x1="972.54" y1="628.50" x2="931.69" y2="614.16" stroke="#9aa0a6" stroke-width="1.80" />
<line x1="972.54" y1="628.50" x2="1043.01" y2="620.11" stroke="#9aa0a6" stroke-width="1.74" />
<line x1="721.17" y1="586.09" x2="747.69" y2="586.90" stroke="#9aa0a6" stroke-width="1.92" />
<line x1="721.17" y1="586.09" x2="696.98" y2="595.44" stroke="#9aa0a6" stroke-width="1.88" />
<line x1="564.32" y1="664.72" x2="526.86" y2="653.70" stroke="#9aa0a6" stroke-width="1.83" />
<line x1="564.32" y1="664.72" x2="553.69" y2="684.32" stroke="#9aa0a6" stroke-width="1.80" />
<line x1="564.32" y1="664.72" x2="671.57" y2="700.05" stroke="#9aa0a6" stroke-width="1.47" />
<line x1="564.32" y1="664.72" x2="569.94" y2="644.35" stroke="#9aa0a6" stroke-width="1.80" />
<line x1="564.32" y1="664.72" x2="566.50" y2="673.60" stroke="#9aa0a6" stroke-width="1.92" />
<line x1="564.32" y1="664.72" x2="568.24" y2="648.24" stroke="#9aa0a6" stroke-width="1.84" />
<line x1="564.32" y1="664.72" x2="617.12" y2="690.70" stroke="#9aa0a6" stroke-width="1.68" />
<line x1="215.87" y1="656.76" x2="260.20" y2="649.87" stroke="#9aa0a6" stroke-width="1.84" />
<line x1="215.87" y1="656.76" x2="186.40" y2="668.58" stroke="#9aa0a6" stroke-width="1.85" />
<line x1="523.96" y1="559.73" x2="546.46" y2="549.45" stroke="#9aa0a6" stroke-width="1.88" />
<line x1="523.96" y1="559.73" x2="488.97" y2="554.35" stroke="#9aa0a6" stroke-width="1.87" />
<line x1="523.96" y1="559.73" x2="547.34" y2="561.24" stroke="#9aa0a6" stroke-width="1.93" />
<line x1="523.96" y1="559.73" x2="530.48" y2="573.26" stroke="#9aa0a6" stroke-width="1.87" />
<line x1="523.96" y1="559.73" x2="479.39" y2="597.37" stroke="#9aa0a6" stroke-width="1.59" />
<line x1="553.87" y1="573.64" x2="555.61" y2="585.27" stroke="#9aa0a6" stroke-width="1.89" />
<line x1="553.87" y1="573.64" x2="547.34" y2="561.24" stroke="#9aa0a6" stroke-width="1.88" />
<line x1="637.06" y1="299.01" x2="637.69" y2="344.99" stroke="#9aa0a6" stroke-width="1.53" />
<line x1="637.06" y1="299.01" x2="634.06" y2="268.87" stroke="#9aa0a6" stroke-width="1.70" />
<line x1="835.50" y1="288.45" x2="882.37" y2="285.48" stroke="#9aa0a6" stroke-width="1.84" />
<line x1="835.50" y1="288.45" x2="792.34" y2="286.93" stroke="#9aa0a6" stroke-width="1.85" />
<line x1="424.75" y1="751.08" x2="428.38" y2="722.16" stroke="#9aa0a6" stroke-width="1.71" />
<line x1="424.75" y1="751.08" x2="434.43" y2="767.66" stroke="#9aa0a6" stroke-width="1.84" />
<line x1="424.75" y1="751.08" x2="440.48" y2="785.10" stroke="#9aa0a6" stroke-width="1.65" />
<line x1="424.75" y1="751.08" x2="425.96" y2="740.02" stroke="#9aa0a6" stroke-width="1.90" />
<line x1="518.15" y1="711.87" x2="505.09" y2="725.65" stroke="#9aa0a6" stroke-width="1.86" />
<line x1="518.15" y1="711.87" x2="540.37" y2="694.88" stroke="#9aa0a6" stroke-width="1.82" />
<line x1="641.32" y1="229.75" x2="647.37" y2="199.14" stroke="#9aa0a6" stroke-width="1.69" />
<line x1="641.32" y1="229.75" x2="634.06" y2="268.87" stroke="#9aa0a6" stroke-width="1.60" />
<line x1="684.88" y1="675.81" x2="658.26" y2="658.80" stroke="#9aa0a6" stroke-width="1.81" />
<line x1="684.88" y1="675.81" x2="713.91" y2="697.07" stroke="#9aa0a6" stroke-width="1.77" />
<line x1="457.42" y1="521.88" x2="458.62" y2="500.62" stroke="#9aa0a6" stroke-width="1.79" />
<line x1="457.42" y1="521.88" x2="488.97" y2="554.35" stroke="#9aa0a6" stroke-width="1.65" />
<line x1="566.06" y1="515.16" x2="546.46" y2="549.45" stroke="#9aa0a6" stroke-width="1.65" />
<line x1="566.06" y1="515.16" x2="575.99" y2="475.53" stroke="#9aa0a6" stroke-width="1.60" />
<line x1="516.41" y1="581.75" x2="519.12" y2="568.23" stroke="#9aa0a6" stroke-width="1.87" />
<line x1="516.41" y1="581.75" x2="514.28" y2="599.27" stroke="#9aa0a6" stroke-width="1.83" />
<line x1="843.08" y1="487.76" x2="858.76" y2="517.61" stroke="#9aa0a6" stroke-width="1.70" />
<line x1="843.08" y1="487.76" x2="827.84" y2="453.47" stroke="#9aa0a6" stroke-width="1.65" />
<line x1="526.86" y1="653.70" x2="495.47" y2="642.78" stroke="#9aa0a6" stroke-width="1.85" />
<line x1="526.86" y1="653.70" x2="525.17" y2="666.46" stroke="#9aa0a6" stroke-width="1.88" />
<line x1="526.86" y1="653.70" x2="532.05" y2="640.84" stroke="#9aa0a6" stroke-width="1.88" />
<line x1="470.72" y1="567.81" x2="438.88" y2="575.02" stroke="#9aa0a6" stroke-width="1.87" />
<line x1="470.72" y1="567.81" x2="488.97" y2="554.35" stroke="#9aa0a6" stroke-width="1.86" />
<line x1="447.73" y1="921.59" x2="463.46" y2="905.01" stroke="#9aa0a6" stroke-width="1.83" />
<line x1="447.73" y1="921.59" x2="384.82" y2="963.26" stroke="#9aa0a6" stroke-width="1.52" />
<line x1="931.69" y1="614.16" x2="889.35" y2="592.47" stroke="#9aa0a6" stroke-width="1.74" />
<line x1="584.45" y1="461.92" x2="573.56" y2="441.51" stroke="#9aa0a6" stroke-width="1.80" />
<line x1="584.45" y1="461.92" x2="575.99" y2="475.53" stroke="#9aa0a6" stroke-width="1.87" />
<line x1="799.82" y1="751.08" x2="779.49" y2="721.06" stroke="#9aa0a6" stroke-width="1.69" />
<line x1="799.82" y1="751.08" x2="827.65" y2="770.21" stroke="#9aa0a6" stroke-width="1.79" />
<line x1="304.29" y1="597.37" x2="346.11" y2="611.18" stroke="#9aa0a6" stroke-width="1.80" />
<line x1="573.56" y1="441.51" x2="589.58" y2="413.98" stroke="#9aa0a6" stroke-width="1.72" />
<line x1="1017.60" y1="352.22" x2="1081.72" y2="339.46" stroke="#9aa0a6" stroke-width="1.74" />
<line x1="1017.60" y1="352.22" x2="931.69" y2="371.78" stroke="#9aa0a6" stroke-width="1.64" />
<line x1="913.55" y1="828.04" x2="882.09" y2="806.78" stroke="#9aa0a6" stroke-width="1.76" />
<line x1="913.55" y1="828.04" x2="962.43" y2="845.05" stroke="#9aa0a6" stroke-width="1.76" />
<line x1="676.41" y1="605.65" x2="696.98" y2="595.44" stroke="#9aa0a6" stroke-width="1.88" />
<line x1="676.41" y1="605.65" x2="607.01" y2="612.83" stroke="#9aa0a6" stroke-width="1.75" />
<line x1="636.48" y1="642.22" x2="658.26" y2="658.80" stroke="#9aa0a6" stroke-width="1.82" />
<line x1="636.48" y1="642.22" x2="590.89" y2="629.97" stroke="#9aa0a6" stroke-width="1.80" />
<line x1="636.48" y1="642.22" x2="685.84" y2="637.78" stroke="#9aa0a6" stroke-width="1.83" />
<line x1="636.48" y1="642.22" x2="615.91" y2="636.27" stroke="#9aa0a6" stroke-width="1.92" />
<line x1="458.62" y1="500.62" x2="488.38" y2="456.21" stroke="#9aa0a6" stroke-width="1.54" />
<line x1="488.38" y1="456.21" x2="468.31" y2="418.55" stroke="#9aa0a6" stroke-width="1.61" />
<line x1="526.88" y1="411.36" x2="468.31" y2="418.55" stroke="#9aa0a6" stroke-width="1.79" />
<line x1="526.88" y1="411.36" x2="589.58" y2="413.98" stroke="#9aa0a6" stroke-width="1.78" />
<line x1="509.88" y1="563.69" x2="519.12" y2="568.23" stroke="#9aa0a6" stroke-width="1.96" />
<line x1="509.88" y1="563.69" x2="523.96" y2="559.73" stroke="#9aa0a6" stroke-width="1.95" />
<line x1="935.33" y1="875.24" x2="876.05" y2="862.21" stroke="#9aa0a6" stroke-width="1.76" />
<line x1="935.33" y1="875.24" x2="986.14" y2="887.58" stroke="#9aa0a6" stroke-width="1.79" />
<line x1="1197.20" y1="1282.86" x2="1360.00" y2="1360.00" stroke="#9aa0a6" stroke-width="1.01" />
<line x1="1197.20" y1="1282.86" x2="1137.38" y2="1217.55" stroke="#9aa0a6" stroke-width="1.29" />
<line x1="544.68" y1="594.89" x2="541.81" y2="607.95" stroke="#9aa0a6" stroke-width="1.88" />
<line x1="544.68" y1="594.89" x2="530.48" y2="573.26" stroke="#9aa0a6" stroke-width="1.78" />
<line x1="498.55" y1="612.52" x2="497.25" y2="611.30" stroke="#9aa0a6" stroke-width="2.00" />
<line x1="498.55" y1="612.52" x2="515.49" y2="620.11" stroke="#9aa0a6" stroke-width="1.91" />
<line x1="498.55" y1="612.52" x2="509.88" y2="629.21" stroke="#9aa0a6" stroke-width="1.83" />
<line x1="977.63" y1="310.48" x2="959.52" y2="282.91" stroke="#9aa0a6" stroke-width="1.72" />
<line x1="977.63" y1="310.48" x2="975.25" y2="356.89" stroke="#9aa0a6" stroke-width="1.53" />
<line x1="442.90" y1="834.00" x2="445.32" y2="814.44" stroke="#9aa0a6" stroke-width="1.81" />
<line x1="1137.38" y1="1217.55" x2="1076.88" y2="1148.66" stroke="#9aa0a6" stroke-width="1.26" />
<line x1="298.92" y1="636.27" x2="313.44" y2="623.09" stroke="#9aa0a6" stroke-width="1.87" />
<line x1="298.92" y1="636.27" x2="260.20" y2="649.87" stroke="#9aa0a6" stroke-width="1.81" />
<line x1="313.44" y1="623.09" x2="346.11" y2="611.18" stroke="#9aa0a6" stroke-width="1.84" />
<line x1="1126.49" y1="652.00" x2="1108.34" y2="625.64" stroke="#9aa0a6" stroke-width="1.73" />
<line x1="882.09" y1="806.78" x2="827.65" y2="770.21" stroke="#9aa0a6" stroke-width="1.58" />
<line x1="110.17" y1="697.07" x2="98.08" y2="717.91" stroke="#9aa0a6" stroke-width="1.79" />
<line x1="110.17" y1="697.07" x2="151.31" y2="681.77" stroke="#9aa0a6" stroke-width="1.79" />
<line x1="522.63" y1="614.28" x2="541.81" y2="607.95" stroke="#9aa0a6" stroke-width="1.92" />
<line x1="522.63" y1="614.28" x2="515.49" y2="620.11" stroke="#9aa0a6" stroke-width="1.95" />
<line x1="1108.34" y1="1099.76" x2="1032.12" y2="1085.30" stroke="#9aa0a6" stroke-width="1.69" />
<line x1="1108.34" y1="1099.76" x2="1151.90" y2="1063.19" stroke="#9aa0a6" stroke-width="1.60" />
<line x1="659.47" y1="170.65" x2="647.37" y2="199.14" stroke="#9aa0a6" stroke-width="1.71" />
<line x1="659.47" y1="170.65" x2="682.46" y2="121.32" stroke="#9aa0a6" stroke-width="1.49" />
<line x1="1098.66" y1="295.66" x2="1081.72" y2="339.46" stroke="#9aa0a6" stroke-width="1.55" />
<line x1="1098.66" y1="295.66" x2="1213.60" y2="265.90" stroke="#9aa0a6" stroke-width="1.49" />
<line x1="692.13" y1="789.35" x2="701.82" y2="807.21" stroke="#9aa0a6" stroke-width="1.82" />
<line x1="692.13" y1="789.35" x2="680.04" y2="763.41" stroke="#9aa0a6" stroke-width="1.74" />
<line x1="529.91" y1="885.93" x2="510.65" y2="865.04" stroke="#9aa0a6" stroke-width="1.78" />
<line x1="529.91" y1="885.93" x2="544.53" y2="853.98" stroke="#9aa0a6" stroke-width="1.67" />
<line x1="510.65" y1="865.04" x2="542.11" y2="865.89" stroke="#9aa0a6" stroke-width="1.90" />
<line x1="428.38" y1="722.16" x2="442.90" y2="704.30" stroke="#9aa0a6" stroke-width="1.82" />
<line x1="428.38" y1="722.16" x2="469.51" y2="718.76" stroke="#9aa0a6" stroke-width="1.86" />
<line x1="428.38" y1="722.16" x2="459.35" y2="747.08" stroke="#9aa0a6" stroke-width="1.73" />
<line x1="428.38" y1="722.16" x2="407.52" y2="723.66" stroke="#9aa0a6" stroke-width="1.94" />
<line x1="428.38" y1="722.16" x2="425.96" y2="740.02" stroke="#9aa0a6" stroke-width="1.83" />
<line x1="539.69" y1="802.96" x2="568.73" y2="821.66" stroke="#9aa0a6" stroke-width="1.79" />
<line x1="539.69" y1="802.96" x2="518.51" y2="767.87" stroke="#9aa0a6" stroke-width="1.64" />
<line x1="845.79" y1="676.66" x2="906.29" y2="720.04" stroke="#9aa0a6" stroke-width="1.51" />
<line x1="845.79" y1="676.66" x2="804.66" y2="647.32" stroke="#9aa0a6" stroke-width="1.67" />
<line x1="637.69" y1="344.99" x2="619.54" y2="371.35" stroke="#9aa0a6" stroke-width="1.73" />
<line x1="286.00" y1="747.54" x2="296.45" y2="755.04" stroke="#9aa0a6" stroke-width="1.93" />
<line x1="286.00" y1="747.54" x2="226.19" y2="741.02" stroke="#9aa0a6" stroke-width="1.78" />
<line x1="799.82" y1="1031.73" x2="793.77" y2="992.61" stroke="#9aa0a6" stroke-width="1.60" />
<line x1="799.82" y1="1031.73" x2="785.30" y2="1055.54" stroke="#9aa0a6" stroke-width="1.76" />
<line x1="553.69" y1="684.32" x2="566.50" y2="673.60" stroke="#9aa0a6" stroke-width="1.89" />
<line x1="553.69" y1="684.32" x2="540.37" y2="694.88" stroke="#9aa0a6" stroke-width="1.89" />
<line x1="438.88" y1="575.02" x2="416.28" y2="585.67" stroke="#9aa0a6" stroke-width="1.87" />
<line x1="438.88" y1="575.02" x2="461.53" y2="595.22" stroke="#9aa0a6" stroke-width="1.79" />
<line x1="682.46" y1="121.32" x2="700.61" y2="89.00" stroke="#9aa0a6" stroke-width="1.67" />
<line x1="497.25" y1="611.30" x2="514.28" y2="599.27" stroke="#9aa0a6" stroke-width="1.87" />
<line x1="497.25" y1="611.30" x2="479.39" y2="597.37" stroke="#9aa0a6" stroke-width="1.85" />
<line x1="497.25" y1="611.30" x2="470.72" y2="615.43" stroke="#9aa0a6" stroke-width="1.91" />
<line x1="1309.18" y1="249.80" x2="1213.60" y2="265.90" stroke="#9aa0a6" stroke-width="1.62" />
<line x1="590.89" y1="629.97" x2="607.01" y2="612.83" stroke="#9aa0a6" stroke-width="1.82" />
<line x1="590.89" y1="629.97" x2="615.91" y2="636.27" stroke="#9aa0a6" stroke-width="1.90" />
<line x1="590.89" y1="629.97" x2="573.56" y2="635.84" stroke="#9aa0a6" stroke-width="1.93" />
<line x1="590.89" y1="629.97" x2="569.94" y2="644.35" stroke="#9aa0a6" stroke-width="1.84" />
<line x1="590.89" y1="629.97" x2="607.01" y2="612.83" stroke="#9aa0a6" stroke-width="1.82" />
<line x1="882.37" y1="285.48" x2="915.97" y2="281.21" stroke="#9aa0a6" stroke-width="1.88" />
<line x1="555.61" y1="585.27" x2="607.01" y2="612.83" stroke="#9aa0a6" stroke-width="1.67" />
<line x1="906.29" y1="720.04" x2="937.74" y2="745.98" stroke="#9aa0a6" stroke-width="1.72" />
<line x1="906.29" y1="720.04" x2="942.58" y2="712.38" stroke="#9aa0a6" stroke-width="1.86" />
<line x1="671.57" y1="700.05" x2="653.42" y2="691.55" stroke="#9aa0a6" stroke-width="1.90" />
<line x1="671.57" y1="700.05" x2="742.95" y2="851.86" stroke="#9aa0a6" stroke-width="0.40" />
<line x1="671.57" y1="700.05" x2="671.91" y2="716.92" stroke="#9aa0a6" stroke-width="1.84" />
<line x1="747.69" y1="586.90" x2="665.37" y2="584.82" stroke="#9aa0a6" stroke-width="1.71" />
<line x1="747.69" y1="586.90" x2="774.41" y2="571.21" stroke="#9aa0a6" stroke-width="1.82" />
<line x1="747.69" y1="586.90" x2="831.32" y2="539.81" stroke="#9aa0a6" stroke-width="1.43" />
<line x1="381.47" y1="722.06" x2="358.20" y2="731.94" stroke="#9aa0a6" stroke-width="1.88" />
<line x1="381.47" y1="722.06" x2="407.52" y2="723.66" stroke="#9aa0a6" stroke-width="1.92" />
<line x1="799.82" y1="322.88" x2="792.34" y2="286.93" stroke="#9aa0a6" stroke-width="1.64" />
<line x1="799.82" y1="322.88" x2="795.78" y2="355.36" stroke="#9aa0a6" stroke-width="1.67" />
<line x1="442.90" y1="704.30" x2="469.51" y2="718.76" stroke="#9aa0a6" stroke-width="1.83" />
<line x1="442.90" y1="704.30" x2="440.34" y2="690.28" stroke="#9aa0a6" stroke-width="1.87" />
<line x1="779.49" y1="721.06" x2="713.91" y2="697.07" stroke="#9aa0a6" stroke-width="1.66" />
<line x1="474.60" y1="771.57" x2="434.43" y2="767.66" stroke="#9aa0a6" stroke-width="1.86" />
<line x1="474.60" y1="771.57" x2="484.18" y2="761.93" stroke="#9aa0a6" stroke-width="1.91" />
<line x1="556.63" y1="629.89" x2="536.45" y2="624.46" stroke="#9aa0a6" stroke-width="1.92" />
<line x1="556.63" y1="629.89" x2="573.56" y2="635.84" stroke="#9aa0a6" stroke-width="1.93" />
<line x1="959.52" y1="282.91" x2="915.97" y2="281.21" stroke="#9aa0a6" stroke-width="1.85" />
<line x1="495.47" y1="642.78" x2="477.98" y2="657.95" stroke="#9aa0a6" stroke-width="1.84" />
<line x1="495.47" y1="642.78" x2="532.05" y2="640.84" stroke="#9aa0a6" stroke-width="1.88" />
<line x1="495.47" y1="642.78" x2="509.88" y2="629.21" stroke="#9aa0a6" stroke-width="1.86" />
<line x1="495.47" y1="642.78" x2="451.08" y2="645.74" stroke="#9aa0a6" stroke-width="1.85" />
<line x1="495.47" y1="642.78" x2="470.72" y2="615.43" stroke="#9aa0a6" stroke-width="1.71" />
<line x1="651.43" y1="954.20" x2="674.94" y2="988.70" stroke="#9aa0a6" stroke-width="1.64" />
<line x1="651.43" y1="954.20" x2="625.59" y2="919.04" stroke="#9aa0a6" stroke-width="1.63" />
<line x1="430.17" y1="845.05" x2="366.58" y2="860.21" stroke="#9aa0a6" stroke-width="1.73" />
<line x1="430.17" y1="845.05" x2="445.32" y2="814.44" stroke="#9aa0a6" stroke-width="1.69" />
<line x1="434.43" y1="767.66" x2="445.32" y2="814.44" stroke="#9aa0a6" stroke-width="1.52" />
<line x1="597.76" y1="872.69" x2="568.73" y2="821.66" stroke="#9aa0a6" stroke-width="1.47" />
<line x1="597.76" y1="872.69" x2="625.59" y2="919.04" stroke="#9aa0a6" stroke-width="1.52" />
<line x1="623.99" y1="819.18" x2="657.53" y2="845.66" stroke="#9aa0a6" stroke-width="1.71" />
<line x1="623.99" y1="819.18" x2="607.01" y2="797.44" stroke="#9aa0a6" stroke-width="1.78" />
<line x1="811.72" y1="939.96" x2="836.11" y2="979.00" stroke="#9aa0a6" stroke-width="1.59" />
<line x1="811.72" y1="939.96" x2="808.29" y2="911.81" stroke="#9aa0a6" stroke-width="1.72" />
<line x1="811.72" y1="939.96" x2="813.12" y2="964.97" stroke="#9aa0a6" stroke-width="1.75" />
<line x1="867.04" y1="936.44" x2="822.18" y2="908.89" stroke="#9aa0a6" stroke-width="1.68" />
<line x1="321.91" y1="1072.12" x2="340.06" y2="1116.77" stroke="#9aa0a6" stroke-width="1.54" />
<line x1="321.91" y1="1072.12" x2="289.24" y2="1108.27" stroke="#9aa0a6" stroke-width="1.62" />
<line x1="321.91" y1="1072.12" x2="350.94" y2="1014.29" stroke="#9aa0a6" stroke-width="1.40" />
<line x1="340.06" y1="1116.77" x2="289.24" y2="1108.27" stroke="#9aa0a6" stroke-width="1.81" />
<line x1="340.06" y1="1116.77" x2="344.89" y2="1151.21" stroke="#9aa0a6" stroke-width="1.65" />
<line x1="1121.65" y1="721.31" x2="1034.54" y2="698.35" stroke="#9aa0a6" stroke-width="1.61" />
<line x1="469.51" y1="718.76" x2="505.09" y2="725.65" stroke="#9aa0a6" stroke-width="1.86" />
<line x1="665.37" y1="584.82" x2="607.01" y2="612.83" stroke="#9aa0a6" stroke-width="1.65" />
<line x1="700.61" y1="1112.94" x2="735.69" y2="1100.61" stroke="#9aa0a6" stroke-width="1.83" />
<line x1="700.61" y1="1112.94" x2="665.81" y2="1156.27" stroke="#9aa0a6" stroke-width="1.54" />
<line x1="541.81" y1="607.95" x2="566.31" y2="614.58" stroke="#9aa0a6" stroke-width="1.90" />
<line x1="541.81" y1="607.95" x2="536.45" y2="624.46" stroke="#9aa0a6" stroke-width="1.84" />
<line x1="497.25" y1="738.81" x2="505.09" y2="725.65" stroke="#9aa0a6" stroke-width="1.87" />
<line x1="497.25" y1="738.81" x2="484.18" y2="761.93" stroke="#9aa0a6" stroke-width="1.77" />
<line x1="700.61" y1="89.00" x2="718.76" y2="65.62" stroke="#9aa0a6" stroke-width="1.76" />
<line x1="341.27" y1="984.95" x2="348.53" y2="969.64" stroke="#9aa0a6" stroke-width="1.85" />
<line x1="341.27" y1="984.95" x2="350.94" y2="1014.29" stroke="#9aa0a6" stroke-width="1.70" />
<line x1="348.53" y1="969.64" x2="384.82" y2="963.26" stroke="#9aa0a6" stroke-width="1.86" />
<line x1="477.98" y1="657.95" x2="473.15" y2="670.28" stroke="#9aa0a6" stroke-width="1.88" />
<line x1="735.69" y1="1100.61" x2="776.83" y2="1068.72" stroke="#9aa0a6" stroke-width="1.65" />
<line x1="416.28" y1="585.67" x2="387.24" y2="596.30" stroke="#9aa0a6" stroke-width="1.86" />
<line x1="416.28" y1="585.67" x2="479.39" y2="597.37" stroke="#9aa0a6" stroke-width="1.75" />
<line x1="599.17" y1="767.44" x2="614.41" y2="738.36" stroke="#9aa0a6" stroke-width="1.70" />
<line x1="599.17" y1="767.44" x2="607.01" y2="797.44" stroke="#9aa0a6" stroke-width="1.70" />
<line x1="685.84" y1="637.78" x2="713.91" y2="635.84" stroke="#9aa0a6" stroke-width="1.91" />
<line x1="822.18" y1="908.89" x2="772.09" y2="896.49" stroke="#9aa0a6" stroke-width="1.79" />
<line x1="366.58" y1="860.21" x2="304.73" y2="885.47" stroke="#9aa0a6" stroke-width="1.66" />
<line x1="671.57" y1="737.47" x2="671.91" y2="716.92" stroke="#9aa0a6" stroke-width="1.80" />
<line x1="671.57" y1="737.47" x2="680.04" y2="763.41" stroke="#9aa0a6" stroke-width="1.74" />
<line x1="618.87" y1="721.15" x2="595.62" y2="708.14" stroke="#9aa0a6" stroke-width="1.85" />
<line x1="618.87" y1="721.15" x2="614.41" y2="738.36" stroke="#9aa0a6" stroke-width="1.83" />
<line x1="607.01" y1="612.83" x2="566.31" y2="614.58" stroke="#9aa0a6" stroke-width="1.86" />
<line x1="834.90" y1="850.58" x2="876.05" y2="862.21" stroke="#9aa0a6" stroke-width="1.82" />
<line x1="834.90" y1="850.58" x2="742.95" y2="851.86" stroke="#9aa0a6" stroke-width="1.67" />
<line x1="473.15" y1="670.28" x2="440.34" y2="690.28" stroke="#9aa0a6" stroke-width="1.77" />
<line x1="540.90" y1="746.40" x2="526.38" y2="756.61" stroke="#9aa0a6" stroke-width="1.89" />
<line x1="540.90" y1="746.40" x2="557.84" y2="731.94" stroke="#9aa0a6" stroke-width="1.85" />
<line x1="461.53" y1="595.22" x2="479.39" y2="597.37" stroke="#9aa0a6" stroke-width="1.94" />
<line x1="517.06" y1="692.69" x2="525.17" y2="666.46" stroke="#9aa0a6" stroke-width="1.74" />
<line x1="517.06" y1="692.69" x2="511.38" y2="710.68" stroke="#9aa0a6" stroke-width="1.82" />
<line x1="526.38" y1="756.61" x2="505.58" y2="767.53" stroke="#9aa0a6" stroke-width="1.88" />
<line x1="515.49" y1="620.11" x2="509.88" y2="629.21" stroke="#9aa0a6" stroke-width="1.92" />
<line x1="515.49" y1="620.11" x2="536.45" y2="624.46" stroke="#9aa0a6" stroke-width="1.92" />
<line x1="767.73" y1="435.10" x2="763.52" y2="411.32" stroke="#9aa0a6" stroke-width="1.76" />
<line x1="767.73" y1="435.10" x2="647.51" y2="429.74" stroke="#9aa0a6" stroke-width="1.57" />
<line x1="763.52" y1="411.32" x2="817.96" y2="390.91" stroke="#9aa0a6" stroke-width="1.72" />
<line x1="763.52" y1="411.32" x2="794.98" y2="379.86" stroke="#9aa0a6" stroke-width="1.66" />
<line x1="546.46" y1="549.45" x2="547.34" y2="561.24" stroke="#9aa0a6" stroke-width="1.89" />
<line x1="488.97" y1="554.35" x2="482.82" y2="584.82" stroke="#9aa0a6" stroke-width="1.69" />
<line x1="595.62" y1="708.14" x2="567.24" y2="705.25" stroke="#9aa0a6" stroke-width="1.90" />
<line x1="774.41" y1="571.21" x2="860.31" y2="582.26" stroke="#9aa0a6" stroke-width="1.68" />
<line x1="575.99" y1="475.53" x2="561.46" y2="495.09" stroke="#9aa0a6" stroke-width="1.80" />
<line x1="575.99" y1="475.53" x2="647.51" y2="429.74" stroke="#9aa0a6" stroke-width="1.47" />
<line x1="523.96" y1="559.73" x2="509.44" y2="541.44" stroke="#9aa0a6" stroke-width="1.81" />
<line x1="1032.12" y1="1085.30" x2="948.71" y2="1073.71" stroke="#9aa0a6" stroke-width="1.68" />
<line x1="1032.12" y1="1085.30" x2="1076.88" y2="1148.66" stroke="#9aa0a6" stroke-width="1.33" />
<line x1="547.34" y1="561.24" x2="578.26" y2="554.20" stroke="#9aa0a6" stroke-width="1.88" />
<line x1="40.00" y1="722.59" x2="98.08" y2="717.91" stroke="#9aa0a6" stroke-width="1.79" />
<line x1="701.82" y1="807.21" x2="742.95" y2="851.86" stroke="#9aa0a6" stroke-width="1.52" />
<line x1="568.73" y1="821.66" x2="544.53" y2="853.98" stroke="#9aa0a6" stroke-width="1.66" />
<line x1="542.11" y1="865.89" x2="583.24" y2="859.09" stroke="#9aa0a6" stroke-width="1.85" />
<line x1="836.11" y1="979.00" x2="869.99" y2="1006.64" stroke="#9aa0a6" stroke-width="1.70" />
<line x1="738.98" y1="889.45" x2="772.09" y2="896.49" stroke="#9aa0a6" stroke-width="1.87" />
<line x1="738.98" y1="889.45" x2="691.94" y2="877.81" stroke="#9aa0a6" stroke-width="1.80" />
<line x1="463.46" y1="905.01" x2="470.72" y2="894.38" stroke="#9aa0a6" stroke-width="1.90" />
<line x1="674.94" y1="988.70" x2="713.72" y2="1034.57" stroke="#9aa0a6" stroke-width="1.51" />
<line x1="808.29" y1="911.81" x2="780.46" y2="876.09" stroke="#9aa0a6" stroke-width="1.63" />
<line x1="948.71" y1="1073.71" x2="903.87" y2="1050.44" stroke="#9aa0a6" stroke-width="1.72" />
<line x1="903.87" y1="1050.44" x2="869.99" y2="1006.64" stroke="#9aa0a6" stroke-width="1.54" />
<line x1="505.09" y1="725.65" x2="511.38" y2="710.68" stroke="#9aa0a6" stroke-width="1.86" />
<line x1="1108.34" y1="625.64" x2="1043.01" y2="620.11" stroke="#9aa0a6" stroke-width="1.77" />
<line x1="387.24" y1="596.30" x2="346.11" y2="611.18" stroke="#9aa0a6" stroke-width="1.80" />
<line x1="532.05" y1="640.84" x2="509.88" y2="629.21" stroke="#9aa0a6" stroke-width="1.87" />
<line x1="532.05" y1="640.84" x2="568.24" y2="648.24" stroke="#9aa0a6" stroke-width="1.86" />
<line x1="532.05" y1="640.84" x2="536.45" y2="624.46" stroke="#9aa0a6" stroke-width="1.84" />
<line x1="532.05" y1="640.84" x2="573.56" y2="635.84" stroke="#9aa0a6" stroke-width="1.85" />
<line x1="540.37" y1="694.88" x2="549.37" y2="711.96" stroke="#9aa0a6" stroke-width="1.83" />
<line x1="540.37" y1="694.88" x2="567.24" y2="705.25" stroke="#9aa0a6" stroke-width="1.87" />
<line x1="358.20" y1="731.94" x2="296.45" y2="755.04" stroke="#9aa0a6" stroke-width="1.68" />
<line x1="419.91" y1="628.19" x2="404.47" y2="612.22" stroke="#9aa0a6" stroke-width="1.84" />
<line x1="419.91" y1="628.19" x2="451.08" y2="645.74" stroke="#9aa0a6" stroke-width="1.80" />
<line x1="602.60" y1="397.72" x2="619.54" y2="371.35" stroke="#9aa0a6" stroke-width="1.73" />
<line x1="602.60" y1="397.72" x2="589.58" y2="413.98" stroke="#9aa0a6" stroke-width="1.84" />
<line x1="780.46" y1="876.09" x2="742.95" y2="851.86" stroke="#9aa0a6" stroke-width="1.72" />
<line x1="440.48" y1="785.10" x2="444.11" y2="800.40" stroke="#9aa0a6" stroke-width="1.85" />
<line x1="793.77" y1="992.61" x2="747.79" y2="963.26" stroke="#9aa0a6" stroke-width="1.66" />
<line x1="793.77" y1="992.61" x2="813.12" y2="964.97" stroke="#9aa0a6" stroke-width="1.72" />
<line x1="795.78" y1="355.36" x2="794.98" y2="379.86" stroke="#9aa0a6" stroke-width="1.76" />
<line x1="975.25" y1="356.89" x2="931.69" y2="371.78" stroke="#9aa0a6" stroke-width="1.79" />
<line x1="549.37" y1="711.96" x2="557.84" y2="731.94" stroke="#9aa0a6" stroke-width="1.80" />
<line x1="776.83" y1="1068.72" x2="785.30" y2="1055.54" stroke="#9aa0a6" stroke-width="1.87" />
<line x1="728.33" y1="1052.07" x2="713.72" y2="1034.57" stroke="#9aa0a6" stroke-width="1.82" />
<line x1="728.33" y1="1052.07" x2="769.04" y2="1093.96" stroke="#9aa0a6" stroke-width="1.55" />
<line x1="831.32" y1="539.81" x2="858.76" y2="517.61" stroke="#9aa0a6" stroke-width="1.76" />
<line x1="484.18" y1="761.93" x2="518.51" y2="767.87" stroke="#9aa0a6" stroke-width="1.87" />
<line x1="484.18" y1="761.93" x2="505.58" y2="767.53" stroke="#9aa0a6" stroke-width="1.92" />
<line x1="433.22" y1="663.91" x2="440.34" y2="690.28" stroke="#9aa0a6" stroke-width="1.74" />
<line x1="433.22" y1="663.91" x2="451.08" y2="645.74" stroke="#9aa0a6" stroke-width="1.81" />
<line x1="817.96" y1="390.91" x2="865.15" y2="381.98" stroke="#9aa0a6" stroke-width="1.82" />
<line x1="747.79" y1="963.26" x2="713.91" y2="939.03" stroke="#9aa0a6" stroke-width="1.73" />
<line x1="865.15" y1="381.98" x2="931.69" y2="371.78" stroke="#9aa0a6" stroke-width="1.75" />
<line x1="226.19" y1="741.02" x2="178.76" y2="730.66" stroke="#9aa0a6" stroke-width="1.81" />
<line x1="482.82" y1="584.82" x2="479.39" y2="597.37" stroke="#9aa0a6" stroke-width="1.88" />
<line x1="463.46" y1="629.89" x2="451.08" y2="645.74" stroke="#9aa0a6" stroke-width="1.84" />
<line x1="463.46" y1="629.89" x2="470.72" y2="615.43" stroke="#9aa0a6" stroke-width="1.86" />
<line x1="617.12" y1="690.70" x2="653.42" y2="691.55" stroke="#9aa0a6" stroke-width="1.88" />
<line x1="444.11" y1="800.40" x2="445.32" y2="814.44" stroke="#9aa0a6" stroke-width="1.87" />
<line x1="561.46" y1="495.09" x2="550.58" y2="517.63" stroke="#9aa0a6" stroke-width="1.77" />
<line x1="346.11" y1="611.18" x2="404.47" y2="612.22" stroke="#9aa0a6" stroke-width="1.80" />
<line x1="657.53" y1="845.66" x2="691.94" y2="877.81" stroke="#9aa0a6" stroke-width="1.65" />
<line x1="647.51" y1="429.74" x2="589.58" y2="413.98" stroke="#9aa0a6" stroke-width="1.74" />
<line x1="713.91" y1="939.03" x2="687.29" y2="907.14" stroke="#9aa0a6" stroke-width="1.67" />
<line x1="186.40" y1="668.58" x2="151.31" y2="681.77" stroke="#9aa0a6" stroke-width="1.82" />
<line x1="1034.54" y1="698.35" x2="980.09" y2="708.13" stroke="#9aa0a6" stroke-width="1.79" />
<line x1="860.31" y1="582.26" x2="889.35" y2="592.47" stroke="#9aa0a6" stroke-width="1.86" />
<line x1="722.00" y1="40.00" x2="718.76" y2="65.62" stroke="#9aa0a6" stroke-width="1.74" />
<line x1="479.39" y1="597.37" x2="470.72" y2="615.43" stroke="#9aa0a6" stroke-width="1.82" />
<line x1="942.58" y1="712.38" x2="980.09" y2="708.13" stroke="#9aa0a6" stroke-width="1.87" />
<line x1="131.37" y1="736.82" x2="178.76" y2="730.66" stroke="#9aa0a6" stroke-width="1.83" />
</g>
<g>
<circle cx="477.98" cy="852.71" r="3.20" fill="#b91c1c" />
<circle cx="535.57" cy="549.61" r="2.20" fill="#1f2937" />
<circle cx="532.43" cy="534.64" r="2.20" fill="#1f2937" />
<circle cx="643.74" cy="882.90" r="2.20" fill="#1f2937" />
<circle cx="1226.81" cy="1356.04" r="2.20" fill="#1f2937" />
<circle cx="608.65" cy="586.52" r="2.20" fill="#1f2937" />
<circle cx="751.42" cy="630.74" r="2.20" fill="#1f2937" />
<circle cx="972.54" cy="628.50" r="2.20" fill="#1f2937" />
<circle cx="721.17" cy="586.09" r="2.20" fill="#1f2937" />
<circle cx="564.32" cy="664.72" r="3.20" fill="#b91c1c" />
<circle cx="215.87" cy="656.76" r="2.20" fill="#1f2937" />
<circle cx="523.96" cy="559.73" r="3.20" fill="#b91c1c" />
<circle cx="553.87" cy="573.64" r="2.20" fill="#1f2937" />
<circle cx="637.06" cy="299.01" r="2.20" fill="#1f2937" />
<circle cx="835.50" cy="288.45" r="2.20" fill="#1f2937" />
<circle cx="424.75" cy="751.08" r="3.20" fill="#b91c1c" />
<circle cx="518.15" cy="711.87" r="2.20" fill="#1f2937" />
<circle cx="641.32" cy="229.75" r="2.20" fill="#1f2937" />
<circle cx="684.88" cy="675.81" r="2.20" fill="#1f2937" />
<circle cx="457.42" cy="521.88" r="2.20" fill="#1f2937" />
<circle cx="566.06" cy="515.16" r="2.20" fill="#1f2937" />
<circle cx="516.41" cy="581.75" r="2.20" fill="#1f2937" />
<circle cx="843.08" cy="487.76" r="2.20" fill="#1f2937" />
<circle cx="526.86" cy="653.70" r="3.20" fill="#b91c1c" />
<circle cx="470.72" cy="567.81" r="2.20" fill="#1f2937" />
<circle cx="447.73" cy="921.59" r="2.20" fill="#1f2937" />
<circle cx="931.69" cy="614.16" r="2.20" fill="#1f2937" />
<circle cx="584.45" cy="461.92" r="2.20" fill="#1f2937" />
<circle cx="799.82" cy="751.08" r="2.20" fill="#1f2937" />
<circle cx="304.29" cy="597.37" r="2.20" fill="#1f2937" />
<circle cx="573.56" cy="441.51" r="2.20" fill="#1f2937" />
<circle cx="1017.60" cy="352.22" r="2.20" fill="#1f2937" />
<circle cx="913.55" cy="828.04" r="2.20" fill="#1f2937" />
<circle cx="676.41" cy="605.65" r="2.20" fill="#1f2937" />
<circle cx="636.48" cy="642.22" r="3.20" fill="#b91c1c" />
<circle cx="458.62" cy="500.62" r="2.20" fill="#1f2937" />
<circle cx="488.38" cy="456.21" r="2.20" fill="#1f2937" />
<circle cx="526.88" cy="411.36" r="2.20" fill="#1f2937" />
<circle cx="509.88" cy="563.69" r="2.20" fill="#1f2937" />
<circle cx="935.33" cy="875.24" r="2.20" fill="#1f2937" />
<circle cx="1197.20" cy="1282.86" r="2.20" fill="#1f2937" />
<circle cx="658.26" cy="658.80" r="2.20" fill="#1f2937" />
<circle cx="544.68" cy="594.89" r="2.20" fill="#1f2937" />
<circle cx="498.55" cy="612.52" r="2.20" fill="#1f2937" />
<circle cx="1360.00" cy="1360.00" r="2.20" fill="#1f2937" />
<circle cx="977.63" cy="310.48" r="2.20" fill="#1f2937" />
<circle cx="442.90" cy="834.00" r="2.20" fill="#1f2937" />
<circle cx="1137.38" cy="1217.55" r="2.20" fill="#1f2937" />
<circle cx="298.92" cy="636.27" r="2.20" fill="#1f2937" />
<circle cx="313.44" cy="623.09" r="2.20" fill="#1f2937" />
<circle cx="260.20" cy="649.87" r="2.20" fill="#1f2937" />
<circle cx="1126.49" cy="652.00" r="2.20" fill="#1f2937" />
<circle cx="882.09" cy="806.78" r="2.20" fill="#1f2937" />
<circle cx="110.17" cy="697.07" r="2.20" fill="#1f2937" />
<circle cx="522.63" cy="614.28" r="2.20" fill="#1f2937" />
<circle cx="1108.34" cy="1099.76" r="2.20" fill="#1f2937" />
<circle cx="659.47" cy="170.65" r="2.20" fill="#1f2937" />
<circle cx="647.37" cy="199.14" r="2.20" fill="#1f2937" />
<circle cx="1098.66" cy="295.66" r="2.20" fill="#1f2937" />
<circle cx="692.13" cy="789.35" r="2.20" fill="#1f2937" />
<circle cx="529.91" cy="885.93" r="2.20" fill="#1f2937" />
<circle cx="510.65" cy="865.04" r="2.20" fill="#1f2937" />
<circle cx="428.38" cy="722.16" r="3.20" fill="#b91c1c" />
<circle cx="539.69" cy="802.96" r="2.20" fill="#1f2937" />
<circle cx="845.79" cy="676.66" r="2.20" fill="#1f2937" />
<circle cx="637.69" cy="344.99" r="2.20" fill="#1f2937" />
<circle cx="286.00" cy="747.54" r="2.20" fill="#1f2937" />
<circle cx="799.82" cy="1031.73" r="2.20" fill="#1f2937" />
<circle cx="962.43" cy="845.05" r="2.20" fill="#1f2937" />
<circle cx="553.69" cy="684.32" r="2.20" fill="#1f2937" />
<circle cx="438.88" cy="575.02" r="2.20" fill="#1f2937" />
<circle cx="682.46" cy="121.32" r="2.20" fill="#1f2937" />
<circle cx="497.25" cy="611.30" r="3.20" fill="#b91c1c" />
<circle cx="1309.18" cy="249.80" r="2.20" fill="#1f2937" />
<circle cx="590.89" cy="629.97" r="3.20" fill="#b91c1c" />
<circle cx="590.89" cy="629.97" r="2.20" fill="#1f2937" />
<circle cx="882.37" cy="285.48" r="2.20" fill="#1f2937" />
<circle cx="555.61" cy="585.27" r="2.20" fill="#1f2937" />
<circle cx="906.29" cy="720.04" r="2.20" fill="#1f2937" />
<circle cx="671.57" cy="700.05" r="3.20" fill="#b91c1c" />
<circle cx="747.69" cy="586.90" r="3.20" fill="#b91c1c" />
<circle cx="381.47" cy="722.06" r="2.20" fill="#1f2937" />
<circle cx="799.82" cy="322.88" r="2.20" fill="#1f2937" />
<circle cx="442.90" cy="704.30" r="2.20" fill="#1f2937" />
<circle cx="779.49" cy="721.06" r="2.20" fill="#1f2937" />
<circle cx="474.60" cy="771.57" r="2.20" fill="#1f2937" />
<circle cx="556.63" cy="629.89" r="2.20" fill="#1f2937" />
<circle cx="959.52" cy="282.91" r="2.20" fill="#1f2937" />
<circle cx="569.94" cy="644.35" r="2.20" fill="#1f2937" />
<circle cx="495.47" cy="642.78" r="3.20" fill="#b91c1c" />
<circle cx="651.43" cy="954.20" r="2.20" fill="#1f2937" />
<circle cx="430.17" cy="845.05" r="2.20" fill="#1f2937" />
<circle cx="915.97" cy="281.21" r="2.20" fill="#1f2937" />
<circle cx="434.43" cy="767.66" r="2.20" fill="#1f2937" />
<circle cx="713.91" cy="697.07" r="2.20" fill="#1f2937" />
<circle cx="597.76" cy="872.69" r="2.20" fill="#1f2937" />
<circle cx="623.99" cy="819.18" r="2.20" fill="#1f2937" />
<circle cx="811.72" cy="939.96" r="2.20" fill="#1f2937" />
<circle cx="867.04" cy="936.44" r="2.20" fill="#1f2937" />
<circle cx="321.91" cy="1072.12" r="2.20" fill="#1f2937" />
<circle cx="340.06" cy="1116.77" r="2.20" fill="#1f2937" />
<circle cx="289.24" cy="1108.27" r="2.20" fill="#1f2937" />
<circle cx="344.89" cy="1151.21" r="2.20" fill="#1f2937" />
<circle cx="827.65" cy="770.21" r="2.20" fill="#1f2937" />
<circle cx="1121.65" cy="721.31" r="2.20" fill="#1f2937" />
<circle cx="469.51" cy="718.76" r="2.20" fill="#1f2937" />
<circle cx="665.37" cy="584.82" r="2.20" fill="#1f2937" />
<circle cx="804.66" cy="647.32" r="2.20" fill="#1f2937" />
<circle cx="700.61" cy="1112.94" r="2.20" fill="#1f2937" />
<circle cx="541.81" cy="607.95" r="3.20" fill="#b91c1c" />
<circle cx="497.25" cy="738.81" r="2.20" fill="#1f2937" />
<circle cx="696.98" cy="595.44" r="2.20" fill="#1f2937" />
<circle cx="700.61" cy="89.00" r="2.20" fill="#1f2937" />
<circle cx="341.27" cy="984.95" r="2.20" fill="#1f2937" />
<circle cx="348.53" cy="969.64" r="2.20" fill="#1f2937" />
<circle cx="350.94" cy="1014.29" r="2.20" fill="#1f2937" />
<circle cx="477.98" cy="657.95" r="2.20" fill="#1f2937" />
<circle cx="735.69" cy="1100.61" r="2.20" fill="#1f2937" />
<circle cx="416.28" cy="585.67" r="2.20" fill="#1f2937" />
<circle cx="599.17" cy="767.44" r="2.20" fill="#1f2937" />
<circle cx="459.35" cy="747.08" r="2.20" fill="#1f2937" />
<circle cx="685.84" cy="637.78" r="2.20" fill="#1f2937" />
<circle cx="822.18" cy="908.89" r="2.20" fill="#1f2937" />
<circle cx="366.58" cy="860.21" r="2.20" fill="#1f2937" />
<circle cx="671.57" cy="737.47" r="2.20" fill="#1f2937" />
<circle cx="618.87" cy="721.15" r="2.20" fill="#1f2937" />
<circle cx="607.01" cy="612.83" r="3.20" fill="#b91c1c" />
<circle cx="834.90" cy="850.58" r="2.20" fill="#1f2937" />
<circle cx="473.15" cy="670.28" r="2.20" fill="#1f2937" />
<circle cx="540.90" cy="746.40" r="2.20" fill="#1f2937" />
<circle cx="461.53" cy="595.22" r="2.20" fill="#1f2937" />
<circle cx="517.06" cy="692.69" r="2.20" fill="#1f2937" />
<circle cx="526.38" cy="756.61" r="2.20" fill="#1f2937" />
<circle cx="515.49" cy="620.11" r="3.20" fill="#b91c1c" />
<circle cx="767.73" cy="435.10" r="2.20" fill="#1f2937" />
<circle cx="763.52" cy="411.32" r="2.20" fill="#1f2937" />
<circle cx="546.46" cy="549.45" r="3.20" fill="#b91c1c" />
<circle cx="488.97" cy="554.35" r="3.20" fill="#b91c1c" />
<circle cx="1081.72" cy="339.46" r="2.20" fill="#1f2937" />
<circle cx="595.62" cy="708.14" r="2.20" fill="#1f2937" />
<circle cx="774.41" cy="571.21" r="2.20" fill="#1f2937" />
<circle cx="519.12" cy="568.23" r="2.20" fill="#1f2937" />
<circle cx="525.17" cy="666.46" r="2.20" fill="#1f2937" />
<circle cx="566.50" cy="673.60" r="2.20" fill="#1f2937" />
<circle cx="575.99" cy="475.53" r="3.20" fill="#b91c1c" />
<circle cx="937.74" cy="745.98" r="2.20" fill="#1f2937" />
<circle cx="523.96" cy="559.73" r="2.20" fill="#1f2937" />
<circle cx="1032.12" cy="1085.30" r="2.20" fill="#1f2937" />
<circle cx="547.34" cy="561.24" r="3.20" fill="#b91c1c" />
<circle cx="40.00" cy="722.59" r="2.20" fill="#1f2937" />
<circle cx="615.91" cy="636.27" r="2.20" fill="#1f2937" />
<circle cx="701.82" cy="807.21" r="2.20" fill="#1f2937" />
<circle cx="792.34" cy="286.93" r="2.20" fill="#1f2937" />
<circle cx="568.73" cy="821.66" r="2.20" fill="#1f2937" />
<circle cx="542.11" cy="865.89" r="2.20" fill="#1f2937" />
<circle cx="468.31" cy="418.55" r="2.20" fill="#1f2937" />
<circle cx="836.11" cy="979.00" r="2.20" fill="#1f2937" />
<circle cx="738.98" cy="889.45" r="2.20" fill="#1f2937" />
<circle cx="463.46" cy="905.01" r="2.20" fill="#1f2937" />
<circle cx="674.94" cy="988.70" r="2.20" fill="#1f2937" />
<circle cx="808.29" cy="911.81" r="2.20" fill="#1f2937" />
<circle cx="948.71" cy="1073.71" r="2.20" fill="#1f2937" />
<circle cx="903.87" cy="1050.44" r="2.20" fill="#1f2937" />
<circle cx="505.09" cy="725.65" r="3.20" fill="#b91c1c" />
<circle cx="1108.34" cy="625.64" r="2.20" fill="#1f2937" />
<circle cx="578.26" cy="554.20" r="2.20" fill="#1f2937" />
<circle cx="384.82" cy="963.26" r="2.20" fill="#1f2937" />
<circle cx="387.24" cy="596.30" r="2.20" fill="#1f2937" />
<circle cx="532.05" cy="640.84" r="3.20" fill="#b91c1c" />
<circle cx="540.37" cy="694.88" r="3.20" fill="#b91c1c" />
<circle cx="583.24" cy="859.09" r="2.20" fill="#1f2937" />
<circle cx="358.20" cy="731.94" r="2.20" fill="#1f2937" />
<circle cx="625.59" cy="919.04" r="2.20" fill="#1f2937" />
<circle cx="509.88" cy="629.21" r="3.20" fill="#b91c1c" />
<circle cx="419.91" cy="628.19" r="2.20" fill="#1f2937" />
<circle cx="869.99" cy="1006.64" r="2.20" fill="#1f2937" />
<circle cx="602.60" cy="397.72" r="2.20" fill="#1f2937" />
<circle cx="780.46" cy="876.09" r="2.20" fill="#1f2937" />
<circle cx="296.45" cy="755.04" r="2.20" fill="#1f2937" />
<circle cx="614.41" cy="738.36" r="2.20" fill="#1f2937" />
<circle cx="876.05" cy="862.21" r="2.20" fill="#1f2937" />
<circle cx="511.38" cy="710.68" r="2.20" fill="#1f2937" />
<circle cx="440.48" cy="785.10" r="2.20" fill="#1f2937" />
<circle cx="793.77" cy="992.61" r="2.20" fill="#1f2937" />
<circle cx="795.78" cy="355.36" r="2.20" fill="#1f2937" />
<circle cx="568.24" cy="648.24" r="2.20" fill="#1f2937" />
<circle cx="304.73" cy="885.47" r="2.20" fill="#1f2937" />
<circle cx="1076.88" cy="1148.66" r="2.20" fill="#1f2937" />
<circle cx="975.25" cy="356.89" r="2.20" fill="#1f2937" />
<circle cx="549.37" cy="711.96" r="2.20" fill="#1f2937" />
<circle cx="776.83" cy="1068.72" r="2.20" fill="#1f2937" />
<circle cx="728.33" cy="1052.07" r="2.20" fill="#1f2937" />
<circle cx="785.30" cy="1055.54" r="2.20" fill="#1f2937" />
<circle cx="566.31" cy="614.58" r="2.20" fill="#1f2937" />
<circle cx="831.32" cy="539.81" r="2.20" fill="#1f2937" />
<circle cx="484.18" cy="761.93" r="2.20" fill="#1f2937" />
<circle cx="433.22" cy="663.91" r="2.20" fill="#1f2937" />
<circle cx="817.96" cy="390.91" r="2.20" fill="#1f2937" />
<circle cx="470.72" cy="894.38" r="2.20" fill="#1f2937" />
<circle cx="747.79" cy="963.26" r="2.20" fill="#1f2937" />
<circle cx="440.34" cy="690.28" r="2.20" fill="#1f2937" />
<circle cx="772.09" cy="896.49" r="2.20" fill="#1f2937" />
<circle cx="713.72" cy="1034.57" r="2.20" fill="#1f2937" />
<circle cx="98.08" cy="717.91" r="2.20" fill="#1f2937" />
<circle cx="865.15" cy="381.98" r="2.20" fill="#1f2937" />
<circle cx="226.19" cy="741.02" r="2.20" fill="#1f2937" />
<circle cx="1043.01" cy="620.11" r="2.20" fill="#1f2937" />
<circle cx="482.82" cy="584.82" r="2.20" fill="#1f2937" />
<circle cx="463.46" cy="629.89" r="2.20" fill="#1f2937" />
<circle cx="617.12" cy="690.70" r="2.20" fill="#1f2937" />
<circle cx="530.48" cy="573.26" r="2.20" fill="#1f2937" />
<circle cx="444.11" cy="800.40" r="2.20" fill="#1f2937" />
<circle cx="986.14" cy="887.58" r="2.20" fill="#1f2937" />
<circle cx="561.46" cy="495.09" r="2.20" fill="#1f2937" />
<circle cx="346.11" cy="611.18" r="2.20" fill="#1f2937" />
<circle cx="657.53" cy="845.66" r="2.20" fill="#1f2937" />
<circle cx="647.51" cy="429.74" r="2.20" fill="#1f2937" />
<circle cx="713.91" cy="939.03" r="2.20" fill="#1f2937" />
<circle cx="687.29" cy="907.14" r="2.20" fill="#1f2937" />
<circle cx="653.42" cy="691.55" r="2.20" fill="#1f2937" />
<circle cx="514.28" cy="599.27" r="2.20" fill="#1f2937" />
<circle cx="1213.60" cy="265.90" r="2.20" fill="#1f2937" />
<circle cx="186.40" cy="668.58" r="2.20" fill="#1f2937" />
<circle cx="151.31" cy="681.77" r="2.20" fill="#1f2937" />
<circle cx="536.45" cy="624.46" r="2.20" fill="#1f2937" />
<circle cx="858.76" cy="517.61" r="2.20" fill="#1f2937" />
<circle cx="1034.54" cy="698.35" r="2.20" fill="#1f2937" />
<circle cx="509.44" cy="541.44" r="2.20" fill="#1f2937" />
<circle cx="713.91" cy="635.84" r="2.20" fill="#1f2937" />
<circle cx="445.32" cy="814.44" r="3.20" fill="#b91c1c" />
<circle cx="860.31" cy="582.26" r="2.20" fill="#1f2937" />
<circle cx="722.00" cy="40.00" r="2.20" fill="#1f2937" />
<circle cx="718.76" cy="65.62" r="2.20" fill="#1f2937" />
<circle cx="634.06" cy="268.87" r="2.20" fill="#1f2937" />
<circle cx="619.54" cy="371.35" r="2.20" fill="#1f2937" />
<circle cx="665.81" cy="1156.27" r="2.20" fill="#1f2937" />
<circle cx="404.47" cy="612.22" r="2.20" fill="#1f2937" />
<circle cx="451.08" cy="645.74" r="2.20" fill="#1f2937" />
<circle cx="827.84" cy="453.47" r="2.20" fill="#1f2937" />
<circle cx="794.98" cy="379.86" r="2.20" fill="#1f2937" />
<circle cx="573.56" cy="635.84" r="2.20" fill="#1f2937" />
<circle cx="567.24" cy="705.25" r="2.20" fill="#1f2937" />
<circle cx="479.39" cy="597.37" r="3.20" fill="#b91c1c" />
<circle cx="1151.90" cy="1063.19" r="2.20" fill="#1f2937" />
<circle cx="691.94" cy="877.81" r="2.20" fill="#1f2937" />
<circle cx="742.95" cy="851.86" r="2.20" fill="#1f2937" />
<circle cx="544.53" cy="853.98" r="2.20" fill="#1f2937" />
<circle cx="407.52" cy="723.66" r="2.20" fill="#1f2937" />
<circle cx="942.58" cy="712.38" r="2.20" fill="#1f2937" />
<circle cx="589.58" cy="413.98" r="2.20" fill="#1f2937" />
<circle cx="671.91" cy="716.92" r="2.20" fill="#1f2937" />
<circle cx="813.12" cy="964.97" r="2.20" fill="#1f2937" />
<circle cx="425.96" cy="740.02" r="2.20" fill="#1f2937" />
<circle cx="769.04" cy="1093.96" r="2.20" fill="#1f2937" />
<circle cx="557.84" cy="731.94" r="2.20" fill="#1f2937" />
<circle cx="470.72" cy="615.43" r="2.20" fill="#1f2937" />
<circle cx="518.51" cy="767.87" r="2.20" fill="#1f2937" />
<circle cx="550.58" cy="517.63" r="2.20" fill="#1f2937" />
<circle cx="680.04" cy="763.41" r="2.20" fill="#1f2937" />
<circle cx="607.01" cy="797.44" r="2.20" fill="#1f2937" />
<circle cx="131.37" cy="736.82" r="2.20" fill="#1f2937" />
<circle cx="178.76" cy="730.66" r="2.20" fill="#1f2937" />
<circle cx="889.35" cy="592.47" r="2.20" fill="#1f2937" />
<circle cx="505.58" cy="767.53" r="2.20" fill="#1f2937" />
<circle cx="931.69" cy="371.78" r="2.20" fill="#1f2937" />
<circle cx="980.09" cy="708.13" r="2.20" fill="#1f2937" />
<g font-family="Arial, sans-serif" font-size="10" fill="#111827">
<text x="568.32" y="660.72">10:BakerStreet</text>
<text x="611.01" y="608.83">127:King&apos;sCrossSt.Pancras</text>
<text x="536.05" y="636.84">169:OxfordCircus</text>
<text x="432.38" y="718.16">63:Earl&apos;sCourt</text>
<text x="499.47" y="638.78">90:GreenPark</text>
<text x="483.39" y="593.37">243:Waterloo</text>
<text x="550.46" y="545.45">137:LiverpoolStreet</text>
<text x="527.96" y="555.73">12:Bank</text>
<text x="449.32" y="810.44">230:TurnhamGreen</text>
<text x="481.98" y="848.71">1:ActonTown</text>
<text x="519.49" y="616.11">134:LeicesterSquare</text>
<text x="492.97" y="550.35">138:LondonBridge</text>
<text x="428.75" y="747.08">16:BaronsCourt</text>
<text x="579.99" y="471.53">145:MileEnd</text>
<text x="551.34" y="557.24">149:Moorgate</text>
<text x="530.86" y="649.70">24:BondStreet</text>
<text x="640.48" y="638.22">35:CamdenTown</text>
<text x="509.09" y="721.65">164:NottingHillGate</text>
<text x="544.37" y="690.88">170:Paddington</text>
<text x="513.88" y="625.21">174:PiccadillyCircus</text>
<text x="501.25" y="607.30">73:Embankment</text>
<text x="594.89" y="625.97">75:Euston</text>
<text x="675.57" y="696.05">80:FinchleyRoad</text>
<text x="751.69" y="582.90">81:FinsburyPark</text>
<text x="545.81" y="603.95">110:Holborn</text>
</g>
</g>
</svg>
