<?xml version="1.0" encoding="UTF-8"?>
<svg xmlns="http://www.w3.org/2000/svg" width="1400" height="1400" viewBox="0 0 1400 1400">
<rect x="0" y="0" width="100%" height="100%" fill="#ffffff" />
<g opacity="0.75">
<line x1="791.60" y1="805.72" x2="792.36" y2="751.12" stroke="#9aa0a6" stroke-width="1.93" />
<line x1="791.60" y1="805.72" x2="792.55" y2="835.00" stroke="#9aa0a6" stroke-width="1.98" />
<line x1="637.07" y1="760.41" x2="602.08" y2="761.07" stroke="#9aa0a6" stroke-width="1.92" />
<line x1="637.07" y1="760.41" x2="676.20" y2="751.37" stroke="#9aa0a6" stroke-width="1.91" />
<line x1="278.65" y1="420.31" x2="297.72" y2="473.02" stroke="#9aa0a6" stroke-width="1.91" />
<line x1="647.55" y1="602.95" x2="617.28" y2="603.47" stroke="#9aa0a6" stroke-width="1.94" />
<line x1="647.55" y1="602.95" x2="677.56" y2="597.48" stroke="#9aa0a6" stroke-width="1.94" />
<line x1="193.61" y1="989.22" x2="130.87" y2="983.26" stroke="#9aa0a6" stroke-width="1.84" />
<line x1="193.61" y1="989.22" x2="234.72" y2="983.26" stroke="#9aa0a6" stroke-width="1.91" />
<line x1="353.82" y1="618.17" x2="388.74" y2="610.28" stroke="#9aa0a6" stroke-width="1.92" />
<line x1="130.87" y1="983.26" x2="68.85" y2="983.26" stroke="#9aa0a6" stroke-width="1.84" />
<line x1="1198.49" y1="984.39" x2="1133.83" y2="972.97" stroke="#9aa0a6" stroke-width="1.83" />
<line x1="1198.49" y1="984.39" x2="1247.90" y2="996.48" stroke="#9aa0a6" stroke-width="1.88" />
<line x1="297.72" y1="473.02" x2="332.97" y2="495.00" stroke="#9aa0a6" stroke-width="1.92" />
<line x1="686.90" y1="1004.12" x2="663.34" y2="1017.47" stroke="#9aa0a6" stroke-width="1.96" />
<line x1="686.90" y1="1004.12" x2="724.92" y2="987.83" stroke="#9aa0a6" stroke-width="1.91" />
<line x1="562.02" y1="1207.28" x2="557.73" y2="1266.38" stroke="#9aa0a6" stroke-width="1.92" />
<line x1="562.02" y1="1207.28" x2="565.60" y2="1130.90" stroke="#9aa0a6" stroke-width="1.88" />
<line x1="477.69" y1="810.23" x2="421.51" y2="786.56" stroke="#9aa0a6" stroke-width="1.85" />
<line x1="477.69" y1="810.23" x2="515.26" y2="798.78" stroke="#9aa0a6" stroke-width="1.91" />
<line x1="617.28" y1="603.47" x2="582.42" y2="604.39" stroke="#9aa0a6" stroke-width="1.93" />
<line x1="617.28" y1="603.47" x2="616.31" y2="557.13" stroke="#9aa0a6" stroke-width="1.94" />
<line x1="675.71" y1="796.07" x2="676.20" y2="751.37" stroke="#9aa0a6" stroke-width="1.95" />
<line x1="675.71" y1="796.07" x2="676.62" y2="835.44" stroke="#9aa0a6" stroke-width="1.96" />
<line x1="721.82" y1="248.80" x2="647.23" y2="205.40" stroke="#9aa0a6" stroke-width="1.79" />
<line x1="721.82" y1="248.80" x2="742.45" y2="511.36" stroke="#9aa0a6" stroke-width="1.52" />
<line x1="663.10" y1="324.61" x2="660.94" y2="467.67" stroke="#9aa0a6" stroke-width="1.76" />
<line x1="663.10" y1="324.61" x2="653.75" y2="262.75" stroke="#9aa0a6" stroke-width="1.91" />
<line x1="549.68" y1="1080.83" x2="565.60" y2="1130.90" stroke="#9aa0a6" stroke-width="1.92" />
<line x1="549.68" y1="1080.83" x2="549.36" y2="1025.21" stroke="#9aa0a6" stroke-width="1.92" />
<line x1="521.22" y1="1026.80" x2="502.28" y2="983.26" stroke="#9aa0a6" stroke-width="1.93" />
<line x1="521.22" y1="1026.80" x2="549.36" y2="1025.21" stroke="#9aa0a6" stroke-width="1.95" />
<line x1="705.21" y1="892.26" x2="704.52" y2="842.94" stroke="#9aa0a6" stroke-width="1.94" />
<line x1="705.21" y1="892.26" x2="724.92" y2="987.83" stroke="#9aa0a6" stroke-width="1.84" />
<line x1="500.97" y1="849.75" x2="502.13" y2="895.48" stroke="#9aa0a6" stroke-width="1.94" />
<line x1="500.97" y1="849.75" x2="515.26" y2="798.78" stroke="#9aa0a6" stroke-width="1.92" />
<line x1="663.34" y1="1017.47" x2="681.01" y2="1052.92" stroke="#9aa0a6" stroke-width="1.94" />
<line x1="663.34" y1="1017.47" x2="683.61" y2="971.75" stroke="#9aa0a6" stroke-width="1.92" />
<line x1="663.34" y1="1017.47" x2="614.67" y2="1022.59" stroke="#9aa0a6" stroke-width="1.88" />
<line x1="681.01" y1="1052.92" x2="686.17" y2="1106.88" stroke="#9aa0a6" stroke-width="1.93" />
<line x1="1034.51" y1="966.69" x2="958.47" y2="971.66" stroke="#9aa0a6" stroke-width="1.80" />
<line x1="1034.51" y1="966.69" x2="1076.28" y2="967.14" stroke="#9aa0a6" stroke-width="1.90" />
<line x1="660.94" y1="467.67" x2="676.65" y2="547.55" stroke="#9aa0a6" stroke-width="1.87" />
<line x1="834.02" y1="971.34" x2="776.37" y2="963.36" stroke="#9aa0a6" stroke-width="1.85" />
<line x1="834.02" y1="971.34" x2="888.29" y2="949.68" stroke="#9aa0a6" stroke-width="1.86" />
<line x1="471.12" y1="667.35" x2="515.26" y2="798.78" stroke="#9aa0a6" stroke-width="1.74" />
<line x1="471.12" y1="667.35" x2="467.36" y2="611.32" stroke="#9aa0a6" stroke-width="1.92" />
<line x1="678.09" y1="923.29" x2="683.61" y2="971.75" stroke="#9aa0a6" stroke-width="1.94" />
<line x1="678.09" y1="923.29" x2="661.74" y2="893.65" stroke="#9aa0a6" stroke-width="1.96" />
<line x1="683.61" y1="971.75" x2="724.92" y2="987.83" stroke="#9aa0a6" stroke-width="1.90" />
<line x1="683.61" y1="971.75" x2="645.79" y2="980.27" stroke="#9aa0a6" stroke-width="1.91" />
<line x1="661.74" y1="893.65" x2="676.62" y2="835.44" stroke="#9aa0a6" stroke-width="1.91" />
<line x1="704.52" y1="842.94" x2="705.97" y2="790.47" stroke="#9aa0a6" stroke-width="1.93" />
<line x1="705.97" y1="790.47" x2="716.87" y2="703.62" stroke="#9aa0a6" stroke-width="1.86" />
<line x1="705.97" y1="790.47" x2="779.45" y2="689.52" stroke="#9aa0a6" stroke-width="1.73" />
<line x1="705.97" y1="790.47" x2="676.20" y2="751.37" stroke="#9aa0a6" stroke-width="1.91" />
<line x1="397.86" y1="528.18" x2="381.95" y2="487.72" stroke="#9aa0a6" stroke-width="1.94" />
<line x1="397.86" y1="528.18" x2="399.39" y2="570.13" stroke="#9aa0a6" stroke-width="1.95" />
<line x1="612.62" y1="425.94" x2="597.96" y2="473.55" stroke="#9aa0a6" stroke-width="1.93" />
<line x1="502.13" y1="895.48" x2="502.28" y2="983.26" stroke="#9aa0a6" stroke-width="1.86" />
<line x1="502.28" y1="983.26" x2="490.02" y2="984.75" stroke="#9aa0a6" stroke-width="1.99" />
<line x1="502.28" y1="983.26" x2="548.43" y2="984.75" stroke="#9aa0a6" stroke-width="1.89" />
<line x1="958.47" y1="971.66" x2="916.08" y2="977.34" stroke="#9aa0a6" stroke-width="1.90" />
<line x1="556.24" y1="1360.00" x2="557.07" y2="1308.13" stroke="#9aa0a6" stroke-width="1.93" />
<line x1="383.28" y1="981.77" x2="415.74" y2="981.77" stroke="#9aa0a6" stroke-width="1.93" />
<line x1="383.28" y1="981.77" x2="343.62" y2="983.26" stroke="#9aa0a6" stroke-width="1.91" />
<line x1="714.83" y1="649.72" x2="716.87" y2="703.62" stroke="#9aa0a6" stroke-width="1.93" />
<line x1="714.83" y1="649.72" x2="725.85" y2="598.19" stroke="#9aa0a6" stroke-width="1.93" />
<line x1="1133.83" y1="972.97" x2="1076.28" y2="967.14" stroke="#9aa0a6" stroke-width="1.86" />
<line x1="68.85" y1="983.26" x2="40.00" y2="881.93" stroke="#9aa0a6" stroke-width="1.82" />
<line x1="602.08" y1="761.07" x2="562.46" y2="754.71" stroke="#9aa0a6" stroke-width="1.91" />
<line x1="776.37" y1="963.36" x2="792.43" y2="923.43" stroke="#9aa0a6" stroke-width="1.94" />
<line x1="776.37" y1="963.36" x2="792.63" y2="1050.76" stroke="#9aa0a6" stroke-width="1.86" />
<line x1="776.37" y1="963.36" x2="751.47" y2="971.58" stroke="#9aa0a6" stroke-width="1.95" />
<line x1="1257.39" y1="1057.89" x2="1285.37" y2="1074.56" stroke="#9aa0a6" stroke-width="1.94" />
<line x1="1257.39" y1="1057.89" x2="1247.90" y2="996.48" stroke="#9aa0a6" stroke-width="1.91" />
<line x1="418.11" y1="608.33" x2="411.83" y2="664.18" stroke="#9aa0a6" stroke-width="1.92" />
<line x1="418.11" y1="608.33" x2="388.74" y2="610.28" stroke="#9aa0a6" stroke-width="1.94" />
<line x1="418.11" y1="608.33" x2="446.77" y2="606.56" stroke="#9aa0a6" stroke-width="1.94" />
<line x1="418.11" y1="608.33" x2="399.39" y2="570.13" stroke="#9aa0a6" stroke-width="1.94" />
<line x1="679.88" y1="699.22" x2="678.76" y2="648.32" stroke="#9aa0a6" stroke-width="1.93" />
<line x1="679.88" y1="699.22" x2="676.20" y2="751.37" stroke="#9aa0a6" stroke-width="1.93" />
<line x1="575.10" y1="1023.40" x2="614.67" y2="1022.59" stroke="#9aa0a6" stroke-width="1.91" />
<line x1="575.10" y1="1023.40" x2="549.36" y2="1025.21" stroke="#9aa0a6" stroke-width="1.95" />
<line x1="678.76" y1="648.32" x2="677.56" y2="597.48" stroke="#9aa0a6" stroke-width="1.93" />
<line x1="462.75" y1="94.85" x2="528.96" y2="101.09" stroke="#9aa0a6" stroke-width="1.83" />
<line x1="462.75" y1="94.85" x2="423.35" y2="99.76" stroke="#9aa0a6" stroke-width="1.91" />
<line x1="676.65" y1="547.55" x2="677.56" y2="597.48" stroke="#9aa0a6" stroke-width="1.94" />
<line x1="677.56" y1="597.48" x2="725.85" y2="598.19" stroke="#9aa0a6" stroke-width="1.88" />
<line x1="792.39" y1="890.43" x2="792.43" y2="923.43" stroke="#9aa0a6" stroke-width="1.97" />
<line x1="792.39" y1="890.43" x2="792.55" y2="835.00" stroke="#9aa0a6" stroke-width="1.92" />
<line x1="528.96" y1="101.09" x2="647.23" y2="205.40" stroke="#9aa0a6" stroke-width="1.62" />
<line x1="582.42" y1="604.39" x2="554.03" y2="605.83" stroke="#9aa0a6" stroke-width="1.94" />
<line x1="724.92" y1="987.83" x2="751.47" y2="971.58" stroke="#9aa0a6" stroke-width="1.94" />
<line x1="557.07" y1="1308.13" x2="557.73" y2="1266.38" stroke="#9aa0a6" stroke-width="1.95" />
<line x1="791.08" y1="1098.90" x2="792.63" y2="1050.76" stroke="#9aa0a6" stroke-width="1.94" />
<line x1="562.46" y1="754.71" x2="515.26" y2="798.78" stroke="#9aa0a6" stroke-width="1.86" />
<line x1="1285.37" y1="1074.56" x2="1314.45" y2="1110.35" stroke="#9aa0a6" stroke-width="1.92" />
<line x1="792.36" y1="751.12" x2="779.45" y2="689.52" stroke="#9aa0a6" stroke-width="1.91" />
<line x1="570.14" y1="937.51" x2="548.43" y2="984.75" stroke="#9aa0a6" stroke-width="1.92" />
<line x1="570.14" y1="937.51" x2="562.96" y2="876.92" stroke="#9aa0a6" stroke-width="1.91" />
<line x1="1340.61" y1="1154.33" x2="1314.45" y2="1110.35" stroke="#9aa0a6" stroke-width="1.92" />
<line x1="1340.61" y1="1154.33" x2="1360.00" y2="1173.32" stroke="#9aa0a6" stroke-width="1.96" />
<line x1="647.23" y1="205.40" x2="653.75" y2="262.75" stroke="#9aa0a6" stroke-width="1.92" />
<line x1="647.23" y1="205.40" x2="648.68" y2="130.90" stroke="#9aa0a6" stroke-width="1.89" />
<line x1="689.53" y1="1243.24" x2="688.07" y2="1195.39" stroke="#9aa0a6" stroke-width="1.94" />
<line x1="689.53" y1="1243.24" x2="689.21" y2="1314.31" stroke="#9aa0a6" stroke-width="1.89" />
<line x1="423.35" y1="99.76" x2="389.48" y2="199.01" stroke="#9aa0a6" stroke-width="1.81" />
<line x1="415.74" y1="981.77" x2="455.40" y2="983.26" stroke="#9aa0a6" stroke-width="1.91" />
<line x1="554.03" y1="605.83" x2="512.23" y2="607.26" stroke="#9aa0a6" stroke-width="1.90" />
<line x1="455.40" y1="983.26" x2="490.02" y2="984.75" stroke="#9aa0a6" stroke-width="1.93" />
<line x1="421.51" y1="786.56" x2="432.37" y2="704.38" stroke="#9aa0a6" stroke-width="1.87" />
<line x1="597.96" y1="473.55" x2="616.31" y2="557.13" stroke="#9aa0a6" stroke-width="1.86" />
<line x1="562.03" y1="834.78" x2="548.16" y2="798.23" stroke="#9aa0a6" stroke-width="1.95" />
<line x1="562.03" y1="834.78" x2="562.96" y2="876.92" stroke="#9aa0a6" stroke-width="1.95" />
<line x1="688.07" y1="1195.39" x2="686.17" y2="1106.88" stroke="#9aa0a6" stroke-width="1.86" />
<line x1="411.83" y1="664.18" x2="432.37" y2="704.38" stroke="#9aa0a6" stroke-width="1.93" />
<line x1="779.45" y1="689.52" x2="755.70" y2="625.16" stroke="#9aa0a6" stroke-width="1.89" />
<line x1="779.45" y1="689.52" x2="1132.60" y2="53.48" stroke="#9aa0a6" stroke-width="0.40" />
<line x1="779.45" y1="689.52" x2="1192.36" y2="195.87" stroke="#9aa0a6" stroke-width="0.45" />
<line x1="424.24" y1="302.34" x2="470.16" y2="517.69" stroke="#9aa0a6" stroke-width="1.59" />
<line x1="424.24" y1="302.34" x2="389.48" y2="199.01" stroke="#9aa0a6" stroke-width="1.81" />
<line x1="725.85" y1="598.19" x2="755.70" y2="625.16" stroke="#9aa0a6" stroke-width="1.93" />
<line x1="725.85" y1="598.19" x2="742.45" y2="511.36" stroke="#9aa0a6" stroke-width="1.86" />
<line x1="888.29" y1="949.68" x2="916.08" y2="977.34" stroke="#9aa0a6" stroke-width="1.93" />
<line x1="1132.60" y1="53.48" x2="1192.36" y2="195.87" stroke="#9aa0a6" stroke-width="1.70" />
<line x1="636.15" y1="974.24" x2="605.60" y2="976.39" stroke="#9aa0a6" stroke-width="1.94" />
<line x1="636.15" y1="974.24" x2="645.79" y2="980.27" stroke="#9aa0a6" stroke-width="2.00" />
<line x1="605.60" y1="976.39" x2="548.43" y2="984.75" stroke="#9aa0a6" stroke-width="1.86" />
<line x1="649.09" y1="83.89" x2="649.40" y2="40.00" stroke="#9aa0a6" stroke-width="1.95" />
<line x1="649.09" y1="83.89" x2="648.68" y2="130.90" stroke="#9aa0a6" stroke-width="1.94" />
<line x1="343.62" y1="983.26" x2="290.97" y2="981.77" stroke="#9aa0a6" stroke-width="1.87" />
<line x1="470.16" y1="517.69" x2="467.36" y2="611.32" stroke="#9aa0a6" stroke-width="1.85" />
<line x1="290.97" y1="981.77" x2="234.72" y2="983.26" stroke="#9aa0a6" stroke-width="1.86" />
<line x1="548.43" y1="984.75" x2="549.36" y2="1025.21" stroke="#9aa0a6" stroke-width="1.95" />
<line x1="548.16" y1="798.23" x2="515.26" y2="798.78" stroke="#9aa0a6" stroke-width="1.93" />
<line x1="512.23" y1="607.26" x2="467.36" y2="611.32" stroke="#9aa0a6" stroke-width="1.89" />
<line x1="332.97" y1="495.00" x2="381.95" y2="487.72" stroke="#9aa0a6" stroke-width="1.88" />
<line x1="446.77" y1="606.56" x2="467.36" y2="611.32" stroke="#9aa0a6" stroke-width="1.97" />
</g>
<g>
<circle cx="791.60" cy="805.72" r="3.20" fill="#b91c1c" />
<circle cx="637.07" cy="760.41" r="3.20" fill="#b91c1c" />
<circle cx="278.65" cy="420.31" r="2.20" fill="#1f2937" />
<circle cx="647.55" cy="602.95" r="3.20" fill="#b91c1c" />
<circle cx="193.61" cy="989.22" r="3.20" fill="#b91c1c" />
<circle cx="353.82" cy="618.17" r="2.20" fill="#1f2937" />
<circle cx="130.87" cy="983.26" r="3.20" fill="#b91c1c" />
<circle cx="1198.49" cy="984.39" r="3.20" fill="#b91c1c" />
<circle cx="297.72" cy="473.02" r="3.20" fill="#b91c1c" />
<circle cx="686.90" cy="1004.12" r="3.20" fill="#b91c1c" />
<circle cx="562.02" cy="1207.28" r="2.20" fill="#1f2937" />
<circle cx="477.69" cy="810.23" r="2.20" fill="#1f2937" />
<circle cx="617.28" cy="603.47" r="3.20" fill="#b91c1c" />
<circle cx="675.71" cy="796.07" r="2.20" fill="#1f2937" />
<circle cx="721.82" cy="248.80" r="2.20" fill="#1f2937" />
<circle cx="663.10" cy="324.61" r="2.20" fill="#1f2937" />
<circle cx="549.68" cy="1080.83" r="2.20" fill="#1f2937" />
<circle cx="521.22" cy="1026.80" r="2.20" fill="#1f2937" />
<circle cx="705.21" cy="892.26" r="2.20" fill="#1f2937" />
<circle cx="500.97" cy="849.75" r="2.20" fill="#1f2937" />
<circle cx="663.34" cy="1017.47" r="3.20" fill="#b91c1c" />
<circle cx="681.01" cy="1052.92" r="2.20" fill="#1f2937" />
<circle cx="1034.51" cy="966.69" r="2.20" fill="#1f2937" />
<circle cx="660.94" cy="467.67" r="2.20" fill="#1f2937" />
<circle cx="834.02" cy="971.34" r="2.20" fill="#1f2937" />
<circle cx="471.12" cy="667.35" r="2.20" fill="#1f2937" />
<circle cx="678.09" cy="923.29" r="2.20" fill="#1f2937" />
<circle cx="683.61" cy="971.75" r="3.20" fill="#b91c1c" />
<circle cx="661.74" cy="893.65" r="2.20" fill="#1f2937" />
<circle cx="704.52" cy="842.94" r="2.20" fill="#1f2937" />
<circle cx="705.97" cy="790.47" r="3.20" fill="#b91c1c" />
<circle cx="397.86" cy="528.18" r="2.20" fill="#1f2937" />
<circle cx="612.62" cy="425.94" r="2.20" fill="#1f2937" />
<circle cx="502.13" cy="895.48" r="2.20" fill="#1f2937" />
<circle cx="502.28" cy="983.26" r="3.20" fill="#b91c1c" />
<circle cx="958.47" cy="971.66" r="2.20" fill="#1f2937" />
<circle cx="556.24" cy="1360.00" r="2.20" fill="#1f2937" />
<circle cx="383.28" cy="981.77" r="2.20" fill="#1f2937" />
<circle cx="714.83" cy="649.72" r="2.20" fill="#1f2937" />
<circle cx="1133.83" cy="972.97" r="2.20" fill="#1f2937" />
<circle cx="68.85" cy="983.26" r="2.20" fill="#1f2937" />
<circle cx="602.08" cy="761.07" r="2.20" fill="#1f2937" />
<circle cx="776.37" cy="963.36" r="3.20" fill="#b91c1c" />
<circle cx="1257.39" cy="1057.89" r="2.20" fill="#1f2937" />
<circle cx="418.11" cy="608.33" r="3.20" fill="#b91c1c" />
<circle cx="679.88" cy="699.22" r="2.20" fill="#1f2937" />
<circle cx="575.10" cy="1023.40" r="2.20" fill="#1f2937" />
<circle cx="678.76" cy="648.32" r="2.20" fill="#1f2937" />
<circle cx="462.75" cy="94.85" r="2.20" fill="#1f2937" />
<circle cx="676.65" cy="547.55" r="2.20" fill="#1f2937" />
<circle cx="677.56" cy="597.48" r="3.20" fill="#b91c1c" />
<circle cx="792.39" cy="890.43" r="2.20" fill="#1f2937" />
<circle cx="528.96" cy="101.09" r="2.20" fill="#1f2937" />
<circle cx="582.42" cy="604.39" r="2.20" fill="#1f2937" />
<circle cx="724.92" cy="987.83" r="3.20" fill="#b91c1c" />
<circle cx="557.07" cy="1308.13" r="2.20" fill="#1f2937" />
<circle cx="791.08" cy="1098.90" r="2.20" fill="#1f2937" />
<circle cx="792.43" cy="923.43" r="2.20" fill="#1f2937" />
<circle cx="562.46" cy="754.71" r="2.20" fill="#1f2937" />
<circle cx="1285.37" cy="1074.56" r="2.20" fill="#1f2937" />
<circle cx="792.36" cy="751.12" r="2.20" fill="#1f2937" />
<circle cx="570.14" cy="937.51" r="2.20" fill="#1f2937" />
<circle cx="1340.61" cy="1154.33" r="2.20" fill="#1f2937" />
<circle cx="647.23" cy="205.40" r="3.20" fill="#b91c1c" />
<circle cx="653.75" cy="262.75" r="2.20" fill="#1f2937" />
<circle cx="716.87" cy="703.62" r="2.20" fill="#1f2937" />
<circle cx="689.53" cy="1243.24" r="2.20" fill="#1f2937" />
<circle cx="1314.45" cy="1110.35" r="2.20" fill="#1f2937" />
<circle cx="423.35" cy="99.76" r="2.20" fill="#1f2937" />
<circle cx="557.73" cy="1266.38" r="2.20" fill="#1f2937" />
<circle cx="415.74" cy="981.77" r="2.20" fill="#1f2937" />
<circle cx="554.03" cy="605.83" r="2.20" fill="#1f2937" />
<circle cx="455.40" cy="983.26" r="2.20" fill="#1f2937" />
<circle cx="490.02" cy="984.75" r="2.20" fill="#1f2937" />
<circle cx="421.51" cy="786.56" r="2.20" fill="#1f2937" />
<circle cx="597.96" cy="473.55" r="2.20" fill="#1f2937" />
<circle cx="616.31" cy="557.13" r="2.20" fill="#1f2937" />
<circle cx="562.03" cy="834.78" r="2.20" fill="#1f2937" />
<circle cx="40.00" cy="881.93" r="2.20" fill="#1f2937" />
<circle cx="688.07" cy="1195.39" r="2.20" fill="#1f2937" />
<circle cx="614.67" cy="1022.59" r="2.20" fill="#1f2937" />
<circle cx="411.83" cy="664.18" r="2.20" fill="#1f2937" />
<circle cx="779.45" cy="689.52" r="3.20" fill="#b91c1c" />
<circle cx="424.24" cy="302.34" r="2.20" fill="#1f2937" />
<circle cx="725.85" cy="598.19" r="3.20" fill="#b91c1c" />
<circle cx="792.63" cy="1050.76" r="2.20" fill="#1f2937" />
<circle cx="1076.28" cy="967.14" r="2.20" fill="#1f2937" />
<circle cx="888.29" cy="949.68" r="2.20" fill="#1f2937" />
<circle cx="916.08" cy="977.34" r="2.20" fill="#1f2937" />
<circle cx="689.21" cy="1314.31" r="2.20" fill="#1f2937" />
<circle cx="388.74" cy="610.28" r="2.20" fill="#1f2937" />
<circle cx="755.70" cy="625.16" r="2.20" fill="#1f2937" />
<circle cx="565.60" cy="1130.90" r="2.20" fill="#1f2937" />
<circle cx="1132.60" cy="53.48" r="2.20" fill="#1f2937" />
<circle cx="1192.36" cy="195.87" r="2.20" fill="#1f2937" />
<circle cx="636.15" cy="974.24" r="2.20" fill="#1f2937" />
<circle cx="605.60" cy="976.39" r="2.20" fill="#1f2937" />
<circle cx="686.17" cy="1106.88" r="2.20" fill="#1f2937" />
<circle cx="649.09" cy="83.89" r="2.20" fill="#1f2937" />
<circle cx="649.40" cy="40.00" r="2.20" fill="#1f2937" />
<circle cx="648.68" cy="130.90" r="2.20" fill="#1f2937" />
<circle cx="1247.90" cy="996.48" r="2.20" fill="#1f2937" />
<circle cx="792.55" cy="835.00" r="2.20" fill="#1f2937" />
<circle cx="1360.00" cy="1173.32" r="2.20" fill="#1f2937" />
<circle cx="645.79" cy="980.27" r="2.20" fill="#1f2937" />
<circle cx="742.45" cy="511.36" r="2.20" fill="#1f2937" />
<circle cx="343.62" cy="983.26" r="2.20" fill="#1f2937" />
<circle cx="432.37" cy="704.38" r="2.20" fill="#1f2937" />
<circle cx="470.16" cy="517.69" r="2.20" fill="#1f2937" />
<circle cx="290.97" cy="981.77" r="2.20" fill="#1f2937" />
<circle cx="548.43" cy="984.75" r="3.20" fill="#b91c1c" />
<circle cx="389.48" cy="199.01" r="2.20" fill="#1f2937" />
<circle cx="548.16" cy="798.23" r="2.20" fill="#1f2937" />
<circle cx="562.96" cy="876.92" r="2.20" fill="#1f2937" />
<circle cx="512.23" cy="607.26" r="2.20" fill="#1f2937" />
<circle cx="332.97" cy="495.00" r="2.20" fill="#1f2937" />
<circle cx="515.26" cy="798.78" r="3.20" fill="#b91c1c" />
<circle cx="549.36" cy="1025.21" r="3.20" fill="#b91c1c" />
<circle cx="751.47" cy="971.58" r="2.20" fill="#1f2937" />
<circle cx="676.20" cy="751.37" r="3.20" fill="#b91c1c" />
<circle cx="381.95" cy="487.72" r="2.20" fill="#1f2937" />
<circle cx="234.72" cy="983.26" r="2.20" fill="#1f2937" />
<circle cx="676.62" cy="835.44" r="2.20" fill="#1f2937" />
<circle cx="446.77" cy="606.56" r="2.20" fill="#1f2937" />
<circle cx="467.36" cy="611.32" r="3.20" fill="#b91c1c" />
<circle cx="399.39" cy="570.13" r="2.20" fill="#1f2937" />
<g font-family="Arial, sans-serif" font-size="10" fill="#111827">
<text x="783.45" y="685.52">83:Sanyuanqiao</text>
<text x="519.26" y="794.78">117:Xizhimen</text>
<text x="667.34" y="1013.47">21:Chongwenmen</text>
<text x="687.61" y="967.75">28:Dongdan</text>
<text x="709.97" y="786.47">31:Dongzhimen</text>
<text x="506.28" y="979.26">35:Fuxingmen</text>
<text x="780.37" y="959.36">43:Guomao</text>
<text x="422.11" y="604.33">45:HaidianHuangzhuang</text>
<text x="681.56" y="593.48">51:HuixinxijieNankou</text>
<text x="728.92" y="983.83">55:Jianguomen</text>
<text x="651.23" y="201.40">64:Lishuiqiao</text>
<text x="729.85" y="594.19">85:Shaoyaoju</text>
<text x="552.43" y="980.75">111:Xidan</text>
<text x="553.36" y="1021.21">118:Xuanwumen</text>
<text x="680.20" y="747.37">120:YonghegongLamaTemple</text>
<text x="471.36" y="607.32">125:Zhichunlu</text>
<text x="621.28" y="599.47">13:Beitucheng</text>
<text x="795.60" y="801.72">1:AgriculturalExhibitionCenter</text>
<text x="641.07" y="756.41">2:Andingmen</text>
<text x="651.55" y="598.95">4:Anzhenmen</text>
<text x="197.61" y="985.22">5:Babaoshan</text>
<text x="134.87" y="979.26">7:BajiaoAmusementPark</text>
<text x="1202.49" y="980.39">8:Baliqiao</text>
<text x="301.72" y="469.02">9:Beigongmen</text>
<text x="690.90" y="1000.12">10:BeijingRailwayStation</text>
</g>
</g>
</svg>
