<?xml version="1.0" encoding="UTF-8"?>
<svg xmlns="http://www.w3.org/2000/svg" width="1400" height="1400" viewBox="0 0 1400 1400">
<rect x="0" y="0" width="100%" height="100%" fill="#ffffff" />
<g opacity="0.75">
<line x1="769.31" y1="803.78" x2="814.88" y2="846.14" stroke="#9aa0a6" stroke-width="1.57" />
<line x1="769.31" y1="803.78" x2="784.23" y2="768.67" stroke="#9aa0a6" stroke-width="1.81" />
<line x1="775.97" y1="1082.03" x2="803.90" y2="1194.45" stroke="#9aa0a6" stroke-width="0.73" />
<line x1="775.97" y1="1082.03" x2="773.90" y2="1003.93" stroke="#9aa0a6" stroke-width="1.23" />
<line x1="308.46" y1="681.49" x2="409.27" y2="628.08" stroke="#9aa0a6" stroke-width="1.06" />
<line x1="308.46" y1="681.49" x2="203.17" y2="725.73" stroke="#9aa0a6" stroke-width="1.09" />
<line x1="582.16" y1="547.80" x2="674.96" y2="545.06" stroke="#9aa0a6" stroke-width="1.38" />
<line x1="582.16" y1="547.80" x2="491.38" y2="586.17" stroke="#9aa0a6" stroke-width="1.26" />
<line x1="582.16" y1="547.80" x2="588.05" y2="586.54" stroke="#9aa0a6" stroke-width="1.78" />
<line x1="582.16" y1="547.80" x2="510.49" y2="497.19" stroke="#9aa0a6" stroke-width="1.31" />
<line x1="409.27" y1="628.08" x2="491.38" y2="586.17" stroke="#9aa0a6" stroke-width="1.30" />
<line x1="42.20" y1="796.58" x2="203.17" y2="725.73" stroke="#9aa0a6" stroke-width="0.41" />
<line x1="42.20" y1="796.58" x2="40.00" y2="824.13" stroke="#9aa0a6" stroke-width="1.94" />
<line x1="1007.32" y1="144.36" x2="1084.41" y2="224.76" stroke="#9aa0a6" stroke-width="0.95" />
<line x1="1007.32" y1="144.36" x2="1008.90" y2="89.19" stroke="#9aa0a6" stroke-width="1.55" />
<line x1="665.61" y1="712.13" x2="714.71" y2="759.29" stroke="#9aa0a6" stroke-width="1.50" />
<line x1="665.61" y1="712.13" x2="652.44" y2="796.29" stroke="#9aa0a6" stroke-width="1.14" />
<line x1="665.61" y1="712.13" x2="684.45" y2="646.01" stroke="#9aa0a6" stroke-width="1.38" />
<line x1="1256.10" y1="109.40" x2="1150.00" y2="182.56" stroke="#9aa0a6" stroke-width="0.84" />
<line x1="1167.01" y1="1017.95" x2="1062.20" y2="1013.82" stroke="#9aa0a6" stroke-width="1.26" />
<line x1="1167.01" y1="1017.95" x2="1223.54" y2="1047.37" stroke="#9aa0a6" stroke-width="1.62" />
<line x1="714.71" y1="759.29" x2="723.69" y2="711.23" stroke="#9aa0a6" stroke-width="1.65" />
<line x1="714.71" y1="759.29" x2="658.61" y2="834.56" stroke="#9aa0a6" stroke-width="1.13" />
<line x1="714.71" y1="759.29" x2="784.23" y2="768.67" stroke="#9aa0a6" stroke-width="1.61" />
<line x1="531.13" y1="617.50" x2="588.05" y2="586.54" stroke="#9aa0a6" stroke-width="1.60" />
<line x1="531.13" y1="617.50" x2="531.22" y2="649.30" stroke="#9aa0a6" stroke-width="1.88" />
<line x1="723.69" y1="711.23" x2="731.00" y2="640.61" stroke="#9aa0a6" stroke-width="1.33" />
<line x1="658.29" y1="47.25" x2="672.93" y2="163.78" stroke="#9aa0a6" stroke-width="0.69" />
<line x1="205.97" y1="950.75" x2="233.45" y2="985.69" stroke="#9aa0a6" stroke-width="1.76" />
<line x1="205.97" y1="950.75" x2="164.36" y2="875.19" stroke="#9aa0a6" stroke-width="1.19" />
<line x1="1101.14" y1="562.80" x2="1009.07" y2="552.65" stroke="#9aa0a6" stroke-width="1.38" />
<line x1="1101.14" y1="562.80" x2="1217.00" y2="566.40" stroke="#9aa0a6" stroke-width="1.14" />
<line x1="814.88" y1="846.14" x2="869.02" y2="890.82" stroke="#9aa0a6" stroke-width="1.49" />
<line x1="1021.16" y1="425.55" x2="1121.46" y2="416.27" stroke="#9aa0a6" stroke-width="1.30" />
<line x1="1021.16" y1="425.55" x2="932.11" y2="449.92" stroke="#9aa0a6" stroke-width="1.36" />
<line x1="1021.16" y1="425.55" x2="1022.68" y2="344.41" stroke="#9aa0a6" stroke-width="1.19" />
<line x1="1021.16" y1="425.55" x2="1013.90" y2="475.83" stroke="#9aa0a6" stroke-width="1.62" />
<line x1="652.44" y1="796.29" x2="637.42" y2="852.85" stroke="#9aa0a6" stroke-width="1.52" />
<line x1="672.93" y1="163.78" x2="683.05" y2="211.22" stroke="#9aa0a6" stroke-width="1.65" />
<line x1="680.29" y1="421.25" x2="763.05" y2="442.83" stroke="#9aa0a6" stroke-width="1.43" />
<line x1="680.29" y1="421.25" x2="721.22" y2="383.90" stroke="#9aa0a6" stroke-width="1.66" />
<line x1="656.01" y1="483.92" x2="674.96" y2="545.06" stroke="#9aa0a6" stroke-width="1.45" />
<line x1="656.01" y1="483.92" x2="650.69" y2="430.56" stroke="#9aa0a6" stroke-width="1.58" />
<line x1="379.59" y1="1006.98" x2="287.07" y2="985.91" stroke="#9aa0a6" stroke-width="1.34" />
<line x1="379.59" y1="1006.98" x2="477.15" y2="1015.98" stroke="#9aa0a6" stroke-width="1.32" />
<line x1="1060.89" y1="876.25" x2="1062.20" y2="1013.82" stroke="#9aa0a6" stroke-width="0.40" />
<line x1="1060.89" y1="876.25" x2="924.17" y2="936.13" stroke="#9aa0a6" stroke-width="0.70" />
<line x1="674.96" y1="545.06" x2="733.01" y2="545.36" stroke="#9aa0a6" stroke-width="1.73" />
<line x1="674.96" y1="545.06" x2="684.69" y2="589.63" stroke="#9aa0a6" stroke-width="1.69" />
<line x1="674.96" y1="545.06" x2="689.79" y2="477.66" stroke="#9aa0a6" stroke-width="1.37" />
<line x1="674.96" y1="545.06" x2="658.86" y2="595.62" stroke="#9aa0a6" stroke-width="1.60" />
<line x1="1121.46" y1="416.27" x2="1215.85" y2="405.91" stroke="#9aa0a6" stroke-width="1.35" />
<line x1="1006.51" y1="630.78" x2="1009.07" y2="552.65" stroke="#9aa0a6" stroke-width="1.23" />
<line x1="1006.51" y1="630.78" x2="1078.29" y2="635.74" stroke="#9aa0a6" stroke-width="1.59" />
<line x1="1006.51" y1="630.78" x2="901.42" y2="652.97" stroke="#9aa0a6" stroke-width="1.21" />
<line x1="1028.07" y1="40.00" x2="1008.90" y2="89.19" stroke="#9aa0a6" stroke-width="1.61" />
<line x1="1360.00" y1="317.22" x2="1271.46" y2="357.36" stroke="#9aa0a6" stroke-width="1.26" />
<line x1="637.42" y1="852.85" x2="613.25" y2="919.55" stroke="#9aa0a6" stroke-width="1.36" />
<line x1="1084.60" y1="732.32" x2="1072.42" y2="795.25" stroke="#9aa0a6" stroke-width="1.44" />
<line x1="1084.60" y1="732.32" x2="1095.85" y2="678.47" stroke="#9aa0a6" stroke-width="1.56" />
<line x1="731.00" y1="482.37" x2="763.05" y2="442.83" stroke="#9aa0a6" stroke-width="1.68" />
<line x1="731.00" y1="482.37" x2="733.01" y2="545.36" stroke="#9aa0a6" stroke-width="1.44" />
<line x1="803.90" y1="1194.45" x2="790.73" y2="1287.67" stroke="#9aa0a6" stroke-width="1.01" />
<line x1="527.68" y1="937.61" x2="477.15" y2="1015.98" stroke="#9aa0a6" stroke-width="1.11" />
<line x1="527.68" y1="937.61" x2="613.25" y2="919.55" stroke="#9aa0a6" stroke-width="1.42" />
<line x1="924.17" y1="936.13" x2="869.02" y2="890.82" stroke="#9aa0a6" stroke-width="1.48" />
<line x1="932.11" y1="449.92" x2="899.67" y2="478.85" stroke="#9aa0a6" stroke-width="1.80" />
<line x1="774.63" y1="587.18" x2="727.07" y2="593.01" stroke="#9aa0a6" stroke-width="1.83" />
<line x1="774.63" y1="587.18" x2="806.37" y2="590.31" stroke="#9aa0a6" stroke-width="2.00" />
<line x1="1009.07" y1="552.65" x2="930.07" y2="550.31" stroke="#9aa0a6" stroke-width="1.52" />
<line x1="1009.07" y1="552.65" x2="1013.90" y2="475.83" stroke="#9aa0a6" stroke-width="1.25" />
<line x1="763.05" y1="442.83" x2="761.46" y2="403.26" stroke="#9aa0a6" stroke-width="1.77" />
<line x1="763.05" y1="442.83" x2="809.47" y2="498.99" stroke="#9aa0a6" stroke-width="1.41" />
<line x1="869.76" y1="369.66" x2="961.95" y2="369.01" stroke="#9aa0a6" stroke-width="1.39" />
<line x1="869.76" y1="369.66" x2="761.36" y2="359.27" stroke="#9aa0a6" stroke-width="1.21" />
<line x1="1150.00" y1="182.56" x2="1084.41" y2="224.76" stroke="#9aa0a6" stroke-width="1.43" />
<line x1="930.07" y1="550.31" x2="899.67" y2="478.85" stroke="#9aa0a6" stroke-width="1.28" />
<line x1="930.07" y1="550.31" x2="922.65" y2="599.34" stroke="#9aa0a6" stroke-width="1.64" />
<line x1="930.07" y1="550.31" x2="808.72" y2="545.06" stroke="#9aa0a6" stroke-width="1.09" />
<line x1="1223.54" y1="1047.37" x2="1286.10" y2="1093.45" stroke="#9aa0a6" stroke-width="1.42" />
<line x1="727.07" y1="593.01" x2="731.00" y2="640.61" stroke="#9aa0a6" stroke-width="1.66" />
<line x1="727.07" y1="593.01" x2="733.01" y2="545.36" stroke="#9aa0a6" stroke-width="1.66" />
<line x1="727.07" y1="593.01" x2="684.69" y2="589.63" stroke="#9aa0a6" stroke-width="1.89" />
<line x1="773.90" y1="1003.93" x2="793.31" y2="935.31" stroke="#9aa0a6" stroke-width="1.35" />
<line x1="1354.93" y1="565.41" x2="1217.00" y2="566.40" stroke="#9aa0a6" stroke-width="0.92" />
<line x1="77.70" y1="853.14" x2="117.73" y2="874.97" stroke="#9aa0a6" stroke-width="1.82" />
<line x1="77.70" y1="853.14" x2="40.00" y2="824.13" stroke="#9aa0a6" stroke-width="1.77" />
<line x1="720.04" y1="1360.00" x2="790.73" y2="1287.67" stroke="#9aa0a6" stroke-width="1.08" />
<line x1="659.97" y1="356.22" x2="670.73" y2="256.36" stroke="#9aa0a6" stroke-width="0.92" />
<line x1="659.97" y1="356.22" x2="665.92" y2="409.54" stroke="#9aa0a6" stroke-width="1.58" />
<line x1="721.22" y1="383.90" x2="761.36" y2="359.27" stroke="#9aa0a6" stroke-width="1.79" />
<line x1="684.45" y1="646.01" x2="731.00" y2="640.61" stroke="#9aa0a6" stroke-width="1.85" />
<line x1="684.45" y1="646.01" x2="600.77" y2="632.35" stroke="#9aa0a6" stroke-width="1.45" />
<line x1="684.45" y1="646.01" x2="684.69" y2="589.63" stroke="#9aa0a6" stroke-width="1.54" />
<line x1="684.45" y1="646.01" x2="658.86" y2="595.62" stroke="#9aa0a6" stroke-width="1.57" />
<line x1="233.45" y1="985.69" x2="287.07" y2="985.91" stroke="#9aa0a6" stroke-width="1.78" />
<line x1="731.00" y1="640.61" x2="797.62" y2="643.35" stroke="#9aa0a6" stroke-width="1.65" />
<line x1="588.05" y1="586.54" x2="636.34" y2="587.83" stroke="#9aa0a6" stroke-width="1.83" />
<line x1="588.05" y1="586.54" x2="600.77" y2="632.35" stroke="#9aa0a6" stroke-width="1.67" />
<line x1="670.73" y1="256.36" x2="683.05" y2="211.22" stroke="#9aa0a6" stroke-width="1.68" />
<line x1="636.34" y1="587.83" x2="684.69" y2="589.63" stroke="#9aa0a6" stroke-width="1.83" />
<line x1="793.31" y1="935.31" x2="806.57" y2="858.06" stroke="#9aa0a6" stroke-width="1.24" />
<line x1="498.64" y1="462.83" x2="510.49" y2="497.19" stroke="#9aa0a6" stroke-width="1.83" />
<line x1="961.95" y1="369.01" x2="1017.50" y2="329.55" stroke="#9aa0a6" stroke-width="1.54" />
<line x1="761.46" y1="403.26" x2="761.36" y2="359.27" stroke="#9aa0a6" stroke-width="1.71" />
<line x1="164.36" y1="875.19" x2="117.73" y2="874.97" stroke="#9aa0a6" stroke-width="1.85" />
<line x1="733.01" y1="545.36" x2="808.72" y2="545.06" stroke="#9aa0a6" stroke-width="1.55" />
<line x1="1022.68" y1="344.41" x2="1106.83" y2="329.52" stroke="#9aa0a6" stroke-width="1.44" />
<line x1="1017.50" y1="329.55" x2="1041.71" y2="272.55" stroke="#9aa0a6" stroke-width="1.49" />
<line x1="1041.71" y1="272.55" x2="1084.41" y2="224.76" stroke="#9aa0a6" stroke-width="1.53" />
<line x1="1126.50" y1="282.05" x2="1106.83" y2="329.52" stroke="#9aa0a6" stroke-width="1.63" />
<line x1="1126.50" y1="282.05" x2="1084.41" y2="224.76" stroke="#9aa0a6" stroke-width="1.42" />
<line x1="1078.29" y1="635.74" x2="1095.85" y2="678.47" stroke="#9aa0a6" stroke-width="1.70" />
<line x1="784.15" y1="697.24" x2="797.62" y2="643.35" stroke="#9aa0a6" stroke-width="1.56" />
<line x1="784.15" y1="697.24" x2="784.23" y2="768.67" stroke="#9aa0a6" stroke-width="1.33" />
<line x1="806.57" y1="858.06" x2="784.23" y2="768.67" stroke="#9aa0a6" stroke-width="1.05" />
<line x1="922.65" y1="599.34" x2="806.37" y2="590.31" stroke="#9aa0a6" stroke-width="1.13" />
<line x1="797.62" y1="643.35" x2="806.37" y2="590.31" stroke="#9aa0a6" stroke-width="1.58" />
<line x1="797.62" y1="643.35" x2="901.42" y2="652.97" stroke="#9aa0a6" stroke-width="1.26" />
<line x1="806.37" y1="590.31" x2="808.72" y2="545.06" stroke="#9aa0a6" stroke-width="1.69" />
<line x1="808.72" y1="545.06" x2="809.47" y2="498.99" stroke="#9aa0a6" stroke-width="1.68" />
<line x1="1271.46" y1="357.36" x2="1215.85" y2="405.91" stroke="#9aa0a6" stroke-width="1.44" />
<line x1="665.92" y1="409.54" x2="689.79" y2="477.66" stroke="#9aa0a6" stroke-width="1.34" />
</g>
<g>
<circle cx="769.31" cy="803.78" r="3.20" fill="#b91c1c" />
<circle cx="775.97" cy="1082.03" r="3.20" fill="#b91c1c" />
<circle cx="308.46" cy="681.49" r="3.20" fill="#b91c1c" />
<circle cx="582.16" cy="547.80" r="3.20" fill="#b91c1c" />
<circle cx="409.27" cy="628.08" r="3.20" fill="#b91c1c" />
<circle cx="42.20" cy="796.58" r="2.20" fill="#1f2937" />
<circle cx="1007.32" cy="144.36" r="2.20" fill="#1f2937" />
<circle cx="665.61" cy="712.13" r="3.20" fill="#b91c1c" />
<circle cx="1256.10" cy="109.40" r="2.20" fill="#1f2937" />
<circle cx="1167.01" cy="1017.95" r="2.20" fill="#1f2937" />
<circle cx="714.71" cy="759.29" r="3.20" fill="#b91c1c" />
<circle cx="531.13" cy="617.50" r="2.20" fill="#1f2937" />
<circle cx="723.69" cy="711.23" r="2.20" fill="#1f2937" />
<circle cx="658.29" cy="47.25" r="2.20" fill="#1f2937" />
<circle cx="205.97" cy="950.75" r="2.20" fill="#1f2937" />
<circle cx="1101.14" cy="562.80" r="2.20" fill="#1f2937" />
<circle cx="814.88" cy="846.14" r="2.20" fill="#1f2937" />
<circle cx="1021.16" cy="425.55" r="3.20" fill="#b91c1c" />
<circle cx="652.44" cy="796.29" r="2.20" fill="#1f2937" />
<circle cx="672.93" cy="163.78" r="2.20" fill="#1f2937" />
<circle cx="680.29" cy="421.25" r="2.20" fill="#1f2937" />
<circle cx="656.01" cy="483.92" r="2.20" fill="#1f2937" />
<circle cx="379.59" cy="1006.98" r="2.20" fill="#1f2937" />
<circle cx="1060.89" cy="876.25" r="2.20" fill="#1f2937" />
<circle cx="674.96" cy="545.06" r="3.20" fill="#b91c1c" />
<circle cx="1121.46" cy="416.27" r="2.20" fill="#1f2937" />
<circle cx="1006.51" cy="630.78" r="3.20" fill="#b91c1c" />
<circle cx="1028.07" cy="40.00" r="2.20" fill="#1f2937" />
<circle cx="1360.00" cy="317.22" r="2.20" fill="#1f2937" />
<circle cx="1062.20" cy="1013.82" r="2.20" fill="#1f2937" />
<circle cx="637.42" cy="852.85" r="2.20" fill="#1f2937" />
<circle cx="1084.60" cy="732.32" r="2.20" fill="#1f2937" />
<circle cx="731.00" cy="482.37" r="2.20" fill="#1f2937" />
<circle cx="803.90" cy="1194.45" r="2.20" fill="#1f2937" />
<circle cx="527.68" cy="937.61" r="2.20" fill="#1f2937" />
<circle cx="924.17" cy="936.13" r="2.20" fill="#1f2937" />
<circle cx="491.38" cy="586.17" r="2.20" fill="#1f2937" />
<circle cx="932.11" cy="449.92" r="2.20" fill="#1f2937" />
<circle cx="774.63" cy="587.18" r="2.20" fill="#1f2937" />
<circle cx="1009.07" cy="552.65" r="3.20" fill="#b91c1c" />
<circle cx="1072.42" cy="795.25" r="2.20" fill="#1f2937" />
<circle cx="763.05" cy="442.83" r="3.20" fill="#b91c1c" />
<circle cx="869.76" cy="369.66" r="2.20" fill="#1f2937" />
<circle cx="1150.00" cy="182.56" r="2.20" fill="#1f2937" />
<circle cx="930.07" cy="550.31" r="3.20" fill="#b91c1c" />
<circle cx="1223.54" cy="1047.37" r="2.20" fill="#1f2937" />
<circle cx="727.07" cy="593.01" r="3.20" fill="#b91c1c" />
<circle cx="773.90" cy="1003.93" r="2.20" fill="#1f2937" />
<circle cx="1354.93" cy="565.41" r="2.20" fill="#1f2937" />
<circle cx="77.70" cy="853.14" r="2.20" fill="#1f2937" />
<circle cx="720.04" cy="1360.00" r="2.20" fill="#1f2937" />
<circle cx="659.97" cy="356.22" r="2.20" fill="#1f2937" />
<circle cx="721.22" cy="383.90" r="2.20" fill="#1f2937" />
<circle cx="684.45" cy="646.01" r="3.20" fill="#b91c1c" />
<circle cx="233.45" cy="985.69" r="2.20" fill="#1f2937" />
<circle cx="287.07" cy="985.91" r="2.20" fill="#1f2937" />
<circle cx="731.00" cy="640.61" r="3.20" fill="#b91c1c" />
<circle cx="588.05" cy="586.54" r="3.20" fill="#b91c1c" />
<circle cx="650.69" cy="430.56" r="2.20" fill="#1f2937" />
<circle cx="670.73" cy="256.36" r="2.20" fill="#1f2937" />
<circle cx="636.34" cy="587.83" r="2.20" fill="#1f2937" />
<circle cx="793.31" cy="935.31" r="2.20" fill="#1f2937" />
<circle cx="498.64" cy="462.83" r="2.20" fill="#1f2937" />
<circle cx="961.95" cy="369.01" r="2.20" fill="#1f2937" />
<circle cx="761.46" cy="403.26" r="2.20" fill="#1f2937" />
<circle cx="899.67" cy="478.85" r="2.20" fill="#1f2937" />
<circle cx="203.17" cy="725.73" r="2.20" fill="#1f2937" />
<circle cx="164.36" cy="875.19" r="2.20" fill="#1f2937" />
<circle cx="117.73" cy="874.97" r="2.20" fill="#1f2937" />
<circle cx="733.01" cy="545.36" r="3.20" fill="#b91c1c" />
<circle cx="600.77" cy="632.35" r="2.20" fill="#1f2937" />
<circle cx="1022.68" cy="344.41" r="2.20" fill="#1f2937" />
<circle cx="1017.50" cy="329.55" r="2.20" fill="#1f2937" />
<circle cx="1041.71" cy="272.55" r="2.20" fill="#1f2937" />
<circle cx="1013.90" cy="475.83" r="2.20" fill="#1f2937" />
<circle cx="1126.50" cy="282.05" r="2.20" fill="#1f2937" />
<circle cx="1106.83" cy="329.52" r="2.20" fill="#1f2937" />
<circle cx="1078.29" cy="635.74" r="2.20" fill="#1f2937" />
<circle cx="683.05" cy="211.22" r="2.20" fill="#1f2937" />
<circle cx="790.73" cy="1287.67" r="2.20" fill="#1f2937" />
<circle cx="684.69" cy="589.63" r="3.20" fill="#b91c1c" />
<circle cx="784.15" cy="697.24" r="2.20" fill="#1f2937" />
<circle cx="1095.85" cy="678.47" r="2.20" fill="#1f2937" />
<circle cx="806.57" cy="858.06" r="2.20" fill="#1f2937" />
<circle cx="477.15" cy="1015.98" r="2.20" fill="#1f2937" />
<circle cx="1084.41" cy="224.76" r="3.20" fill="#b91c1c" />
<circle cx="531.22" cy="649.30" r="2.20" fill="#1f2937" />
<circle cx="1217.00" cy="566.40" r="2.20" fill="#1f2937" />
<circle cx="613.25" cy="919.55" r="2.20" fill="#1f2937" />
<circle cx="510.49" cy="497.19" r="2.20" fill="#1f2937" />
<circle cx="922.65" cy="599.34" r="2.20" fill="#1f2937" />
<circle cx="869.02" cy="890.82" r="2.20" fill="#1f2937" />
<circle cx="797.62" cy="643.35" r="3.20" fill="#b91c1c" />
<circle cx="806.37" cy="590.31" r="3.20" fill="#b91c1c" />
<circle cx="808.72" cy="545.06" r="3.20" fill="#b91c1c" />
<circle cx="809.47" cy="498.99" r="2.20" fill="#1f2937" />
<circle cx="658.61" cy="834.56" r="2.20" fill="#1f2937" />
<circle cx="761.36" cy="359.27" r="3.20" fill="#b91c1c" />
<circle cx="784.23" cy="768.67" r="3.20" fill="#b91c1c" />
<circle cx="40.00" cy="824.13" r="2.20" fill="#1f2937" />
<circle cx="901.42" cy="652.97" r="2.20" fill="#1f2937" />
<circle cx="1271.46" cy="357.36" r="2.20" fill="#1f2937" />
<circle cx="665.92" cy="409.54" r="2.20" fill="#1f2937" />
<circle cx="1286.10" cy="1093.45" r="2.20" fill="#1f2937" />
<circle cx="689.79" cy="477.66" r="2.20" fill="#1f2937" />
<circle cx="1215.85" cy="405.91" r="2.20" fill="#1f2937" />
<circle cx="658.86" cy="595.62" r="2.20" fill="#1f2937" />
<circle cx="1008.90" cy="89.19" r="2.20" fill="#1f2937" />
<g font-family="Arial, sans-serif" font-size="10" fill="#111827">
<text x="678.96" y="541.06">25:Hommachi</text>
<text x="688.45" y="642.01">54:Namba</text>
<text x="586.16" y="543.80">4:Awaza</text>
<text x="718.71" y="755.29">11:Dobutsuen-mae</text>
<text x="1025.16" y="421.55">18:GamoYonchome</text>
<text x="1013.07" y="548.65">40:Midoribashi</text>
<text x="767.05" y="438.83">42:Minami-morimachi</text>
<text x="934.07" y="546.31">45:Morinomiya</text>
<text x="731.07" y="589.01">47:Nagahoribashi</text>
<text x="735.00" y="636.61">57:Nippombashi</text>
<text x="592.05" y="582.54">58:Nishi-Nagahori</text>
<text x="737.01" y="541.36">70:Sakaisuji-Hommachi</text>
<text x="688.69" y="585.63">81:Shinsaibashi</text>
<text x="1088.41" y="220.76">86:Taishibashi-Imaichi</text>
<text x="801.62" y="639.35">93:TanimachiKyuchome</text>
<text x="810.37" y="586.31">94:TanimachiRokuchome</text>
<text x="812.72" y="541.06">95:TanimachiYonchome</text>
<text x="788.23" y="764.67">99:Tennoji</text>
<text x="669.61" y="708.13">8:Daikokucho</text>
<text x="1010.51" y="626.78">27:Imazato</text>
<text x="765.36" y="355.27">98:TenjimbashisujiRokuchome</text>
<text x="773.31" y="799.78">1:Abeno</text>
<text x="779.97" y="1078.03">2:Abiko</text>
<text x="312.46" y="677.49">3:Asashiobashi</text>
<text x="413.27" y="624.08">5:Bentencho</text>
</g>
</g>
</svg>
