<?xml version="1.0" encoding="UTF-8"?>
<svg xmlns="http://www.w3.org/2000/svg" width="1400" height="1400" viewBox="0 0 1400 1400">
<rect x="0" y="0" width="100%" height="100%" fill="#ffffff" />
<g opacity="0.75">
<line x1="1075.28" y1="1162.08" x2="1072.15" y2="1123.21" stroke="#9aa0a6" stroke-width="1.82" />
<line x1="1065.89" y1="476.33" x2="1090.92" y2="470.17" stroke="#9aa0a6" stroke-width="1.97" />
<line x1="1065.89" y1="476.33" x2="1043.99" y2="471.15" stroke="#9aa0a6" stroke-width="1.99" />
<line x1="241.63" y1="244.26" x2="269.44" y2="291.04" stroke="#9aa0a6" stroke-width="1.70" />
<line x1="241.63" y1="244.26" x2="186.88" y2="140.78" stroke="#9aa0a6" stroke-width="1.14" />
<line x1="821.85" y1="166.01" x2="847.51" y2="218.00" stroke="#9aa0a6" stroke-width="1.66" />
<line x1="821.85" y1="166.01" x2="812.46" y2="127.14" stroke="#9aa0a6" stroke-width="1.82" />
<line x1="962.64" y1="547.59" x2="978.29" y2="521.35" stroke="#9aa0a6" stroke-width="1.91" />
<line x1="962.64" y1="547.59" x2="1003.32" y2="523.95" stroke="#9aa0a6" stroke-width="1.79" />
<line x1="962.64" y1="547.59" x2="905.63" y2="552.88" stroke="#9aa0a6" stroke-width="1.72" />
<line x1="972.03" y1="82.43" x2="1000.19" y2="124.54" stroke="#9aa0a6" stroke-width="1.73" />
<line x1="972.03" y1="82.43" x2="962.64" y2="51.66" stroke="#9aa0a6" stroke-width="1.89" />
<line x1="756.14" y1="1216.18" x2="778.05" y2="1277.07" stroke="#9aa0a6" stroke-width="1.60" />
<line x1="756.14" y1="1216.18" x2="731.11" y2="1145.88" stroke="#9aa0a6" stroke-width="1.51" />
<line x1="652.89" y1="662.59" x2="681.05" y2="666.15" stroke="#9aa0a6" stroke-width="1.95" />
<line x1="1202.00" y1="587.08" x2="1237.98" y2="566.38" stroke="#9aa0a6" stroke-width="1.83" />
<line x1="1202.00" y1="587.08" x2="1174.18" y2="596.97" stroke="#9aa0a6" stroke-width="1.94" />
<line x1="1309.94" y1="507.75" x2="1294.30" y2="528.48" stroke="#9aa0a6" stroke-width="1.95" />
<line x1="1309.94" y1="507.75" x2="1313.07" y2="480.86" stroke="#9aa0a6" stroke-width="1.93" />
<line x1="837.49" y1="816.45" x2="840.62" y2="773.37" stroke="#9aa0a6" stroke-width="1.78" />
<line x1="837.49" y1="816.45" x2="821.85" y2="865.04" stroke="#9aa0a6" stroke-width="1.72" />
<line x1="718.60" y1="808.35" x2="778.05" y2="795.72" stroke="#9aa0a6" stroke-width="1.68" />
<line x1="718.60" y1="808.35" x2="674.80" y2="821.96" stroke="#9aa0a6" stroke-width="1.80" />
<line x1="843.75" y1="789.57" x2="862.52" y2="812.89" stroke="#9aa0a6" stroke-width="1.92" />
<line x1="843.75" y1="789.57" x2="809.33" y2="757.17" stroke="#9aa0a6" stroke-width="1.77" />
<line x1="781.17" y1="587.11" x2="758.75" y2="578.08" stroke="#9aa0a6" stroke-width="1.98" />
<line x1="781.17" y1="587.11" x2="765.53" y2="609.46" stroke="#9aa0a6" stroke-width="1.94" />
<line x1="781.17" y1="587.11" x2="796.99" y2="619.47" stroke="#9aa0a6" stroke-width="1.86" />
<line x1="781.17" y1="587.11" x2="818.72" y2="563.79" stroke="#9aa0a6" stroke-width="1.81" />
<line x1="1122.21" y1="619.50" x2="1084.67" y2="604.28" stroke="#9aa0a6" stroke-width="1.84" />
<line x1="1122.21" y1="619.50" x2="1140.99" y2="641.21" stroke="#9aa0a6" stroke-width="1.93" />
<line x1="1122.21" y1="619.50" x2="1140.99" y2="641.21" stroke="#9aa0a6" stroke-width="1.93" />
<line x1="1122.21" y1="619.50" x2="1100.31" y2="584.52" stroke="#9aa0a6" stroke-width="1.81" />
<line x1="1122.21" y1="619.50" x2="1083.80" y2="613.17" stroke="#9aa0a6" stroke-width="1.86" />
<line x1="1122.21" y1="619.50" x2="1175.40" y2="649.95" stroke="#9aa0a6" stroke-width="1.67" />
<line x1="1122.21" y1="619.50" x2="1146.37" y2="606.87" stroke="#9aa0a6" stroke-width="1.95" />
<line x1="1200.43" y1="681.70" x2="1222.33" y2="703.08" stroke="#9aa0a6" stroke-width="1.91" />
<line x1="1200.43" y1="681.70" x2="1175.40" y2="649.95" stroke="#9aa0a6" stroke-width="1.82" />
<line x1="856.96" y1="602.37" x2="844.79" y2="584.38" stroke="#9aa0a6" stroke-width="1.99" />
<line x1="856.96" y1="602.37" x2="871.91" y2="639.26" stroke="#9aa0a6" stroke-width="1.82" />
<line x1="1000.19" y1="794.10" x2="906.33" y2="768.83" stroke="#9aa0a6" stroke-width="1.39" />
<line x1="1000.19" y1="794.10" x2="1018.96" y2="784.06" stroke="#9aa0a6" stroke-width="2.00" />
<line x1="844.79" y1="584.38" x2="818.72" y2="563.79" stroke="#9aa0a6" stroke-width="1.90" />
<line x1="884.42" y1="671.66" x2="875.04" y2="694.01" stroke="#9aa0a6" stroke-width="1.96" />
<line x1="884.42" y1="671.66" x2="871.91" y2="639.26" stroke="#9aa0a6" stroke-width="1.87" />
<line x1="884.42" y1="671.66" x2="909.45" y2="659.02" stroke="#9aa0a6" stroke-width="1.94" />
<line x1="884.42" y1="671.66" x2="881.30" y2="715.71" stroke="#9aa0a6" stroke-width="1.78" />
<line x1="766.57" y1="380.12" x2="776.13" y2="412.52" stroke="#9aa0a6" stroke-width="1.87" />
<line x1="766.57" y1="380.12" x2="753.02" y2="346.76" stroke="#9aa0a6" stroke-width="1.85" />
<line x1="1025.22" y1="810.30" x2="1018.96" y2="840.75" stroke="#9aa0a6" stroke-width="1.90" />
<line x1="1025.22" y1="810.30" x2="1018.96" y2="784.06" stroke="#9aa0a6" stroke-width="1.93" />
<line x1="984.55" y1="452.03" x2="987.67" y2="425.15" stroke="#9aa0a6" stroke-width="1.93" />
<line x1="984.55" y1="452.03" x2="972.03" y2="484.43" stroke="#9aa0a6" stroke-width="1.87" />
<line x1="906.33" y1="768.83" x2="896.94" y2="744.54" stroke="#9aa0a6" stroke-width="1.94" />
<line x1="681.05" y1="1044.17" x2="681.05" y2="1001.74" stroke="#9aa0a6" stroke-width="1.79" />
<line x1="681.05" y1="1044.17" x2="693.57" y2="1073.00" stroke="#9aa0a6" stroke-width="1.90" />
<line x1="987.67" y1="425.15" x2="993.93" y2="373.00" stroke="#9aa0a6" stroke-width="1.70" />
<line x1="776.13" y1="412.52" x2="792.65" y2="441.31" stroke="#9aa0a6" stroke-width="1.88" />
<line x1="796.82" y1="472.77" x2="795.25" y2="506.99" stroke="#9aa0a6" stroke-width="1.87" />
<line x1="796.82" y1="472.77" x2="792.65" y2="441.31" stroke="#9aa0a6" stroke-width="1.89" />
<line x1="1078.41" y1="523.95" x2="1037.74" y2="503.54" stroke="#9aa0a6" stroke-width="1.80" />
<line x1="1078.41" y1="523.95" x2="1094.23" y2="547.49" stroke="#9aa0a6" stroke-width="1.93" />
<line x1="925.10" y1="733.85" x2="896.94" y2="744.54" stroke="#9aa0a6" stroke-width="1.93" />
<line x1="925.10" y1="733.85" x2="962.64" y2="715.71" stroke="#9aa0a6" stroke-width="1.83" />
<line x1="940.40" y1="695.95" x2="915.19" y2="704.95" stroke="#9aa0a6" stroke-width="1.96" />
<line x1="940.40" y1="695.95" x2="965.77" y2="683.32" stroke="#9aa0a6" stroke-width="1.94" />
<line x1="968.90" y1="625.01" x2="988.20" y2="654.56" stroke="#9aa0a6" stroke-width="1.87" />
<line x1="968.90" y1="625.01" x2="956.04" y2="604.17" stroke="#9aa0a6" stroke-width="1.96" />
<line x1="1237.98" y1="566.38" x2="1266.14" y2="550.18" stroke="#9aa0a6" stroke-width="1.91" />
<line x1="896.94" y1="744.54" x2="859.39" y2="762.68" stroke="#9aa0a6" stroke-width="1.83" />
<line x1="896.94" y1="744.54" x2="881.30" y2="715.71" stroke="#9aa0a6" stroke-width="1.89" />
<line x1="978.29" y1="521.35" x2="972.03" y2="484.43" stroke="#9aa0a6" stroke-width="1.84" />
<line x1="1084.67" y1="604.28" x2="1043.99" y2="591.65" stroke="#9aa0a6" stroke-width="1.83" />
<line x1="787.43" y1="1303.31" x2="778.05" y2="1277.07" stroke="#9aa0a6" stroke-width="1.93" />
<line x1="787.43" y1="1303.31" x2="756.14" y2="1325.66" stroke="#9aa0a6" stroke-width="1.85" />
<line x1="196.09" y1="1086.61" x2="189.83" y2="1001.74" stroke="#9aa0a6" stroke-width="1.40" />
<line x1="196.09" y1="1086.61" x2="204.26" y2="1185.44" stroke="#9aa0a6" stroke-width="1.28" />
<line x1="1316.20" y1="419.64" x2="1316.20" y2="452.03" stroke="#9aa0a6" stroke-width="1.88" />
<line x1="1316.20" y1="419.64" x2="1319.33" y2="381.09" stroke="#9aa0a6" stroke-width="1.83" />
<line x1="1072.50" y1="801.23" x2="1092.49" y2="854.32" stroke="#9aa0a6" stroke-width="1.67" />
<line x1="1072.50" y1="801.23" x2="1069.89" y2="761.64" stroke="#9aa0a6" stroke-width="1.82" />
<line x1="989.93" y1="591.58" x2="1043.99" y2="591.65" stroke="#9aa0a6" stroke-width="1.74" />
<line x1="989.93" y1="591.58" x2="956.04" y2="604.17" stroke="#9aa0a6" stroke-width="1.88" />
<line x1="1196.78" y1="734.64" x2="1162.02" y2="753.54" stroke="#9aa0a6" stroke-width="1.85" />
<line x1="1196.78" y1="734.64" x2="1222.33" y2="703.08" stroke="#9aa0a6" stroke-width="1.82" />
<line x1="758.75" y1="578.08" x2="749.19" y2="552.88" stroke="#9aa0a6" stroke-width="1.94" />
<line x1="803.95" y1="92.19" x2="812.46" y2="127.14" stroke="#9aa0a6" stroke-width="1.85" />
<line x1="1272.39" y1="218.16" x2="1313.07" y2="235.33" stroke="#9aa0a6" stroke-width="1.81" />
<line x1="1092.49" y1="854.32" x2="1059.46" y2="879.51" stroke="#9aa0a6" stroke-width="1.83" />
<line x1="847.51" y1="218.00" x2="843.75" y2="261.24" stroke="#9aa0a6" stroke-width="1.78" />
<line x1="875.21" y1="335.13" x2="894.77" y2="374.69" stroke="#9aa0a6" stroke-width="1.78" />
<line x1="875.21" y1="335.13" x2="856.27" y2="292.99" stroke="#9aa0a6" stroke-width="1.76" />
<line x1="778.05" y1="795.72" x2="809.33" y2="757.17" stroke="#9aa0a6" stroke-width="1.75" />
<line x1="1003.32" y1="523.95" x2="1037.74" y2="503.54" stroke="#9aa0a6" stroke-width="1.84" />
<line x1="1334.97" y1="275.82" x2="1313.07" y2="235.33" stroke="#9aa0a6" stroke-width="1.77" />
<line x1="1334.97" y1="275.82" x2="1360.00" y2="319.87" stroke="#9aa0a6" stroke-width="1.73" />
<line x1="903.20" y1="579.01" x2="905.63" y2="552.88" stroke="#9aa0a6" stroke-width="1.94" />
<line x1="903.20" y1="579.01" x2="937.61" y2="588.73" stroke="#9aa0a6" stroke-width="1.89" />
<line x1="674.80" y1="821.96" x2="627.86" y2="848.84" stroke="#9aa0a6" stroke-width="1.73" />
<line x1="875.04" y1="694.01" x2="859.08" y2="737.93" stroke="#9aa0a6" stroke-width="1.76" />
<line x1="972.03" y1="484.43" x2="950.13" y2="501.60" stroke="#9aa0a6" stroke-width="1.94" />
<line x1="972.03" y1="484.43" x2="1006.45" y2="467.26" stroke="#9aa0a6" stroke-width="1.86" />
<line x1="790.56" y1="722.19" x2="778.05" y2="683.32" stroke="#9aa0a6" stroke-width="1.81" />
<line x1="790.56" y1="722.19" x2="809.33" y2="757.17" stroke="#9aa0a6" stroke-width="1.82" />
<line x1="1236.76" y1="680.66" x2="1222.33" y2="703.08" stroke="#9aa0a6" stroke-width="1.94" />
<line x1="1144.11" y1="404.42" x2="1150.37" y2="429.68" stroke="#9aa0a6" stroke-width="1.94" />
<line x1="1144.11" y1="404.42" x2="1137.86" y2="372.02" stroke="#9aa0a6" stroke-width="1.88" />
<line x1="1128.47" y1="457.54" x2="1090.92" y2="470.17" stroke="#9aa0a6" stroke-width="1.85" />
<line x1="1128.47" y1="457.54" x2="1150.37" y2="429.68" stroke="#9aa0a6" stroke-width="1.87" />
<line x1="709.21" y1="1338.30" x2="756.14" y2="1325.66" stroke="#9aa0a6" stroke-width="1.78" />
<line x1="709.21" y1="1338.30" x2="665.41" y2="1350.93" stroke="#9aa0a6" stroke-width="1.81" />
<line x1="843.75" y1="261.24" x2="856.27" y2="292.99" stroke="#9aa0a6" stroke-width="1.87" />
<line x1="269.44" y1="291.04" x2="341.58" y2="326.13" stroke="#9aa0a6" stroke-width="1.52" />
<line x1="269.44" y1="291.04" x2="181.67" y2="287.44" stroke="#9aa0a6" stroke-width="1.47" />
<line x1="824.98" y1="649.95" x2="871.91" y2="639.26" stroke="#9aa0a6" stroke-width="1.79" />
<line x1="824.98" y1="649.95" x2="796.99" y2="619.47" stroke="#9aa0a6" stroke-width="1.82" />
<line x1="824.98" y1="649.95" x2="774.92" y2="656.43" stroke="#9aa0a6" stroke-width="1.77" />
<line x1="993.93" y1="373.00" x2="987.67" y2="319.87" stroke="#9aa0a6" stroke-width="1.69" />
<line x1="1065.89" y1="1089.20" x2="1072.15" y2="1123.21" stroke="#9aa0a6" stroke-width="1.86" />
<line x1="1065.89" y1="1089.20" x2="1059.64" y2="1049.68" stroke="#9aa0a6" stroke-width="1.81" />
<line x1="915.19" y1="704.95" x2="881.30" y2="715.71" stroke="#9aa0a6" stroke-width="1.89" />
<line x1="871.91" y1="639.26" x2="915.71" y2="619.50" stroke="#9aa0a6" stroke-width="1.78" />
<line x1="768.66" y1="901.97" x2="734.24" y2="938.90" stroke="#9aa0a6" stroke-width="1.74" />
<line x1="768.66" y1="901.97" x2="821.85" y2="865.04" stroke="#9aa0a6" stroke-width="1.63" />
<line x1="1294.30" y1="528.48" x2="1266.14" y2="550.18" stroke="#9aa0a6" stroke-width="1.88" />
<line x1="765.53" y1="609.46" x2="774.92" y2="656.43" stroke="#9aa0a6" stroke-width="1.74" />
<line x1="1162.02" y1="753.54" x2="1111.61" y2="752.64" stroke="#9aa0a6" stroke-width="1.77" />
<line x1="471.43" y1="916.54" x2="305.60" y2="937.92" stroke="#9aa0a6" stroke-width="0.83" />
<line x1="471.43" y1="916.54" x2="524.61" y2="881.24" stroke="#9aa0a6" stroke-width="1.64" />
<line x1="1316.20" y1="452.03" x2="1313.07" y2="480.86" stroke="#9aa0a6" stroke-width="1.91" />
<line x1="1125.34" y1="675.22" x2="1140.99" y2="641.21" stroke="#9aa0a6" stroke-width="1.84" />
<line x1="1125.34" y1="675.22" x2="1140.99" y2="641.21" stroke="#9aa0a6" stroke-width="1.84" />
<line x1="1125.34" y1="675.22" x2="1112.83" y2="705.02" stroke="#9aa0a6" stroke-width="1.89" />
<line x1="1125.34" y1="675.22" x2="1097.18" y2="681.70" stroke="#9aa0a6" stroke-width="1.94" />
<line x1="793.51" y1="531.29" x2="795.25" y2="506.99" stroke="#9aa0a6" stroke-width="1.96" />
<line x1="793.51" y1="531.29" x2="818.72" y2="563.79" stroke="#9aa0a6" stroke-width="1.82" />
<line x1="988.20" y1="654.56" x2="993.93" y2="675.22" stroke="#9aa0a6" stroke-width="1.98" />
<line x1="734.24" y1="938.90" x2="703.13" y2="970.39" stroke="#9aa0a6" stroke-width="1.80" />
<line x1="1006.45" y1="906.50" x2="1034.61" y2="979.39" stroke="#9aa0a6" stroke-width="1.48" />
<line x1="1006.45" y1="906.50" x2="1018.96" y2="840.75" stroke="#9aa0a6" stroke-width="1.57" />
<line x1="1089.88" y1="737.34" x2="1112.83" y2="705.02" stroke="#9aa0a6" stroke-width="1.83" />
<line x1="1089.88" y1="737.34" x2="1069.89" y2="761.64" stroke="#9aa0a6" stroke-width="1.90" />
<line x1="695.31" y1="491.70" x2="645.77" y2="482.70" stroke="#9aa0a6" stroke-width="1.77" />
<line x1="695.31" y1="491.70" x2="728.33" y2="508.79" stroke="#9aa0a6" stroke-width="1.87" />
<line x1="862.52" y1="812.89" x2="859.39" y2="849.82" stroke="#9aa0a6" stroke-width="1.84" />
<line x1="1222.33" y1="703.08" x2="1306.81" y2="710.20" stroke="#9aa0a6" stroke-width="1.49" />
<line x1="724.86" y1="677.16" x2="681.05" y2="666.15" stroke="#9aa0a6" stroke-width="1.81" />
<line x1="724.86" y1="677.16" x2="774.92" y2="656.43" stroke="#9aa0a6" stroke-width="1.73" />
<line x1="962.64" y1="715.71" x2="1000.19" y2="704.05" stroke="#9aa0a6" stroke-width="1.86" />
<line x1="1034.61" y1="979.39" x2="1059.64" y2="1049.68" stroke="#9aa0a6" stroke-width="1.51" />
<line x1="993.93" y1="675.22" x2="965.77" y2="683.32" stroke="#9aa0a6" stroke-width="1.94" />
<line x1="993.93" y1="675.22" x2="1000.19" y2="704.05" stroke="#9aa0a6" stroke-width="1.91" />
<line x1="993.93" y1="675.22" x2="1034.61" y2="658.05" stroke="#9aa0a6" stroke-width="1.81" />
<line x1="341.58" y1="326.13" x2="485.85" y2="400.82" stroke="#9aa0a6" stroke-width="0.83" />
<line x1="630.99" y1="1360.00" x2="665.41" y2="1350.93" stroke="#9aa0a6" stroke-width="1.89" />
<line x1="1174.18" y1="596.97" x2="1146.37" y2="606.87" stroke="#9aa0a6" stroke-width="1.94" />
<line x1="718.79" y1="320.75" x2="753.02" y2="346.76" stroke="#9aa0a6" stroke-width="1.81" />
<line x1="718.79" y1="320.75" x2="684.18" y2="325.38" stroke="#9aa0a6" stroke-width="1.90" />
<line x1="1043.99" y1="680.73" x2="1000.19" y2="704.05" stroke="#9aa0a6" stroke-width="1.77" />
<line x1="1043.99" y1="680.73" x2="1097.18" y2="681.70" stroke="#9aa0a6" stroke-width="1.75" />
<line x1="485.85" y1="400.82" x2="590.14" y2="453.01" stroke="#9aa0a6" stroke-width="1.21" />
<line x1="1137.86" y1="344.17" x2="1139.42" y2="319.84" stroke="#9aa0a6" stroke-width="1.96" />
<line x1="1137.86" y1="344.17" x2="1137.86" y2="372.02" stroke="#9aa0a6" stroke-width="1.92" />
<line x1="214.86" y1="94.10" x2="186.88" y2="140.78" stroke="#9aa0a6" stroke-width="1.70" />
<line x1="849.14" y1="42.70" x2="915.71" y2="40.00" stroke="#9aa0a6" stroke-width="1.64" />
<line x1="950.13" y1="501.60" x2="940.74" y2="541.11" stroke="#9aa0a6" stroke-width="1.81" />
<line x1="909.45" y1="522.33" x2="905.63" y2="552.88" stroke="#9aa0a6" stroke-width="1.90" />
<line x1="909.45" y1="522.33" x2="900.07" y2="483.46" stroke="#9aa0a6" stroke-width="1.82" />
<line x1="703.13" y1="970.39" x2="681.05" y2="1001.74" stroke="#9aa0a6" stroke-width="1.84" />
<line x1="894.77" y1="374.69" x2="884.42" y2="414.46" stroke="#9aa0a6" stroke-width="1.81" />
<line x1="956.04" y1="604.17" x2="950.13" y2="575.45" stroke="#9aa0a6" stroke-width="1.91" />
<line x1="956.04" y1="604.17" x2="956.39" y2="639.26" stroke="#9aa0a6" stroke-width="1.86" />
<line x1="956.04" y1="604.17" x2="915.71" y2="619.50" stroke="#9aa0a6" stroke-width="1.82" />
<line x1="956.04" y1="604.17" x2="937.61" y2="588.73" stroke="#9aa0a6" stroke-width="1.97" />
<line x1="1100.31" y1="584.52" x2="1094.23" y2="547.49" stroke="#9aa0a6" stroke-width="1.84" />
<line x1="562.16" y1="859.86" x2="627.86" y2="848.84" stroke="#9aa0a6" stroke-width="1.64" />
<line x1="562.16" y1="859.86" x2="524.61" y2="881.24" stroke="#9aa0a6" stroke-width="1.82" />
<line x1="645.77" y1="482.70" x2="615.35" y2="468.30" stroke="#9aa0a6" stroke-width="1.90" />
<line x1="950.13" y1="575.45" x2="940.74" y2="541.11" stroke="#9aa0a6" stroke-width="1.86" />
<line x1="1006.45" y1="467.26" x2="1043.99" y2="471.15" stroke="#9aa0a6" stroke-width="1.87" />
<line x1="1083.80" y1="613.17" x2="1034.61" y2="658.05" stroke="#9aa0a6" stroke-width="1.61" />
<line x1="40.00" y1="437.71" x2="181.67" y2="287.44" stroke="#9aa0a6" stroke-width="0.40" />
<line x1="890.68" y1="458.51" x2="884.42" y2="414.46" stroke="#9aa0a6" stroke-width="1.77" />
<line x1="890.68" y1="458.51" x2="900.07" y2="483.46" stroke="#9aa0a6" stroke-width="1.94" />
<line x1="840.62" y1="773.37" x2="859.39" y2="762.68" stroke="#9aa0a6" stroke-width="2.00" />
<line x1="840.62" y1="773.37" x2="859.08" y2="737.93" stroke="#9aa0a6" stroke-width="1.82" />
<line x1="840.62" y1="773.37" x2="809.33" y2="757.17" stroke="#9aa0a6" stroke-width="1.88" />
<line x1="905.63" y1="552.88" x2="853.14" y2="537.55" stroke="#9aa0a6" stroke-width="1.73" />
<line x1="821.85" y1="865.04" x2="859.39" y2="849.82" stroke="#9aa0a6" stroke-width="1.84" />
<line x1="728.33" y1="508.79" x2="749.19" y2="552.88" stroke="#9aa0a6" stroke-width="1.74" />
<line x1="1059.46" y1="879.51" x2="1022.96" y2="879.51" stroke="#9aa0a6" stroke-width="1.88" />
<line x1="189.83" y1="1001.74" x2="305.60" y2="937.92" stroke="#9aa0a6" stroke-width="1.08" />
<line x1="1000.19" y1="124.54" x2="1015.83" y2="160.50" stroke="#9aa0a6" stroke-width="1.83" />
<line x1="1015.83" y1="160.50" x2="1034.61" y2="202.93" stroke="#9aa0a6" stroke-width="1.76" />
<line x1="1054.16" y1="252.37" x2="1009.58" y2="288.45" stroke="#9aa0a6" stroke-width="1.69" />
<line x1="1054.16" y1="252.37" x2="1034.61" y2="202.93" stroke="#9aa0a6" stroke-width="1.70" />
<line x1="204.26" y1="1185.44" x2="196.44" y2="1261.92" stroke="#9aa0a6" stroke-width="1.48" />
<line x1="1009.58" y1="288.45" x2="987.67" y2="319.87" stroke="#9aa0a6" stroke-width="1.84" />
<line x1="956.39" y1="639.26" x2="909.45" y2="659.02" stroke="#9aa0a6" stroke-width="1.76" />
<line x1="1360.00" y1="319.87" x2="1319.33" y2="349.67" stroke="#9aa0a6" stroke-width="1.75" />
<line x1="1000.19" y1="704.05" x2="1018.96" y2="784.06" stroke="#9aa0a6" stroke-width="1.43" />
<line x1="1111.61" y1="752.64" x2="1069.89" y2="761.64" stroke="#9aa0a6" stroke-width="1.83" />
<line x1="590.14" y1="453.01" x2="615.35" y2="468.30" stroke="#9aa0a6" stroke-width="1.93" />
<line x1="915.71" y1="40.00" x2="962.64" y2="51.66" stroke="#9aa0a6" stroke-width="1.79" />
<line x1="1069.89" y1="761.64" x2="1037.74" y2="772.72" stroke="#9aa0a6" stroke-width="1.90" />
<line x1="778.05" y1="683.32" x2="774.92" y2="656.43" stroke="#9aa0a6" stroke-width="1.93" />
<line x1="1319.33" y1="381.09" x2="1319.33" y2="349.67" stroke="#9aa0a6" stroke-width="1.89" />
<line x1="859.08" y1="737.93" x2="809.33" y2="757.17" stroke="#9aa0a6" stroke-width="1.74" />
<line x1="859.08" y1="737.93" x2="881.30" y2="715.71" stroke="#9aa0a6" stroke-width="1.91" />
<line x1="1018.96" y1="784.06" x2="1037.74" y2="772.72" stroke="#9aa0a6" stroke-width="1.99" />
<line x1="693.57" y1="1073.00" x2="731.11" y2="1145.88" stroke="#9aa0a6" stroke-width="1.45" />
<line x1="818.72" y1="563.79" x2="853.14" y2="537.55" stroke="#9aa0a6" stroke-width="1.81" />
</g>
<g>
<circle cx="1075.28" cy="1162.08" r="2.20" fill="#1f2937" />
<circle cx="1065.89" cy="476.33" r="3.20" fill="#b91c1c" />
<circle cx="241.63" cy="244.26" r="2.20" fill="#1f2937" />
<circle cx="821.85" cy="166.01" r="2.20" fill="#1f2937" />
<circle cx="962.64" cy="547.59" r="3.20" fill="#b91c1c" />
<circle cx="972.03" cy="82.43" r="2.20" fill="#1f2937" />
<circle cx="756.14" cy="1216.18" r="2.20" fill="#1f2937" />
<circle cx="652.89" cy="662.59" r="2.20" fill="#1f2937" />
<circle cx="1202.00" cy="587.08" r="2.20" fill="#1f2937" />
<circle cx="1309.94" cy="507.75" r="2.20" fill="#1f2937" />
<circle cx="837.49" cy="816.45" r="2.20" fill="#1f2937" />
<circle cx="718.60" cy="808.35" r="2.20" fill="#1f2937" />
<circle cx="843.75" cy="789.57" r="2.20" fill="#1f2937" />
<circle cx="781.17" cy="587.11" r="3.20" fill="#b91c1c" />
<circle cx="1122.21" cy="619.50" r="3.20" fill="#b91c1c" />
<circle cx="1200.43" cy="681.70" r="2.20" fill="#1f2937" />
<circle cx="856.96" cy="602.37" r="2.20" fill="#1f2937" />
<circle cx="1000.19" cy="794.10" r="2.20" fill="#1f2937" />
<circle cx="844.79" cy="584.38" r="2.20" fill="#1f2937" />
<circle cx="884.42" cy="671.66" r="3.20" fill="#b91c1c" />
<circle cx="766.57" cy="380.12" r="2.20" fill="#1f2937" />
<circle cx="1025.22" cy="810.30" r="2.20" fill="#1f2937" />
<circle cx="984.55" cy="452.03" r="2.20" fill="#1f2937" />
<circle cx="906.33" cy="768.83" r="2.20" fill="#1f2937" />
<circle cx="681.05" cy="1044.17" r="2.20" fill="#1f2937" />
<circle cx="987.67" cy="425.15" r="2.20" fill="#1f2937" />
<circle cx="776.13" cy="412.52" r="2.20" fill="#1f2937" />
<circle cx="796.82" cy="472.77" r="2.20" fill="#1f2937" />
<circle cx="1078.41" cy="523.95" r="2.20" fill="#1f2937" />
<circle cx="925.10" cy="733.85" r="2.20" fill="#1f2937" />
<circle cx="940.40" cy="695.95" r="2.20" fill="#1f2937" />
<circle cx="968.90" cy="625.01" r="2.20" fill="#1f2937" />
<circle cx="1237.98" cy="566.38" r="2.20" fill="#1f2937" />
<circle cx="896.94" cy="744.54" r="3.20" fill="#b91c1c" />
<circle cx="978.29" cy="521.35" r="2.20" fill="#1f2937" />
<circle cx="1084.67" cy="604.28" r="2.20" fill="#1f2937" />
<circle cx="787.43" cy="1303.31" r="2.20" fill="#1f2937" />
<circle cx="196.09" cy="1086.61" r="2.20" fill="#1f2937" />
<circle cx="1316.20" cy="419.64" r="2.20" fill="#1f2937" />
<circle cx="1072.50" cy="801.23" r="2.20" fill="#1f2937" />
<circle cx="989.93" cy="591.58" r="2.20" fill="#1f2937" />
<circle cx="1196.78" cy="734.64" r="2.20" fill="#1f2937" />
<circle cx="758.75" cy="578.08" r="2.20" fill="#1f2937" />
<circle cx="803.95" cy="92.19" r="2.20" fill="#1f2937" />
<circle cx="1272.39" cy="218.16" r="2.20" fill="#1f2937" />
<circle cx="1092.49" cy="854.32" r="2.20" fill="#1f2937" />
<circle cx="847.51" cy="218.00" r="2.20" fill="#1f2937" />
<circle cx="875.21" cy="335.13" r="2.20" fill="#1f2937" />
<circle cx="778.05" cy="795.72" r="2.20" fill="#1f2937" />
<circle cx="1003.32" cy="523.95" r="2.20" fill="#1f2937" />
<circle cx="1334.97" cy="275.82" r="2.20" fill="#1f2937" />
<circle cx="903.20" cy="579.01" r="2.20" fill="#1f2937" />
<circle cx="674.80" cy="821.96" r="2.20" fill="#1f2937" />
<circle cx="875.04" cy="694.01" r="2.20" fill="#1f2937" />
<circle cx="972.03" cy="484.43" r="3.20" fill="#b91c1c" />
<circle cx="790.56" cy="722.19" r="2.20" fill="#1f2937" />
<circle cx="1236.76" cy="680.66" r="2.20" fill="#1f2937" />
<circle cx="1144.11" cy="404.42" r="2.20" fill="#1f2937" />
<circle cx="1128.47" cy="457.54" r="2.20" fill="#1f2937" />
<circle cx="709.21" cy="1338.30" r="2.20" fill="#1f2937" />
<circle cx="843.75" cy="261.24" r="2.20" fill="#1f2937" />
<circle cx="269.44" cy="291.04" r="3.20" fill="#b91c1c" />
<circle cx="778.05" cy="1277.07" r="2.20" fill="#1f2937" />
<circle cx="1090.92" cy="470.17" r="2.20" fill="#1f2937" />
<circle cx="824.98" cy="649.95" r="3.20" fill="#b91c1c" />
<circle cx="993.93" cy="373.00" r="2.20" fill="#1f2937" />
<circle cx="1065.89" cy="1089.20" r="2.20" fill="#1f2937" />
<circle cx="915.19" cy="704.95" r="2.20" fill="#1f2937" />
<circle cx="871.91" cy="639.26" r="3.20" fill="#b91c1c" />
<circle cx="768.66" cy="901.97" r="2.20" fill="#1f2937" />
<circle cx="756.14" cy="1325.66" r="2.20" fill="#1f2937" />
<circle cx="1294.30" cy="528.48" r="2.20" fill="#1f2937" />
<circle cx="765.53" cy="609.46" r="2.20" fill="#1f2937" />
<circle cx="1162.02" cy="753.54" r="2.20" fill="#1f2937" />
<circle cx="471.43" cy="916.54" r="2.20" fill="#1f2937" />
<circle cx="1316.20" cy="452.03" r="2.20" fill="#1f2937" />
<circle cx="1125.34" cy="675.22" r="3.20" fill="#b91c1c" />
<circle cx="793.51" cy="531.29" r="2.20" fill="#1f2937" />
<circle cx="988.20" cy="654.56" r="2.20" fill="#1f2937" />
<circle cx="1072.15" cy="1123.21" r="2.20" fill="#1f2937" />
<circle cx="734.24" cy="938.90" r="2.20" fill="#1f2937" />
<circle cx="1006.45" cy="906.50" r="2.20" fill="#1f2937" />
<circle cx="1037.74" cy="503.54" r="2.20" fill="#1f2937" />
<circle cx="1089.88" cy="737.34" r="2.20" fill="#1f2937" />
<circle cx="695.31" cy="491.70" r="2.20" fill="#1f2937" />
<circle cx="862.52" cy="812.89" r="2.20" fill="#1f2937" />
<circle cx="796.99" cy="619.47" r="2.20" fill="#1f2937" />
<circle cx="1222.33" cy="703.08" r="3.20" fill="#b91c1c" />
<circle cx="724.86" cy="677.16" r="2.20" fill="#1f2937" />
<circle cx="962.64" cy="715.71" r="2.20" fill="#1f2937" />
<circle cx="1034.61" cy="979.39" r="2.20" fill="#1f2937" />
<circle cx="993.93" cy="675.22" r="3.20" fill="#b91c1c" />
<circle cx="1043.99" cy="591.65" r="2.20" fill="#1f2937" />
<circle cx="965.77" cy="683.32" r="2.20" fill="#1f2937" />
<circle cx="341.58" cy="326.13" r="2.20" fill="#1f2937" />
<circle cx="1150.37" cy="429.68" r="2.20" fill="#1f2937" />
<circle cx="630.99" cy="1360.00" r="2.20" fill="#1f2937" />
<circle cx="1174.18" cy="596.97" r="2.20" fill="#1f2937" />
<circle cx="718.79" cy="320.75" r="2.20" fill="#1f2937" />
<circle cx="1043.99" cy="680.73" r="2.20" fill="#1f2937" />
<circle cx="485.85" cy="400.82" r="2.20" fill="#1f2937" />
<circle cx="1137.86" cy="344.17" r="2.20" fill="#1f2937" />
<circle cx="214.86" cy="94.10" r="2.20" fill="#1f2937" />
<circle cx="849.14" cy="42.70" r="2.20" fill="#1f2937" />
<circle cx="1313.07" cy="235.33" r="2.20" fill="#1f2937" />
<circle cx="950.13" cy="501.60" r="2.20" fill="#1f2937" />
<circle cx="909.45" cy="522.33" r="2.20" fill="#1f2937" />
<circle cx="703.13" cy="970.39" r="2.20" fill="#1f2937" />
<circle cx="894.77" cy="374.69" r="2.20" fill="#1f2937" />
<circle cx="956.04" cy="604.17" r="3.20" fill="#b91c1c" />
<circle cx="1140.99" cy="641.21" r="2.20" fill="#1f2937" />
<circle cx="1140.99" cy="641.21" r="2.20" fill="#1f2937" />
<circle cx="1100.31" cy="584.52" r="2.20" fill="#1f2937" />
<circle cx="1059.64" cy="1049.68" r="2.20" fill="#1f2937" />
<circle cx="562.16" cy="859.86" r="2.20" fill="#1f2937" />
<circle cx="645.77" cy="482.70" r="2.20" fill="#1f2937" />
<circle cx="950.13" cy="575.45" r="2.20" fill="#1f2937" />
<circle cx="1006.45" cy="467.26" r="2.20" fill="#1f2937" />
<circle cx="1083.80" cy="613.17" r="2.20" fill="#1f2937" />
<circle cx="753.02" cy="346.76" r="2.20" fill="#1f2937" />
<circle cx="40.00" cy="437.71" r="2.20" fill="#1f2937" />
<circle cx="1112.83" cy="705.02" r="2.20" fill="#1f2937" />
<circle cx="181.67" cy="287.44" r="2.20" fill="#1f2937" />
<circle cx="890.68" cy="458.51" r="2.20" fill="#1f2937" />
<circle cx="840.62" cy="773.37" r="3.20" fill="#b91c1c" />
<circle cx="905.63" cy="552.88" r="3.20" fill="#b91c1c" />
<circle cx="1175.40" cy="649.95" r="2.20" fill="#1f2937" />
<circle cx="821.85" cy="865.04" r="3.20" fill="#b91c1c" />
<circle cx="859.39" cy="762.68" r="2.20" fill="#1f2937" />
<circle cx="684.18" cy="325.38" r="2.20" fill="#1f2937" />
<circle cx="728.33" cy="508.79" r="2.20" fill="#1f2937" />
<circle cx="1059.46" cy="879.51" r="2.20" fill="#1f2937" />
<circle cx="189.83" cy="1001.74" r="2.20" fill="#1f2937" />
<circle cx="1139.42" cy="319.84" r="2.20" fill="#1f2937" />
<circle cx="859.39" cy="849.82" r="2.20" fill="#1f2937" />
<circle cx="1000.19" cy="124.54" r="2.20" fill="#1f2937" />
<circle cx="305.60" cy="937.92" r="2.20" fill="#1f2937" />
<circle cx="1043.99" cy="471.15" r="2.20" fill="#1f2937" />
<circle cx="1015.83" cy="160.50" r="2.20" fill="#1f2937" />
<circle cx="1054.16" cy="252.37" r="2.20" fill="#1f2937" />
<circle cx="204.26" cy="1185.44" r="2.20" fill="#1f2937" />
<circle cx="196.44" cy="1261.92" r="2.20" fill="#1f2937" />
<circle cx="1009.58" cy="288.45" r="2.20" fill="#1f2937" />
<circle cx="956.39" cy="639.26" r="2.20" fill="#1f2937" />
<circle cx="1022.96" cy="879.51" r="2.20" fill="#1f2937" />
<circle cx="909.45" cy="659.02" r="2.20" fill="#1f2937" />
<circle cx="1360.00" cy="319.87" r="2.20" fill="#1f2937" />
<circle cx="1000.19" cy="704.05" r="3.20" fill="#b91c1c" />
<circle cx="1111.61" cy="752.64" r="2.20" fill="#1f2937" />
<circle cx="1097.18" cy="681.70" r="2.20" fill="#1f2937" />
<circle cx="590.14" cy="453.01" r="2.20" fill="#1f2937" />
<circle cx="915.71" cy="40.00" r="2.20" fill="#1f2937" />
<circle cx="856.27" cy="292.99" r="2.20" fill="#1f2937" />
<circle cx="681.05" cy="666.15" r="2.20" fill="#1f2937" />
<circle cx="665.41" cy="1350.93" r="2.20" fill="#1f2937" />
<circle cx="884.42" cy="414.46" r="2.20" fill="#1f2937" />
<circle cx="1069.89" cy="761.64" r="3.20" fill="#b91c1c" />
<circle cx="186.88" cy="140.78" r="2.20" fill="#1f2937" />
<circle cx="915.71" cy="619.50" r="2.20" fill="#1f2937" />
<circle cx="778.05" cy="683.32" r="2.20" fill="#1f2937" />
<circle cx="987.67" cy="319.87" r="2.20" fill="#1f2937" />
<circle cx="812.46" cy="127.14" r="2.20" fill="#1f2937" />
<circle cx="1313.07" cy="480.86" r="2.20" fill="#1f2937" />
<circle cx="615.35" cy="468.30" r="2.20" fill="#1f2937" />
<circle cx="1319.33" cy="381.09" r="2.20" fill="#1f2937" />
<circle cx="1137.86" cy="372.02" r="2.20" fill="#1f2937" />
<circle cx="1034.61" cy="658.05" r="2.20" fill="#1f2937" />
<circle cx="795.25" cy="506.99" r="2.20" fill="#1f2937" />
<circle cx="792.65" cy="441.31" r="2.20" fill="#1f2937" />
<circle cx="627.86" cy="848.84" r="2.20" fill="#1f2937" />
<circle cx="937.61" cy="588.73" r="2.20" fill="#1f2937" />
<circle cx="681.05" cy="1001.74" r="2.20" fill="#1f2937" />
<circle cx="859.08" cy="737.93" r="3.20" fill="#b91c1c" />
<circle cx="900.07" cy="483.46" r="2.20" fill="#1f2937" />
<circle cx="1094.23" cy="547.49" r="2.20" fill="#1f2937" />
<circle cx="1018.96" cy="840.75" r="2.20" fill="#1f2937" />
<circle cx="1018.96" cy="784.06" r="3.20" fill="#b91c1c" />
<circle cx="693.57" cy="1073.00" r="2.20" fill="#1f2937" />
<circle cx="809.33" cy="757.17" r="3.20" fill="#b91c1c" />
<circle cx="962.64" cy="51.66" r="2.20" fill="#1f2937" />
<circle cx="1146.37" cy="606.87" r="2.20" fill="#1f2937" />
<circle cx="1266.14" cy="550.18" r="2.20" fill="#1f2937" />
<circle cx="1037.74" cy="772.72" r="2.20" fill="#1f2937" />
<circle cx="1034.61" cy="202.93" r="2.20" fill="#1f2937" />
<circle cx="1306.81" cy="710.20" r="2.20" fill="#1f2937" />
<circle cx="881.30" cy="715.71" r="3.20" fill="#b91c1c" />
<circle cx="818.72" cy="563.79" r="3.20" fill="#b91c1c" />
<circle cx="749.19" cy="552.88" r="2.20" fill="#1f2937" />
<circle cx="524.61" cy="881.24" r="2.20" fill="#1f2937" />
<circle cx="774.92" cy="656.43" r="3.20" fill="#b91c1c" />
<circle cx="853.14" cy="537.55" r="2.20" fill="#1f2937" />
<circle cx="940.74" cy="541.11" r="2.20" fill="#1f2937" />
<circle cx="1319.33" cy="349.67" r="2.20" fill="#1f2937" />
<circle cx="731.11" cy="1145.88" r="2.20" fill="#1f2937" />
<g font-family="Arial, sans-serif" font-size="10" fill="#111827">
<text x="1126.21" y="615.50">15:CenturyAvenue</text>
<text x="960.04" y="600.17">110:PeoplesSquare</text>
<text x="813.33" y="753.17">179:YishanRoad</text>
<text x="785.17" y="583.11">14:CaoyangRoad</text>
<text x="888.42" y="667.66">20:ChangshuRoad</text>
<text x="1004.19" y="700.05">148:SouthXizangRoad</text>
<text x="1073.89" y="757.64">157:WestGaokeRoad</text>
<text x="900.94" y="740.54">34:DonganRoad</text>
<text x="863.08" y="733.93">173:Xujiahui</text>
<text x="1022.96" y="780.06">177:YaohuaRoad</text>
<text x="976.03" y="480.43">55:HongkouFootballStadium</text>
<text x="885.30" y="711.71">186:ZhaojiabangRoad</text>
<text x="822.72" y="559.79">187:ZhenpingRoad</text>
<text x="778.92" y="652.43">190:ZhongshanPark</text>
<text x="875.91" y="635.26">69:JinganTemple</text>
<text x="1129.34" y="671.22">77:LancunRoad</text>
<text x="1226.33" y="699.08">88:LongyangRoad</text>
<text x="997.93" y="671.22">92:LujiabangRoad</text>
<text x="844.62" y="769.37">125:ShanghaiIndoorStadium</text>
<text x="909.63" y="548.88">126:ShanghaiRailwayStation</text>
<text x="825.85" y="861.04">128:ShanghaiSouthRailwayStation</text>
<text x="966.64" y="543.59">5:BaoshanRoad</text>
<text x="273.44" y="287.04">62:JiadingXincheng</text>
<text x="828.98" y="645.95">65:JiangsuRoad</text>
<text x="1069.89" y="472.33">2:AnshanXincun</text>
</g>
</g>
</svg>
