<?xml version="1.0" encoding="UTF-8"?>
<svg xmlns="http://www.w3.org/2000/svg" width="1400" height="1400" viewBox="0 0 1400 1400">
<rect x="0" y="0" width="100%" height="100%" fill="#ffffff" />
<g opacity="0.75">
<line x1="365.56" y1="743.86" x2="372.32" y2="786.70" stroke="#9aa0a6" stroke-width="1.53" />
<line x1="365.56" y1="743.86" x2="364.71" y2="696.94" stroke="#9aa0a6" stroke-width="1.48" />
<line x1="449.27" y1="301.14" x2="427.29" y2="278.70" stroke="#9aa0a6" stroke-width="1.62" />
<line x1="449.27" y1="301.14" x2="468.39" y2="325.22" stroke="#9aa0a6" stroke-width="1.66" />
<line x1="684.35" y1="586.77" x2="702.79" y2="633.69" stroke="#9aa0a6" stroke-width="1.35" />
<line x1="684.35" y1="586.77" x2="685.20" y2="625.53" stroke="#9aa0a6" stroke-width="1.63" />
<line x1="684.35" y1="586.77" x2="679.28" y2="535.77" stroke="#9aa0a6" stroke-width="1.40" />
<line x1="684.35" y1="586.77" x2="712.26" y2="592.89" stroke="#9aa0a6" stroke-width="1.58" />
<line x1="684.35" y1="586.77" x2="663.22" y2="560.25" stroke="#9aa0a6" stroke-width="1.59" />
<line x1="609.94" y1="1186.58" x2="605.38" y2="1140.47" stroke="#9aa0a6" stroke-width="1.49" />
<line x1="293.68" y1="86.93" x2="314.82" y2="144.04" stroke="#9aa0a6" stroke-width="1.15" />
<line x1="604.02" y1="994.81" x2="601.49" y2="1037.65" stroke="#9aa0a6" stroke-width="1.55" />
<line x1="604.02" y1="994.81" x2="603.40" y2="958.65" stroke="#9aa0a6" stroke-width="1.68" />
<line x1="58.60" y1="458.24" x2="40.00" y2="486.80" stroke="#9aa0a6" stroke-width="1.62" />
<line x1="58.60" y1="458.24" x2="93.27" y2="466.40" stroke="#9aa0a6" stroke-width="1.40" />
<line x1="496.63" y1="431.71" x2="523.69" y2="401.11" stroke="#9aa0a6" stroke-width="1.42" />
<line x1="496.63" y1="431.71" x2="477.52" y2="479.45" stroke="#9aa0a6" stroke-width="1.33" />
<line x1="455.20" y1="739.78" x2="438.28" y2="768.34" stroke="#9aa0a6" stroke-width="1.65" />
<line x1="455.20" y1="739.78" x2="474.65" y2="729.58" stroke="#9aa0a6" stroke-width="1.78" />
<line x1="465.34" y1="827.51" x2="438.28" y2="835.67" stroke="#9aa0a6" stroke-width="1.60" />
<line x1="465.34" y1="827.51" x2="496.63" y2="821.39" stroke="#9aa0a6" stroke-width="1.49" />
<line x1="465.34" y1="827.51" x2="471.26" y2="868.31" stroke="#9aa0a6" stroke-width="1.58" />
<line x1="465.34" y1="827.51" x2="473.80" y2="772.43" stroke="#9aa0a6" stroke-width="1.31" />
<line x1="438.28" y1="835.67" x2="409.53" y2="843.83" stroke="#9aa0a6" stroke-width="1.55" />
<line x1="438.28" y1="835.67" x2="430.67" y2="909.12" stroke="#9aa0a6" stroke-width="0.98" />
<line x1="438.28" y1="835.67" x2="437.44" y2="803.03" stroke="#9aa0a6" stroke-width="1.74" />
<line x1="637.85" y1="468.44" x2="651.04" y2="523.52" stroke="#9aa0a6" stroke-width="1.27" />
<line x1="637.85" y1="468.44" x2="626.86" y2="433.76" stroke="#9aa0a6" stroke-width="1.64" />
<line x1="1093.63" y1="745.90" x2="1136.76" y2="703.06" stroke="#9aa0a6" stroke-width="0.94" />
<line x1="1093.63" y1="745.90" x2="1021.76" y2="758.14" stroke="#9aa0a6" stroke-width="0.40" />
<line x1="469.57" y1="507.20" x2="469.57" y2="554.13" stroke="#9aa0a6" stroke-width="1.48" />
<line x1="469.57" y1="507.20" x2="477.52" y2="479.45" stroke="#9aa0a6" stroke-width="1.79" />
<line x1="357.95" y1="660.21" x2="375.71" y2="656.14" stroke="#9aa0a6" stroke-width="1.85" />
<line x1="357.95" y1="660.21" x2="363.87" y2="619.41" stroke="#9aa0a6" stroke-width="1.58" />
<line x1="357.95" y1="660.21" x2="333.43" y2="664.30" stroke="#9aa0a6" stroke-width="1.68" />
<line x1="357.95" y1="660.21" x2="364.71" y2="696.94" stroke="#9aa0a6" stroke-width="1.64" />
<line x1="797.67" y1="1092.73" x2="784.98" y2="1015.62" stroke="#9aa0a6" stroke-width="0.89" />
<line x1="797.67" y1="1092.73" x2="800.20" y2="1147.82" stroke="#9aa0a6" stroke-width="1.33" />
<line x1="409.53" y1="843.83" x2="387.54" y2="813.23" stroke="#9aa0a6" stroke-width="1.52" />
<line x1="724.95" y1="888.71" x2="723.25" y2="837.71" stroke="#9aa0a6" stroke-width="1.41" />
<line x1="724.95" y1="888.71" x2="733.40" y2="937.68" stroke="#9aa0a6" stroke-width="1.42" />
<line x1="314.82" y1="144.04" x2="331.74" y2="186.89" stroke="#9aa0a6" stroke-width="1.43" />
<line x1="369.79" y1="986.65" x2="330.89" y2="1007.04" stroke="#9aa0a6" stroke-width="1.23" />
<line x1="369.79" y1="986.65" x2="387.54" y2="939.72" stroke="#9aa0a6" stroke-width="1.36" />
<line x1="589.65" y1="623.49" x2="565.82" y2="596.87" stroke="#9aa0a6" stroke-width="1.53" />
<line x1="795.13" y1="1200.86" x2="809.34" y2="1265.33" stroke="#9aa0a6" stroke-width="1.10" />
<line x1="795.13" y1="1200.86" x2="800.20" y2="1147.82" stroke="#9aa0a6" stroke-width="1.36" />
<line x1="549.06" y1="786.70" x2="572.74" y2="756.11" stroke="#9aa0a6" stroke-width="1.49" />
<line x1="549.06" y1="786.70" x2="507.62" y2="749.98" stroke="#9aa0a6" stroke-width="1.04" />
<line x1="565.82" y1="596.87" x2="554.18" y2="560.76" stroke="#9aa0a6" stroke-width="1.61" />
<line x1="430.67" y1="909.12" x2="430.67" y2="949.92" stroke="#9aa0a6" stroke-width="1.59" />
<line x1="1245.84" y1="494.96" x2="1276.28" y2="474.56" stroke="#9aa0a6" stroke-width="1.44" />
<line x1="1245.84" y1="494.96" x2="1228.09" y2="533.72" stroke="#9aa0a6" stroke-width="1.48" />
<line x1="312.29" y1="1056.01" x2="330.89" y2="1007.04" stroke="#9aa0a6" stroke-width="1.31" />
<line x1="312.29" y1="1056.01" x2="288.61" y2="1102.94" stroke="#9aa0a6" stroke-width="1.27" />
<line x1="375.71" y1="656.14" x2="409.53" y2="650.01" stroke="#9aa0a6" stroke-width="1.42" />
<line x1="685.20" y1="435.80" x2="690.28" y2="380.71" stroke="#9aa0a6" stroke-width="1.32" />
<line x1="685.20" y1="435.80" x2="686.05" y2="507.20" stroke="#9aa0a6" stroke-width="1.03" />
<line x1="496.63" y1="821.39" x2="527.07" y2="813.23" stroke="#9aa0a6" stroke-width="1.51" />
<line x1="1136.76" y1="703.06" x2="1180.73" y2="652.05" stroke="#9aa0a6" stroke-width="0.84" />
<line x1="409.53" y1="650.01" x2="442.51" y2="690.82" stroke="#9aa0a6" stroke-width="1.18" />
<line x1="387.54" y1="813.23" x2="381.63" y2="888.71" stroke="#9aa0a6" stroke-width="0.95" />
<line x1="387.54" y1="813.23" x2="418.83" y2="786.70" stroke="#9aa0a6" stroke-width="1.37" />
<line x1="387.54" y1="813.23" x2="372.32" y2="786.70" stroke="#9aa0a6" stroke-width="1.70" />
<line x1="875.46" y1="639.81" x2="910.98" y2="652.05" stroke="#9aa0a6" stroke-width="1.36" />
<line x1="875.46" y1="639.81" x2="844.17" y2="635.73" stroke="#9aa0a6" stroke-width="1.50" />
<line x1="812.89" y1="627.57" x2="844.17" y2="635.73" stroke="#9aa0a6" stroke-width="1.49" />
<line x1="812.89" y1="627.57" x2="784.98" y2="621.45" stroke="#9aa0a6" stroke-width="1.58" />
<line x1="538.07" y1="268.50" x2="567.66" y2="325.63" stroke="#9aa0a6" stroke-width="1.03" />
<line x1="538.07" y1="268.50" x2="527.92" y2="221.58" stroke="#9aa0a6" stroke-width="1.44" />
<line x1="615.02" y1="635.73" x2="608.25" y2="594.93" stroke="#9aa0a6" stroke-width="1.57" />
<line x1="615.02" y1="635.73" x2="615.86" y2="654.10" stroke="#9aa0a6" stroke-width="2.00" />
<line x1="991.31" y1="698.98" x2="941.42" y2="666.33" stroke="#9aa0a6" stroke-width="0.87" />
<line x1="991.31" y1="698.98" x2="1021.76" y2="758.14" stroke="#9aa0a6" stroke-width="0.98" />
<line x1="608.25" y1="594.93" x2="609.10" y2="556.16" stroke="#9aa0a6" stroke-width="1.63" />
<line x1="430.67" y1="949.92" x2="429.83" y2="992.77" stroke="#9aa0a6" stroke-width="1.55" />
<line x1="615.86" y1="386.83" x2="592.18" y2="360.31" stroke="#9aa0a6" stroke-width="1.54" />
<line x1="615.86" y1="386.83" x2="626.86" y2="433.76" stroke="#9aa0a6" stroke-width="1.43" />
<line x1="572.74" y1="756.11" x2="532.14" y2="743.86" stroke="#9aa0a6" stroke-width="1.23" />
<line x1="572.74" y1="756.11" x2="571.89" y2="715.30" stroke="#9aa0a6" stroke-width="1.59" />
<line x1="572.74" y1="756.11" x2="595.57" y2="749.98" stroke="#9aa0a6" stroke-width="1.71" />
<line x1="636.16" y1="807.11" x2="613.32" y2="784.67" stroke="#9aa0a6" stroke-width="1.60" />
<line x1="636.16" y1="807.11" x2="671.67" y2="821.39" stroke="#9aa0a6" stroke-width="1.35" />
<line x1="733.23" y1="751.21" x2="702.96" y2="749.98" stroke="#9aa0a6" stroke-width="1.53" />
<line x1="733.23" y1="751.21" x2="774.84" y2="737.74" stroke="#9aa0a6" stroke-width="1.20" />
<line x1="784.98" y1="1015.62" x2="774.84" y2="970.32" stroke="#9aa0a6" stroke-width="1.47" />
<line x1="437.44" y1="803.03" x2="438.28" y2="768.34" stroke="#9aa0a6" stroke-width="1.70" />
<line x1="302.14" y1="474.56" x2="324.12" y2="490.88" stroke="#9aa0a6" stroke-width="1.68" />
<line x1="302.14" y1="474.56" x2="261.55" y2="474.56" stroke="#9aa0a6" stroke-width="1.25" />
<line x1="620.93" y1="760.18" x2="619.24" y2="701.02" stroke="#9aa0a6" stroke-width="1.26" />
<line x1="620.93" y1="760.18" x2="613.32" y2="784.67" stroke="#9aa0a6" stroke-width="1.84" />
<line x1="620.93" y1="760.18" x2="595.57" y2="749.98" stroke="#9aa0a6" stroke-width="1.63" />
<line x1="620.93" y1="760.18" x2="666.60" y2="756.11" stroke="#9aa0a6" stroke-width="1.11" />
<line x1="472.11" y1="613.29" x2="469.57" y2="554.13" stroke="#9aa0a6" stroke-width="1.26" />
<line x1="472.11" y1="613.29" x2="442.51" y2="690.82" stroke="#9aa0a6" stroke-width="0.72" />
<line x1="138.94" y1="458.24" x2="184.60" y2="464.35" stroke="#9aa0a6" stroke-width="1.11" />
<line x1="138.94" y1="458.24" x2="93.27" y2="466.40" stroke="#9aa0a6" stroke-width="1.11" />
<line x1="637.85" y1="647.97" x2="658.99" y2="662.26" stroke="#9aa0a6" stroke-width="1.71" />
<line x1="637.85" y1="647.97" x2="615.86" y2="654.10" stroke="#9aa0a6" stroke-width="1.74" />
<line x1="381.63" y1="888.71" x2="387.54" y2="939.72" stroke="#9aa0a6" stroke-width="1.39" />
<line x1="696.19" y1="668.37" x2="702.79" y2="633.69" stroke="#9aa0a6" stroke-width="1.68" />
<line x1="696.19" y1="668.37" x2="680.97" y2="717.34" stroke="#9aa0a6" stroke-width="1.36" />
<line x1="1276.28" y1="474.56" x2="1312.64" y2="458.24" stroke="#9aa0a6" stroke-width="1.32" />
<line x1="723.25" y1="837.71" x2="752.01" y2="878.51" stroke="#9aa0a6" stroke-width="1.27" />
<line x1="723.25" y1="837.71" x2="714.80" y2="796.91" stroke="#9aa0a6" stroke-width="1.56" />
<line x1="723.25" y1="837.71" x2="671.67" y2="821.39" stroke="#9aa0a6" stroke-width="0.92" />
<line x1="742.36" y1="978.89" x2="733.40" y2="937.68" stroke="#9aa0a6" stroke-width="1.55" />
<line x1="1360.00" y1="462.32" x2="1312.64" y2="458.24" stroke="#9aa0a6" stroke-width="1.07" />
<line x1="418.83" y1="786.70" x2="438.28" y2="768.34" stroke="#9aa0a6" stroke-width="1.72" />
<line x1="331.74" y1="186.89" x2="352.03" y2="221.58" stroke="#9aa0a6" stroke-width="1.50" />
<line x1="477.18" y1="900.96" x2="471.26" y2="868.31" stroke="#9aa0a6" stroke-width="1.72" />
<line x1="324.12" y1="490.88" x2="340.53" y2="523.52" stroke="#9aa0a6" stroke-width="1.60" />
<line x1="809.34" y1="1265.33" x2="839.78" y2="1294.71" stroke="#9aa0a6" stroke-width="1.36" />
<line x1="340.53" y1="523.52" x2="358.80" y2="550.04" stroke="#9aa0a6" stroke-width="1.65" />
<line x1="289.45" y1="670.42" x2="333.43" y2="664.30" stroke="#9aa0a6" stroke-width="1.15" />
<line x1="289.45" y1="670.42" x2="261.55" y2="672.46" stroke="#9aa0a6" stroke-width="1.59" />
<line x1="601.49" y1="1037.65" x2="600.64" y2="1082.53" stroke="#9aa0a6" stroke-width="1.52" />
<line x1="431.86" y1="170.98" x2="462.81" y2="190.97" stroke="#9aa0a6" stroke-width="1.43" />
<line x1="431.86" y1="170.98" x2="422.21" y2="95.09" stroke="#9aa0a6" stroke-width="0.93" />
<line x1="767.23" y1="917.28" x2="774.84" y2="970.32" stroke="#9aa0a6" stroke-width="1.35" />
<line x1="767.23" y1="917.28" x2="752.01" y2="878.51" stroke="#9aa0a6" stroke-width="1.52" />
<line x1="1223.01" y1="588.81" x2="1228.09" y2="533.72" stroke="#9aa0a6" stroke-width="1.32" />
<line x1="1223.01" y1="588.81" x2="1180.73" y2="652.05" stroke="#9aa0a6" stroke-width="0.72" />
<line x1="527.07" y1="813.23" x2="549.90" y2="800.99" stroke="#9aa0a6" stroke-width="1.69" />
<line x1="685.20" y1="625.53" x2="675.05" y2="656.14" stroke="#9aa0a6" stroke-width="1.72" />
<line x1="619.24" y1="701.02" x2="615.86" y2="654.10" stroke="#9aa0a6" stroke-width="1.48" />
<line x1="702.96" y1="749.98" x2="680.97" y2="717.34" stroke="#9aa0a6" stroke-width="1.50" />
<line x1="702.96" y1="749.98" x2="666.60" y2="756.11" stroke="#9aa0a6" stroke-width="1.36" />
<line x1="702.96" y1="749.98" x2="714.80" y2="796.91" stroke="#9aa0a6" stroke-width="1.42" />
<line x1="164.30" y1="1160.06" x2="201.51" y2="1109.05" stroke="#9aa0a6" stroke-width="0.97" />
<line x1="443.36" y1="713.26" x2="438.28" y2="768.34" stroke="#9aa0a6" stroke-width="1.32" />
<line x1="443.36" y1="713.26" x2="421.37" y2="725.50" stroke="#9aa0a6" stroke-width="1.71" />
<line x1="443.36" y1="713.26" x2="474.65" y2="729.58" stroke="#9aa0a6" stroke-width="1.45" />
<line x1="443.36" y1="713.26" x2="442.51" y2="690.82" stroke="#9aa0a6" stroke-width="1.93" />
<line x1="532.14" y1="743.86" x2="507.62" y2="749.98" stroke="#9aa0a6" stroke-width="1.67" />
<line x1="427.29" y1="278.70" x2="382.47" y2="252.18" stroke="#9aa0a6" stroke-width="1.04" />
<line x1="523.69" y1="401.11" x2="549.06" y2="364.38" stroke="#9aa0a6" stroke-width="1.38" />
<line x1="523.69" y1="401.11" x2="486.65" y2="391.32" stroke="#9aa0a6" stroke-width="1.33" />
<line x1="523.69" y1="401.11" x2="544.83" y2="431.71" stroke="#9aa0a6" stroke-width="1.54" />
<line x1="941.42" y1="666.33" x2="910.98" y2="652.05" stroke="#9aa0a6" stroke-width="1.48" />
<line x1="462.81" y1="190.97" x2="493.25" y2="199.13" stroke="#9aa0a6" stroke-width="1.51" />
<line x1="839.78" y1="1294.71" x2="876.31" y2="1309.40" stroke="#9aa0a6" stroke-width="1.32" />
<line x1="675.05" y1="656.14" x2="658.99" y2="662.26" stroke="#9aa0a6" stroke-width="1.89" />
<line x1="613.32" y1="784.67" x2="595.57" y2="749.98" stroke="#9aa0a6" stroke-width="1.54" />
<line x1="613.32" y1="784.67" x2="604.87" y2="849.95" stroke="#9aa0a6" stroke-width="1.13" />
<line x1="571.89" y1="715.30" x2="574.43" y2="674.50" stroke="#9aa0a6" stroke-width="1.59" />
<line x1="358.80" y1="550.04" x2="363.87" y2="619.41" stroke="#9aa0a6" stroke-width="1.06" />
<line x1="595.57" y1="749.98" x2="549.90" y2="800.99" stroke="#9aa0a6" stroke-width="0.80" />
<line x1="601.49" y1="658.17" x2="574.43" y2="674.50" stroke="#9aa0a6" stroke-width="1.55" />
<line x1="601.49" y1="658.17" x2="615.86" y2="654.10" stroke="#9aa0a6" stroke-width="1.94" />
<line x1="594.72" y1="515.36" x2="609.10" y2="556.16" stroke="#9aa0a6" stroke-width="1.50" />
<line x1="594.72" y1="515.36" x2="578.65" y2="484.76" stroke="#9aa0a6" stroke-width="1.63" />
<line x1="549.06" y1="364.38" x2="567.66" y2="325.63" stroke="#9aa0a6" stroke-width="1.47" />
<line x1="225.19" y1="629.61" x2="191.36" y2="617.37" stroke="#9aa0a6" stroke-width="1.40" />
<line x1="225.19" y1="629.61" x2="261.55" y2="672.46" stroke="#9aa0a6" stroke-width="1.09" />
<line x1="507.62" y1="749.98" x2="473.80" y2="772.43" stroke="#9aa0a6" stroke-width="1.34" />
<line x1="507.62" y1="749.98" x2="474.65" y2="729.58" stroke="#9aa0a6" stroke-width="1.38" />
<line x1="191.36" y1="617.37" x2="165.15" y2="556.16" stroke="#9aa0a6" stroke-width="1.02" />
<line x1="201.51" y1="1109.05" x2="240.41" y2="1109.05" stroke="#9aa0a6" stroke-width="1.29" />
<line x1="240.41" y1="1109.05" x2="288.61" y2="1102.94" stroke="#9aa0a6" stroke-width="1.04" />
<line x1="567.66" y1="325.63" x2="592.18" y2="360.31" stroke="#9aa0a6" stroke-width="1.43" />
<line x1="352.03" y1="221.58" x2="382.47" y2="252.18" stroke="#9aa0a6" stroke-width="1.35" />
<line x1="681.82" y1="254.21" x2="688.58" y2="307.27" stroke="#9aa0a6" stroke-width="1.35" />
<line x1="493.25" y1="199.13" x2="527.92" y2="221.58" stroke="#9aa0a6" stroke-width="1.32" />
<line x1="605.71" y1="905.03" x2="604.87" y2="849.95" stroke="#9aa0a6" stroke-width="1.33" />
<line x1="605.71" y1="905.03" x2="603.40" y2="958.65" stroke="#9aa0a6" stroke-width="1.36" />
<line x1="184.60" y1="464.35" x2="229.42" y2="470.48" stroke="#9aa0a6" stroke-width="1.13" />
<line x1="422.21" y1="95.09" x2="455.20" y2="40.00" stroke="#9aa0a6" stroke-width="1.00" />
<line x1="407.50" y1="1067.03" x2="417.99" y2="1031.53" stroke="#9aa0a6" stroke-width="1.63" />
<line x1="468.39" y1="325.22" x2="486.65" y2="391.32" stroke="#9aa0a6" stroke-width="1.04" />
<line x1="557.51" y1="450.08" x2="578.65" y2="484.76" stroke="#9aa0a6" stroke-width="1.49" />
<line x1="557.51" y1="450.08" x2="544.83" y2="431.71" stroke="#9aa0a6" stroke-width="1.86" />
<line x1="229.42" y1="470.48" x2="261.55" y2="474.56" stroke="#9aa0a6" stroke-width="1.47" />
<line x1="679.28" y1="535.77" x2="686.05" y2="507.20" stroke="#9aa0a6" stroke-width="1.78" />
<line x1="651.04" y1="523.52" x2="663.22" y2="560.25" stroke="#9aa0a6" stroke-width="1.59" />
<line x1="938.04" y1="1360.00" x2="903.37" y2="1306.96" stroke="#9aa0a6" stroke-width="1.00" />
<line x1="712.26" y1="592.89" x2="741.86" y2="611.25" stroke="#9aa0a6" stroke-width="1.48" />
<line x1="774.84" y1="737.74" x2="797.16" y2="699.79" stroke="#9aa0a6" stroke-width="1.42" />
<line x1="417.99" y1="1031.53" x2="429.83" y2="992.77" stroke="#9aa0a6" stroke-width="1.56" />
<line x1="690.28" y1="380.71" x2="688.58" y2="307.27" stroke="#9aa0a6" stroke-width="1.00" />
<line x1="741.86" y1="611.25" x2="784.98" y2="621.45" stroke="#9aa0a6" stroke-width="1.17" />
<line x1="600.64" y1="1082.53" x2="605.38" y2="1140.47" stroke="#9aa0a6" stroke-width="1.27" />
<line x1="474.65" y1="729.58" x2="442.51" y2="690.82" stroke="#9aa0a6" stroke-width="1.22" />
<line x1="876.31" y1="1309.40" x2="903.37" y2="1306.96" stroke="#9aa0a6" stroke-width="1.61" />
</g>
<g>
<circle cx="365.56" cy="743.86" r="3.20" fill="#b91c1c" />
<circle cx="449.27" cy="301.14" r="3.20" fill="#b91c1c" />
<circle cx="684.35" cy="586.77" r="3.20" fill="#b91c1c" />
<circle cx="609.94" cy="1186.58" r="2.20" fill="#1f2937" />
<circle cx="293.68" cy="86.93" r="2.20" fill="#1f2937" />
<circle cx="604.02" cy="994.81" r="3.20" fill="#b91c1c" />
<circle cx="58.60" cy="458.24" r="3.20" fill="#b91c1c" />
<circle cx="496.63" cy="431.71" r="3.20" fill="#b91c1c" />
<circle cx="455.20" cy="739.78" r="3.20" fill="#b91c1c" />
<circle cx="465.34" cy="827.51" r="3.20" fill="#b91c1c" />
<circle cx="438.28" cy="835.67" r="3.20" fill="#b91c1c" />
<circle cx="637.85" cy="468.44" r="2.20" fill="#1f2937" />
<circle cx="1093.63" cy="745.90" r="2.20" fill="#1f2937" />
<circle cx="469.57" cy="507.20" r="2.20" fill="#1f2937" />
<circle cx="357.95" cy="660.21" r="3.20" fill="#b91c1c" />
<circle cx="797.67" cy="1092.73" r="2.20" fill="#1f2937" />
<circle cx="409.53" cy="843.83" r="2.20" fill="#1f2937" />
<circle cx="724.95" cy="888.71" r="2.20" fill="#1f2937" />
<circle cx="314.82" cy="144.04" r="2.20" fill="#1f2937" />
<circle cx="369.79" cy="986.65" r="2.20" fill="#1f2937" />
<circle cx="589.65" cy="623.49" r="2.20" fill="#1f2937" />
<circle cx="795.13" cy="1200.86" r="2.20" fill="#1f2937" />
<circle cx="549.06" cy="786.70" r="2.20" fill="#1f2937" />
<circle cx="565.82" cy="596.87" r="2.20" fill="#1f2937" />
<circle cx="430.67" cy="909.12" r="2.20" fill="#1f2937" />
<circle cx="1245.84" cy="494.96" r="2.20" fill="#1f2937" />
<circle cx="312.29" cy="1056.01" r="2.20" fill="#1f2937" />
<circle cx="375.71" cy="656.14" r="2.20" fill="#1f2937" />
<circle cx="685.20" cy="435.80" r="2.20" fill="#1f2937" />
<circle cx="496.63" cy="821.39" r="2.20" fill="#1f2937" />
<circle cx="1136.76" cy="703.06" r="2.20" fill="#1f2937" />
<circle cx="409.53" cy="650.01" r="2.20" fill="#1f2937" />
<circle cx="387.54" cy="813.23" r="3.20" fill="#b91c1c" />
<circle cx="875.46" cy="639.81" r="2.20" fill="#1f2937" />
<circle cx="812.89" cy="627.57" r="2.20" fill="#1f2937" />
<circle cx="538.07" cy="268.50" r="2.20" fill="#1f2937" />
<circle cx="615.02" cy="635.73" r="2.20" fill="#1f2937" />
<circle cx="991.31" cy="698.98" r="2.20" fill="#1f2937" />
<circle cx="608.25" cy="594.93" r="2.20" fill="#1f2937" />
<circle cx="430.67" cy="949.92" r="2.20" fill="#1f2937" />
<circle cx="615.86" cy="386.83" r="2.20" fill="#1f2937" />
<circle cx="572.74" cy="756.11" r="3.20" fill="#b91c1c" />
<circle cx="636.16" cy="807.11" r="2.20" fill="#1f2937" />
<circle cx="733.23" cy="751.21" r="2.20" fill="#1f2937" />
<circle cx="784.98" cy="1015.62" r="2.20" fill="#1f2937" />
<circle cx="437.44" cy="803.03" r="2.20" fill="#1f2937" />
<circle cx="302.14" cy="474.56" r="2.20" fill="#1f2937" />
<circle cx="620.93" cy="760.18" r="3.20" fill="#b91c1c" />
<circle cx="472.11" cy="613.29" r="2.20" fill="#1f2937" />
<circle cx="138.94" cy="458.24" r="2.20" fill="#1f2937" />
<circle cx="554.18" cy="560.76" r="2.20" fill="#1f2937" />
<circle cx="637.85" cy="647.97" r="2.20" fill="#1f2937" />
<circle cx="381.63" cy="888.71" r="2.20" fill="#1f2937" />
<circle cx="696.19" cy="668.37" r="2.20" fill="#1f2937" />
<circle cx="1276.28" cy="474.56" r="2.20" fill="#1f2937" />
<circle cx="723.25" cy="837.71" r="3.20" fill="#b91c1c" />
<circle cx="742.36" cy="978.89" r="2.20" fill="#1f2937" />
<circle cx="1360.00" cy="462.32" r="2.20" fill="#1f2937" />
<circle cx="418.83" cy="786.70" r="2.20" fill="#1f2937" />
<circle cx="331.74" cy="186.89" r="2.20" fill="#1f2937" />
<circle cx="477.18" cy="900.96" r="2.20" fill="#1f2937" />
<circle cx="324.12" cy="490.88" r="2.20" fill="#1f2937" />
<circle cx="702.79" cy="633.69" r="2.20" fill="#1f2937" />
<circle cx="809.34" cy="1265.33" r="2.20" fill="#1f2937" />
<circle cx="340.53" cy="523.52" r="2.20" fill="#1f2937" />
<circle cx="289.45" cy="670.42" r="2.20" fill="#1f2937" />
<circle cx="601.49" cy="1037.65" r="2.20" fill="#1f2937" />
<circle cx="431.86" cy="170.98" r="2.20" fill="#1f2937" />
<circle cx="767.23" cy="917.28" r="2.20" fill="#1f2937" />
<circle cx="1223.01" cy="588.81" r="2.20" fill="#1f2937" />
<circle cx="527.07" cy="813.23" r="2.20" fill="#1f2937" />
<circle cx="685.20" cy="625.53" r="2.20" fill="#1f2937" />
<circle cx="619.24" cy="701.02" r="2.20" fill="#1f2937" />
<circle cx="372.32" cy="786.70" r="2.20" fill="#1f2937" />
<circle cx="702.96" cy="749.98" r="3.20" fill="#b91c1c" />
<circle cx="164.30" cy="1160.06" r="2.20" fill="#1f2937" />
<circle cx="443.36" cy="713.26" r="3.20" fill="#b91c1c" />
<circle cx="532.14" cy="743.86" r="2.20" fill="#1f2937" />
<circle cx="427.29" cy="278.70" r="2.20" fill="#1f2937" />
<circle cx="733.40" cy="937.68" r="2.20" fill="#1f2937" />
<circle cx="523.69" cy="401.11" r="3.20" fill="#b91c1c" />
<circle cx="941.42" cy="666.33" r="2.20" fill="#1f2937" />
<circle cx="462.81" cy="190.97" r="2.20" fill="#1f2937" />
<circle cx="839.78" cy="1294.71" r="2.20" fill="#1f2937" />
<circle cx="1312.64" cy="458.24" r="2.20" fill="#1f2937" />
<circle cx="910.98" cy="652.05" r="2.20" fill="#1f2937" />
<circle cx="675.05" cy="656.14" r="2.20" fill="#1f2937" />
<circle cx="613.32" cy="784.67" r="3.20" fill="#b91c1c" />
<circle cx="571.89" cy="715.30" r="2.20" fill="#1f2937" />
<circle cx="358.80" cy="550.04" r="2.20" fill="#1f2937" />
<circle cx="595.57" cy="749.98" r="3.20" fill="#b91c1c" />
<circle cx="601.49" cy="658.17" r="2.20" fill="#1f2937" />
<circle cx="680.97" cy="717.34" r="2.20" fill="#1f2937" />
<circle cx="594.72" cy="515.36" r="2.20" fill="#1f2937" />
<circle cx="549.06" cy="364.38" r="2.20" fill="#1f2937" />
<circle cx="225.19" cy="629.61" r="2.20" fill="#1f2937" />
<circle cx="1228.09" cy="533.72" r="2.20" fill="#1f2937" />
<circle cx="774.84" cy="970.32" r="2.20" fill="#1f2937" />
<circle cx="507.62" cy="749.98" r="3.20" fill="#b91c1c" />
<circle cx="191.36" cy="617.37" r="2.20" fill="#1f2937" />
<circle cx="201.51" cy="1109.05" r="2.20" fill="#1f2937" />
<circle cx="609.10" cy="556.16" r="2.20" fill="#1f2937" />
<circle cx="240.41" cy="1109.05" r="2.20" fill="#1f2937" />
<circle cx="567.66" cy="325.63" r="3.20" fill="#b91c1c" />
<circle cx="352.03" cy="221.58" r="2.20" fill="#1f2937" />
<circle cx="681.82" cy="254.21" r="2.20" fill="#1f2937" />
<circle cx="592.18" cy="360.31" r="2.20" fill="#1f2937" />
<circle cx="493.25" cy="199.13" r="2.20" fill="#1f2937" />
<circle cx="605.71" cy="905.03" r="2.20" fill="#1f2937" />
<circle cx="800.20" cy="1147.82" r="2.20" fill="#1f2937" />
<circle cx="184.60" cy="464.35" r="2.20" fill="#1f2937" />
<circle cx="604.87" cy="849.95" r="2.20" fill="#1f2937" />
<circle cx="330.89" cy="1007.04" r="2.20" fill="#1f2937" />
<circle cx="574.43" cy="674.50" r="2.20" fill="#1f2937" />
<circle cx="666.60" cy="756.11" r="2.20" fill="#1f2937" />
<circle cx="752.01" cy="878.51" r="2.20" fill="#1f2937" />
<circle cx="422.21" cy="95.09" r="2.20" fill="#1f2937" />
<circle cx="471.26" cy="868.31" r="2.20" fill="#1f2937" />
<circle cx="40.00" cy="486.80" r="2.20" fill="#1f2937" />
<circle cx="407.50" cy="1067.03" r="2.20" fill="#1f2937" />
<circle cx="468.39" cy="325.22" r="2.20" fill="#1f2937" />
<circle cx="557.51" cy="450.08" r="2.20" fill="#1f2937" />
<circle cx="527.92" cy="221.58" r="2.20" fill="#1f2937" />
<circle cx="363.87" cy="619.41" r="2.20" fill="#1f2937" />
<circle cx="229.42" cy="470.48" r="2.20" fill="#1f2937" />
<circle cx="679.28" cy="535.77" r="2.20" fill="#1f2937" />
<circle cx="651.04" cy="523.52" r="2.20" fill="#1f2937" />
<circle cx="387.54" cy="939.72" r="2.20" fill="#1f2937" />
<circle cx="938.04" cy="1360.00" r="2.20" fill="#1f2937" />
<circle cx="165.15" cy="556.16" r="2.20" fill="#1f2937" />
<circle cx="844.17" cy="635.73" r="2.20" fill="#1f2937" />
<circle cx="382.47" cy="252.18" r="2.20" fill="#1f2937" />
<circle cx="712.26" cy="592.89" r="2.20" fill="#1f2937" />
<circle cx="774.84" cy="737.74" r="2.20" fill="#1f2937" />
<circle cx="417.99" cy="1031.53" r="2.20" fill="#1f2937" />
<circle cx="690.28" cy="380.71" r="2.20" fill="#1f2937" />
<circle cx="714.80" cy="796.91" r="2.20" fill="#1f2937" />
<circle cx="578.65" cy="484.76" r="2.20" fill="#1f2937" />
<circle cx="486.65" cy="391.32" r="2.20" fill="#1f2937" />
<circle cx="686.05" cy="507.20" r="2.20" fill="#1f2937" />
<circle cx="261.55" cy="474.56" r="2.20" fill="#1f2937" />
<circle cx="333.43" cy="664.30" r="2.20" fill="#1f2937" />
<circle cx="438.28" cy="768.34" r="3.20" fill="#b91c1c" />
<circle cx="658.99" cy="662.26" r="2.20" fill="#1f2937" />
<circle cx="615.86" cy="654.10" r="3.20" fill="#b91c1c" />
<circle cx="741.86" cy="611.25" r="2.20" fill="#1f2937" />
<circle cx="671.67" cy="821.39" r="2.20" fill="#1f2937" />
<circle cx="603.40" cy="958.65" r="2.20" fill="#1f2937" />
<circle cx="261.55" cy="672.46" r="2.20" fill="#1f2937" />
<circle cx="288.61" cy="1102.94" r="2.20" fill="#1f2937" />
<circle cx="1021.76" cy="758.14" r="2.20" fill="#1f2937" />
<circle cx="469.57" cy="554.13" r="2.20" fill="#1f2937" />
<circle cx="421.37" cy="725.50" r="2.20" fill="#1f2937" />
<circle cx="600.64" cy="1082.53" r="2.20" fill="#1f2937" />
<circle cx="473.80" cy="772.43" r="2.20" fill="#1f2937" />
<circle cx="688.58" cy="307.27" r="2.20" fill="#1f2937" />
<circle cx="626.86" cy="433.76" r="2.20" fill="#1f2937" />
<circle cx="429.83" cy="992.77" r="2.20" fill="#1f2937" />
<circle cx="797.16" cy="699.79" r="2.20" fill="#1f2937" />
<circle cx="784.98" cy="621.45" r="2.20" fill="#1f2937" />
<circle cx="544.83" cy="431.71" r="2.20" fill="#1f2937" />
<circle cx="663.22" cy="560.25" r="2.20" fill="#1f2937" />
<circle cx="477.52" cy="479.45" r="2.20" fill="#1f2937" />
<circle cx="605.38" cy="1140.47" r="2.20" fill="#1f2937" />
<circle cx="364.71" cy="696.94" r="2.20" fill="#1f2937" />
<circle cx="455.20" cy="40.00" r="2.20" fill="#1f2937" />
<circle cx="474.65" cy="729.58" r="3.20" fill="#b91c1c" />
<circle cx="1180.73" cy="652.05" r="2.20" fill="#1f2937" />
<circle cx="876.31" cy="1309.40" r="2.20" fill="#1f2937" />
<circle cx="549.90" cy="800.99" r="2.20" fill="#1f2937" />
<circle cx="93.27" cy="466.40" r="2.20" fill="#1f2937" />
<circle cx="442.51" cy="690.82" r="3.20" fill="#b91c1c" />
<circle cx="903.37" cy="1306.96" r="2.20" fill="#1f2937" />
<g font-family="Arial, sans-serif" font-size="10" fill="#111827">
<text x="688.35" y="582.77">3:Alexanderplatz</text>
<text x="469.34" y="823.51">10:BayerischerPlatz</text>
<text x="442.28" y="831.67">11:BerlinerStrasse</text>
<text x="361.95" y="656.21">15:Bismarckstrasse</text>
<text x="442.28" y="764.34">143:Spichernstrasse</text>
<text x="619.86" y="650.10">145:Stadtmitte</text>
<text x="391.54" y="809.23">33:FehrbellinerPlatz</text>
<text x="478.65" y="725.58">167:Wittenbergplatz</text>
<text x="576.74" y="752.11">42:Gleisdreieck</text>
<text x="446.51" y="686.82">172:ZoologischerGarten</text>
<text x="624.93" y="756.18">48:HalleschesTor</text>
<text x="727.25" y="833.71">56:Hermannplatz</text>
<text x="706.96" y="745.98">75:KottbusserTor</text>
<text x="447.36" y="709.26">77:Kurfuerstendamm</text>
<text x="527.69" y="397.11">81:Leopoldplatz</text>
<text x="617.32" y="780.67">88:Mehringdamm</text>
<text x="599.57" y="745.98">91:Moeckernbruecke</text>
<text x="511.62" y="745.98">99:Nollendorfplatz</text>
<text x="571.66" y="321.63">104:OsloerStrasse</text>
<text x="369.56" y="739.86">1:Adenauerplatz</text>
<text x="453.27" y="297.14">2:AfrikanischeStrasse</text>
<text x="608.02" y="990.81">6:Alt-Tempelhof</text>
<text x="62.60" y="454.24">7:AltstadtSpandau</text>
<text x="500.63" y="427.71">8:AmrumerStrasse</text>
<text x="459.20" y="735.78">9:AugsburgerStrasse</text>
</g>
</g>
</svg>
